<svg xmlns="http://www.w3.org/2000/svg" width="35.509" height="35.509" viewBox="0 0 35.509 35.509"><path d="M67.269,67.868a.58.58,0,0,1,.21-.645l4.507-3.306a2.026,2.026,0,0,0-1.189-3.66l-5.59-.026a.58.58,0,0,1-.549-.4l-1.752-5.308a2,2,0,0,0-1.924-1.391h0a2,2,0,0,0-1.924,1.391l-.79,2.392a.723.723,0,0,0,1.372.453l.79-2.392a.581.581,0,0,1,1.1,0l1.752,5.308A2.024,2.024,0,0,0,65.2,61.676l5.59.026a.581.581,0,0,1,.341,1.049l-4.507,3.306a2.024,2.024,0,0,0-.731,2.251l1.7,5.326a.581.581,0,0,1-.893.649l-4.538-3.265a2.024,2.024,0,0,0-2.367,0L55.26,74.284a.581.581,0,0,1-.893-.648l1.7-5.327a2.024,2.024,0,0,0-.731-2.251l-4.507-3.306a.581.581,0,0,1,.341-1.049l5.59-.026a.723.723,0,0,0,0-1.445h0l-5.59.026a2.026,2.026,0,0,0-1.189,3.66l4.507,3.306a.58.58,0,0,1,.21.645l-1.7,5.327a2,2,0,0,0,.739,2.256,2,2,0,0,0,2.374.005l4.538-3.266a.58.58,0,0,1,.679,0l4.538,3.265a2.026,2.026,0,0,0,3.113-2.262Z" transform="translate(-43.227 -46.734)" fill="#0074cf"/><path d="M17.754,0a17.754,17.754,0,0,0,0,35.509.723.723,0,1,0,0-1.445,16.3,16.3,0,1,1,8.764-2.552.723.723,0,0,0,.778,1.218A17.756,17.756,0,0,0,17.754,0Z" fill="#0074cf"/></svg>