<svg xmlns="http://www.w3.org/2000/svg" width="33.141" height="31.001" viewBox="0 0 33.141 31.001"><g transform="translate(-1224.139 -960.885)"><g transform="translate(1226.33 960.885)"><path d="M1243.517,972.279a3.923,3.923,0,0,1-2.776-6.7l4.1-4.1a.7.7,0,0,1,.988.988l-4.1,4.1a2.529,2.529,0,0,0,3.577,3.575l4.1-4.1a.7.7,0,0,1,.988.988l-4.1,4.1A3.913,3.913,0,0,1,1243.517,972.279Z" transform="translate(-1220.192 -960.729)" fill="#0074cf"/><path d="M1244.076,978.42a8.768,8.768,0,0,1-6.2-14.967,8.819,8.819,0,0,1,9.406-1.974.7.7,0,0,1-.5,1.305,7.378,7.378,0,0,0-7.917,12.08,7.372,7.372,0,0,0,10.425,0,7.423,7.423,0,0,0,1.656-7.915.7.7,0,1,1,1.3-.5,8.817,8.817,0,0,1-1.971,9.406A8.718,8.718,0,0,1,1244.076,978.42Z" transform="translate(-1221.892 -960.885)" fill="#0074cf"/><path d="M1229.633,988.7a3.926,3.926,0,0,1-2.776-6.7l13.021-13.019a.7.7,0,0,1,.988.988l-13.021,13.019a2.529,2.529,0,0,0,3.577,3.577l13.019-13.019a.7.7,0,0,1,.988.986l-13.02,13.021A3.9,3.9,0,0,1,1229.633,988.7Z" transform="translate(-1225.707 -957.751)" fill="#0074cf"/></g><circle cx="0.699" cy="0.699" r="0.699" transform="translate(1229.534 987.593)" fill="#0074cf"/><circle cx="0.699" cy="0.699" r="0.699" transform="translate(1249.095 987.593)" fill="#0074cf"/><g transform="translate(1224.139 962.157)"><path d="M1230.544,971.182a.7.7,0,0,1-.221-.036L1226.9,970a.7.7,0,0,1-.4-.351l-2.283-4.565a.7.7,0,0,1,.131-.806l2.282-2.283a.7.7,0,0,1,.808-.13l4.563,2.282a.7.7,0,0,1,.351.4l1.142,3.425a.7.7,0,0,1-.169.714l-2.283,2.283A.694.694,0,0,1,1230.544,971.182Zm-2.929-2.413,2.74.914,1.671-1.671-.913-2.74-3.855-1.928-1.57,1.57Z" transform="translate(-1224.139 -961.795)" fill="#0074cf"/><path d="M1245.612,987.192a3.9,3.9,0,0,1-2.775-1.151l-7.585-7.586a.7.7,0,0,1,.988-.988l7.586,7.586a2.581,2.581,0,0,0,3.574,0,2.532,2.532,0,0,0,0-3.576l-7.584-7.584a.7.7,0,0,1,.986-.988l7.585,7.584a3.927,3.927,0,0,1-2.775,6.7Z" transform="translate(-1219.806 -957.463)" fill="#0074cf"/><path d="M1235.022,975.665a.694.694,0,0,1-.493-.205l-6.1-6.1a.7.7,0,0,1,0-.988l2.289-2.289a.7.7,0,0,1,.493-.2h0a.7.7,0,0,1,.493.2l6.1,6.117a.7.7,0,0,1-.991.988l-5.609-5.622-1.3,1.3,5.609,5.609a.7.7,0,0,1-.495,1.193Z" transform="translate(-1222.518 -960.174)" fill="#0074cf"/></g></g></svg>