<svg xmlns="http://www.w3.org/2000/svg" width="19.545" height="19.545" viewBox="0 0 19.545 19.545"><g transform="translate(9.902 -0.133) rotate(45)"><g transform="translate(0 0.188)"><path d="M13.819,11.092a.668.668,0,0,1-.2.585l-1.947,1.932a1.1,1.1,0,0,1-.344.249,1.421,1.421,0,0,1-.417.132L10.818,14q-.073.007-.19.007a6.747,6.747,0,0,1-.9-.1,6.836,6.836,0,0,1-1.522-.468,12.776,12.776,0,0,1-2.042-1.12,15.222,15.222,0,0,1-2.43-2.049,16.038,16.038,0,0,1-1.7-1.932A13.765,13.765,0,0,1,.954,6.635a9.183,9.183,0,0,1-.615-1.42,7.532,7.532,0,0,1-.278-1.1A3.625,3.625,0,0,1,0,3.393Q.017,3.13.017,3.1a1.423,1.423,0,0,1,.132-.417A1.1,1.1,0,0,1,.4,2.339L2.344.393a.645.645,0,0,1,.468-.2A.546.546,0,0,1,3.149.3,1.017,1.017,0,0,1,3.4.569L4.964,3.54a.712.712,0,0,1,.073.512.912.912,0,0,1-.249.468l-.717.717a.244.244,0,0,0-.051.1A.361.361,0,0,0,4,5.442a2.643,2.643,0,0,0,.263.7A6.449,6.449,0,0,0,4.8,7,9.506,9.506,0,0,0,5.842,8.164,9.694,9.694,0,0,0,7.013,9.211a6.761,6.761,0,0,0,.856.549,2.276,2.276,0,0,0,.527.212l.183.037a.349.349,0,0,0,.1-.022.244.244,0,0,0,.1-.051L9.6,9.086a.9.9,0,0,1,.615-.234.765.765,0,0,1,.4.088h.015l2.825,1.668A.736.736,0,0,1,13.819,11.092Z" transform="translate(0 -0.188)" fill="#0074cf"/></g></g></svg>