<svg xmlns="http://www.w3.org/2000/svg" width="240.3" height="205.119" viewBox="0 0 240.3 205.119"><g transform="translate(0 0)"><path d="M63.183,69.307c7.909.529,11.217-4.867,14.933-11.8,10.173-18.988,32.828-17.158,40.428-5.466,5.383,8.282,16.991,6.578,26.381,3.337,9.242-3.19,24.988-6.255,37.53-2.442,10.955,3.329,15.45,15.342,25.435,14.6,21.784-1.612,32.766,19.894,28.821,29.274-2.575,6.122-3.854,12.97-1.76,19.27,2.306,6.938,7.573,12.43,11.831,18.395s7.686,13.42,5.57,20.417c-1.811,5.987-7.213,10.129-10.567,15.424-10.414,16.442-.112,41.64-13.988,55.345-9.933,9.81-26.127,7.545-40.025,9.417-11.59,1.561-22.5,6.429-34.035,8.336-23.365,3.862-46.96-4.644-70.647-4.884-8.343-.085-16.843.845-24.924-1.212a34.7,34.7,0,0,1-23.7-21.427c-5.162-14.331-.271-30.916-6.1-44.993C23.614,159.431,12,150.1,12.728,137.727c.455-7.7,5.718-14.148,9.338-20.981C27.445,106.59,20.322,66.439,63.183,69.307Zm68.948-18.6c-2.078,0-3.763,1.291-3.763,2.883s1.69,2.746,3.763,2.883c6.759.447,6.759-2.286,6.759-3.878C138.89,50.049,134.21,50.7,132.131,50.7ZM200.774,63a11.123,11.123,0,0,0,6.461,2.507,2.585,2.585,0,0,0,1.794-.405,1.467,1.467,0,0,0,.133-2.06,3.447,3.447,0,0,0-1.274-.7,4.007,4.007,0,0,1-1.967-1.468,1.444,1.444,0,0,0-.447-.557C204.166,59.583,198.4,61.036,200.774,63Zm11.513,2.547a2.956,2.956,0,0,0,1.846-.178c.384-.125.855-.4.752-.786a.72.72,0,0,0-.4-.4,2.547,2.547,0,0,0-2.6-.193C211.095,64.527,211.693,65.342,212.288,65.547Zm27.489,54.309a5.277,5.277,0,0,0,1.192,2.4,20.225,20.225,0,0,0,3.445,3.934,3.489,3.489,0,0,0,1.991.907,3.121,3.121,0,0,0,1.874-.676,5.962,5.962,0,0,0,2.425-4.115c.254-2.229-.783-4.4-1.989-6.3a7.829,7.829,0,0,0-2.868-2.979c-2.1-1.057-3.48-.134-4.066,1.721C241.242,116.46,239.559,117.955,239.777,119.856Zm-222.969,51.9c-1.1.972-.108,3.817.218,5.695a3.466,3.466,0,0,0,.584,1.595,3.862,3.862,0,0,0,2.051,1.087c1.343.39,2.972.72,4-.224a3.784,3.784,0,0,0,.867-2.87,26.788,26.788,0,0,0-.151-2.814,3,3,0,0,0-.353-1.295,2.882,2.882,0,0,0-1.39-1C20.71,171.115,17.912,170.784,16.808,171.756Zm67.45,71.272c-.653.131-1.432.413-1.527,1.066-.078.54.376,1,.816,1.328,3.6,2.687,8.449,2.859,12.957,2.921a3.839,3.839,0,0,0,1.556-.193,2,2,0,0,0,.978-2.614,3.235,3.235,0,0,0-.7-.9C94.721,241.114,88.766,242.124,84.258,243.028Zm89.95-1.818c-4.065,2.974.046,5.628,5.181,3.658a71.888,71.888,0,0,1,8.251-2.82c.915-.229,6.449-1.426,6.449-2.669,0-3.295-6.235-2.517-10.157-1.968A20.4,20.4,0,0,0,174.208,241.21Z" transform="translate(-12.695 -43.227)" fill="#ecf3ff"/><g transform="translate(7.909 19.379)"><ellipse cx="19.567" cy="1.828" rx="19.567" ry="1.828" transform="translate(57.64 166.357)" fill="#c8dbfb"/><ellipse cx="19.567" cy="1.828" rx="19.567" ry="1.828" transform="translate(158.168 166.357)" fill="#c8dbfb"/><g transform="translate(2.978 25.752)"><path d="M250.3,146.083c-2.445-15.03-14.515-13.7-25.344-13.681l-178.479.368c-16.847.035-15.217,24.357-2.025,24.33,7.585-.016,10.468,14.226-2.645,14.254-8.749.018-8.08,12.348-.847,12.333" transform="translate(-34.196 -132.363)" fill="none" stroke="#c8dbfb" stroke-linecap="round" stroke-linejoin="round" stroke-width="1" stroke-dasharray="4"/><path d="M46.94,230.855a2.425,2.425,0,1,1-2.8-1.983A2.425,2.425,0,0,1,46.94,230.855Z" transform="translate(-38.11 -179.992)" fill="#5193f4"/><path d="M461.035,158.825a2.424,2.424,0,1,1-1.951-2.82A2.424,2.424,0,0,1,461.035,158.825Z" transform="translate(-242.548 -144.016)" fill="#5193f4"/></g><g transform="translate(0 7.77)"><g transform="translate(18.592 27.738)"><path d="M82.966,175.028a42.245,42.245,0,0,1-1.483,5.792,98.671,98.671,0,0,1-5.068,11.934c-.977,2.035-4.942,6.744-7.068,7.64A110.006,110.006,0,0,0,69,183.519c-.592-5.164,1.266-9.078-.759-13.868-.258-.613-.527-1.225-.795-1.838a25.658,25.658,0,0,1-2.319-7.023c-.405-3.114.562-6.663,3.256-8.283a7.23,7.23,0,0,1,6.536-.187,12.144,12.144,0,0,1,4.992,4.471C83.437,162.036,84.075,168.81,82.966,175.028Z" transform="translate(-65.035 -151.632)" fill="#5193f4"/><path d="M81.815,163.865c3.965,5.6,4.308,12.121,4.652,18.972A36.583,36.583,0,0,1,81.779,202.6" transform="translate(-73.301 -157.671)" fill="none" stroke="#0b43a4" stroke-linecap="round" stroke-linejoin="round" stroke-width="1"/></g><g transform="translate(11.684 107.614)"><path d="M66.648,338.988A42.819,42.819,0,0,1,59,330.952c-1.788-2.689-2.943-5.744-4.5-8.571a28.492,28.492,0,0,1-2.786-5.6,6.189,6.189,0,0,1,.981-5.911,5.565,5.565,0,0,1,6.064-1.017,10.752,10.752,0,0,1,4.741,4.353,20.745,20.745,0,0,1,3.047,8.065c.395,2.593.294,5.243.7,7.835a26.233,26.233,0,0,0,2.211,6.947c.928,2.007,3.279,5.585,3.879,7.643C71.674,345.528,67.832,340.036,66.648,338.988Z" transform="translate(-51.392 -309.394)" fill="#00ad9f"/><path d="M62.334,317.55c2.642,1.156,3.693,4.308,4.244,7.138.627,3.222.488,6.711,1.965,9.642,2.783,5.522,6.4,11.808,9.1,13.686" transform="translate(-56.794 -313.421)" fill="none" stroke="#00ad9f" stroke-linecap="round" stroke-linejoin="round" stroke-width="1"/></g><g transform="translate(5.711 128.916)"><path d="M47.148,352.2c-2.306-.91-5.385-1.284-6.864.705-1.238,1.666-.6,4.028.258,5.92a8.451,8.451,0,0,0,3.161,4.088,9.029,9.029,0,0,0,3.447.913,82.616,82.616,0,0,0,9.993.578A20.933,20.933,0,0,1,68.9,368.391C64.794,360.753,54.908,355.27,47.148,352.2Z" transform="translate(-39.594 -351.466)" fill="#0056ec"/><path d="M46.523,362.731a36.032,36.032,0,0,1,8.714,1.165c2.881.852,13.963,5.937,15.7,8.1" transform="translate(-43.015 -357.028)" fill="none" stroke="#0b43a4" stroke-linecap="round" stroke-linejoin="round" stroke-width="1"/></g><g transform="translate(0 77.239)"><path d="M66.731,286.144a19.531,19.531,0,0,0-13.662-8.722c-4.081-.548-8.281.215-12.308-.634a15.684,15.684,0,0,1-11.8-19.851c.946-3.151,3.108-6.135,6.237-7.146a9.891,9.891,0,0,1,5.312-.054,14.763,14.763,0,0,1,4.479,1.936A24.333,24.333,0,0,1,52.6,260c1.737,2.962,6.022,7.576,8.936,10.576,1.71,1.753,2.952,2.952,2.952,2.952C66.484,276.008,65.548,283.181,66.731,286.144Z" transform="translate(-28.315 -249.401)" fill="#52d2bc"/><path d="M40.109,268.161c9.806,4.428,20.5,10.229,27.457,18.438" transform="translate(-34.137 -258.662)" fill="none" stroke="#00ad9f" stroke-linecap="round" stroke-linejoin="round" stroke-width="1"/></g><g transform="translate(12.964 43.918)"><path d="M78.94,278.449s-14.615-11.845-17.7-24.561a24.333,24.333,0,0,1,7.608,8.323c1.737,2.962,6.022,7.576,8.936,10.576C78.133,274.379,78.515,276.245,78.94,278.449Z" transform="translate(-57.535 -218.295)" fill="#5275a0" opacity="0.2"/><path d="M83.83,196.6a98.674,98.674,0,0,1-5.068,11.934c-.977,2.035-4.942,6.744-7.068,7.64a110.006,110.006,0,0,0-.349-16.875c-.592-5.164,1.266-9.078-.759-13.868-.258-.613-.527-1.225-.795-1.838.187.061.37.127.547.2,3.332,1.428,4.871,4.952,5.154,8.374a39.06,39.06,0,0,1-.653,8.466,11.183,11.183,0,0,0-.04,3.894.119.119,0,0,1,.01.04,1.458,1.458,0,0,0,2.845-.106l.886-4.7a6.208,6.208,0,0,1,1.706-3.863,2.437,2.437,0,0,1,1.64-.613A2.247,2.247,0,0,1,83.83,196.6Z" transform="translate(-61.754 -183.59)" fill="#5275a0" opacity="0.2"/><path d="M75.325,242.767c-2.308-12.054-3.522-13.912-2.507-16.934,1.294-3.851.567-7.723,1.787-11.6s2.051-8.042,1.066-11.983c-.311-1.247-.942-2.6-2.439-2.657a2.435,2.435,0,0,0-1.642.611,6.218,6.218,0,0,0-1.709,3.863l-.881,4.7a1.459,1.459,0,0,1-2.847.1l-.009-.038a11.123,11.123,0,0,1,.037-3.892,39.39,39.39,0,0,0,.656-8.47c-.284-3.422-1.824-6.947-5.157-8.371a5.888,5.888,0,0,0-3.76-.3c-3.479.893-4.38,4.293-3.87,7.2a24.279,24.279,0,0,0,2.185,5.807c2.117,4.6.564,8.824.857,13.883C57.9,228.652,75.325,242.767,75.325,242.767Z" transform="translate(-53.919 -185.584)" fill="#7ee8d4"/><path d="M65.538,195.188c1.717,8.577,3.452,17.216,6.785,25.3.977,2.373,1.455,5.493,7.11,11.946" transform="translate(-59.655 -189.316)" fill="none" stroke="#00ad9f" stroke-linecap="round" stroke-linejoin="round" stroke-width="1"/></g><g transform="translate(49.931 14.605)"><path d="M162.8,163.078c-1.777-2.03-3.418-4.1-5.144-6.086-1.119-1.291-2.273-2.552-3.529-3.747-.623-.6-1.266-1.175-1.944-1.737a54.592,54.592,0,0,0-13.27-8.106c-2.886-1.235-5.934-2.253-8.384-4.223s-4.212-5.195-3.4-8.228a7.233,7.233,0,0,1,4.582-4.668,12.188,12.188,0,0,1,6.7-.238c6.177,1.332,11.336,5.772,14.845,11.022.061.091.127.187.187.284a58.25,58.25,0,0,1,5.934,12.734c.5,1.428.977,2.866,1.448,4.3C161.537,156.526,163.714,160.956,162.8,163.078Z" transform="translate(-126.932 -125.694)" fill="#5193f4"/><path d="M141.973,136.573c6.738,1.285,11.509,5.747,16.507,10.446A36.593,36.593,0,0,1,168.8,164.507" transform="translate(-134.358 -131.065)" fill="none" stroke="#0b43a4" stroke-linecap="round" stroke-linejoin="round" stroke-width="1"/></g><g transform="translate(75.789 14.052)"><path d="M182.873,168.36a7.972,7.972,0,0,0,.1,2.106c-1.686-.385-2.856-3-3.625-5.853a44,44,0,0,1-1.246-7.149,30.93,30.93,0,0,1,.562-8.744,58.248,58.248,0,0,1,5.934,12.734q-.805,2.392-1.377,4.84A14.068,14.068,0,0,0,182.873,168.36Z" transform="translate(-178.005 -136.509)" fill="#5275a0" opacity="0.2"/><path d="M195.966,132.125c-.57,2.527-2.1,4.71-3.441,6.925-.71,1.167-1.371,2.366-1.989,3.581a54.452,54.452,0,0,0-4.484,12.265,9.955,9.955,0,0,0-.248,4.173c-3.322-.758-4.645-10.2-4.871-13.007a30.6,30.6,0,0,1,2.543-14.862,12.759,12.759,0,0,1,3.887-5.328,5.882,5.882,0,0,1,6.264-.624,5.106,5.106,0,0,1,2.247,3.108A7.716,7.716,0,0,1,195.966,132.125Z" transform="translate(-179.403 -124.602)" fill="#52d2bc"/><path d="M187.15,159.614c-2.066-5.188-.811-16.17,2.5-23.072a11.7,11.7,0,0,1,4.412-5.191" transform="translate(-182.023 -127.934)" fill="none" stroke="#00ad9f" stroke-linecap="round" stroke-linejoin="round" stroke-width="1"/></g><g transform="translate(85.18 17.654)"><path d="M203.724,135.785c-.57,2.527-2.1,4.71-3.441,6.925-.71,1.167-1.371,2.366-1.989,3.581a12.072,12.072,0,0,1-1.7-4.979,8.059,8.059,0,0,1,7.038-9.3A7.716,7.716,0,0,1,203.724,135.785Z" transform="translate(-196.552 -131.865)" fill="#5275a0" opacity="0.2"/><path d="M224.46,157.613a10.712,10.712,0,0,1-.86,2.8c-1.473,3.189-4.565,5.925-9.2,8.152,0,0-.258-5.044-.312-6.393-.226-5.78-6.5-8.979-10.469-13.195a13.586,13.586,0,0,1-3.839-7.807,8.7,8.7,0,0,1,3.237-7.823,10.7,10.7,0,0,1,7.1-1.576,14.852,14.852,0,0,1,10.469,5.092,4.594,4.594,0,0,1,.29.366,18.943,18.943,0,0,1,2.866,7.1A34.922,34.922,0,0,1,224.46,157.613Z" transform="translate(-198.125 -131.717)" fill="#00ad9f"/><path d="M209.581,141.05c4.343,2.246,8.693,4.962,11.222,9.145,3.528,5.837,2.759,13.432.038,19.685" transform="translate(-202.984 -136.325)" fill="none" stroke="#00ad9f" stroke-linecap="round" stroke-linejoin="round" stroke-width="1"/></g><g transform="translate(182.691 38.186)"><path d="M390.622,214.923c2.768-4.557,1.354-10.418,2.318-15.662a17.305,17.305,0,0,1,6.193-10.318c2.014-1.6,4.843-2.743,7.119-1.544.493.26,1.079.625,1.554.333a1.242,1.242,0,0,0,.464-.852c.577-2.832-.785-5.926.328-8.594a7.739,7.739,0,0,1,3.151-3.346,17.184,17.184,0,0,1,8.489-2.664,4.767,4.767,0,0,1,2.337.355,3.618,3.618,0,0,1,1.7,3.676,8.159,8.159,0,0,1-1.835,3.851c-2.908,3.8-7.167,7.081-7.728,11.833a3.085,3.085,0,0,0,.2,1.773c.267.519.762.89,1.041,1.4.9,1.645-.834,3.511-2.524,4.32a14.564,14.564,0,0,1-4.92,1.361c-1.172.109-2.5.138-3.3,1-1.472,1.6.219,4.155-.09,6.307a6.209,6.209,0,0,1-2.144,3.367,38.5,38.5,0,0,1-5.923,4.671A38.7,38.7,0,0,0,392,219.633a7.818,7.818,0,0,0-2.856,5.237" transform="translate(-389.144 -172.268)" fill="#52d2bc"/><path d="M399.268,214.24a25.48,25.48,0,0,1,2.5-6.263,37.62,37.62,0,0,1,5.611-8.913c1.823-1.958,4.046-3.507,5.9-5.436A20.221,20.221,0,0,0,416.609,189a16,16,0,0,1,1.541-2.684,22.537,22.537,0,0,1,2.734-2.459,11.717,11.717,0,0,0,2.9-4" transform="translate(-394.142 -176.018)" fill="none" stroke="#00ad9f" stroke-linecap="round" stroke-linejoin="round" stroke-width="1"/></g><g transform="translate(180.922 69.97)"><path d="M428.646,249.077a16.913,16.913,0,0,1-3.139,6.678,14.246,14.246,0,0,1-3.959,3.195,22.267,22.267,0,0,1-2.395,1.17,28.751,28.751,0,0,1-10.01,2.218c-5,.187-10.146-.916-14.946.511a14.726,14.726,0,0,0-5.9,3.418,14.35,14.35,0,0,0-2.648,3.347l.653-4.152c1.21-4.466,2.445-9.012,4.916-12.926a34.009,34.009,0,0,1,5.868-6.774,48.949,48.949,0,0,1,11.731-8.2c3.483-1.691,7.352-2.881,11.2-2.41s7.62,2.9,8.82,6.577A13.176,13.176,0,0,1,428.646,249.077Z" transform="translate(-385.65 -235.045)" fill="#5193f4"/><path d="M393.4,268.343a30.362,30.362,0,0,1,15.408-11.7c3.88-1.3,7.984-1.788,11.914-2.922s7.851-3.06,10.155-6.44" transform="translate(-389.477 -241.088)" fill="none" stroke="#0b43a4" stroke-linecap="round" stroke-linejoin="round" stroke-width="1"/></g><g transform="translate(185.986 112.755)"><path d="M396.933,343.9c.219-5.584,3.105-10.739,6.611-15.091,2.924-3.63,6.452-6.952,10.81-8.605a7.309,7.309,0,0,1,4.281-.517,3.44,3.44,0,0,1,2.729,3.021,4.674,4.674,0,0,1-1.675,3.179c-2.865,2.869-6.567,4.71-10.038,6.807-5.965,3.6-11.633,8.416-14,14.972" transform="translate(-395.651 -319.547)" fill="#52d2bc"/><path d="M402.543,342.1c3.645-8.131,13.081-15.4,19.3-16.309" transform="translate(-399.054 -322.628)" fill="none" stroke="#00ad9f" stroke-linecap="round" stroke-linejoin="round" stroke-width="1"/></g><g transform="translate(184.989 129.266)"><path d="M393.682,364.44c-.05-.936,3-3.382,3.69-4.006a35.35,35.35,0,0,1,13.124-7.5,11.26,11.26,0,0,1,5.93-.582,4.98,4.98,0,0,1,3.9,4.144,5.5,5.5,0,0,1-2.91,4.989,10.255,10.255,0,0,1-5.7,1.016c-2.989-.174-5.923-.917-8.924-.894S395.587,361.934,393.682,364.44Z" transform="translate(-393.682 -352.158)" fill="#00ad9f"/><path d="M399.822,366.085c6.133-3.322,15.4-5.485,22.136-4.67" transform="translate(-396.713 -356.643)" fill="none" stroke="#00ad9f" stroke-linecap="round" stroke-linejoin="round" stroke-width="1"/></g><g transform="translate(106.137 4.674)"><path d="M243.322,162.626a10.713,10.713,0,0,1-.86,2.8,48.69,48.69,0,0,1-4.5-17.83,9.854,9.854,0,0,1,1.484-5.721,4.582,4.582,0,0,1,.29.366,18.944,18.944,0,0,1,2.866,7.1A34.923,34.923,0,0,1,243.322,162.626Z" transform="translate(-237.944 -123.749)" fill="#5275a0" opacity="0.2"/><path d="M266.894,144.7c4.579-1.626,9.334-2.923,13.5-5.43a11.783,11.783,0,0,0,3.365-2.806,5.653,5.653,0,0,0,1.243-4.11c-.2-1.48-1.15-2.9-.831-4.358a7.847,7.847,0,0,1,1.484-2.53,8.069,8.069,0,0,0,1.035-6.722c-.717-2.413-2.525-4.343-3.554-6.639a11.082,11.082,0,0,1-.857-6.026c-3.841.051-7.347,2.149-11.124,2.85-2.889.536-5.894.245-8.758.9a13.821,13.821,0,0,0-10.3,11.092,7.61,7.61,0,0,0-6.712,2.249,9.878,9.878,0,0,0-2.635,7.219c1.18,18.951,12.03,28.836,12.03,28.836S265.149,145.32,266.894,144.7Z" transform="translate(-240.307 -106.079)" fill="#7ee8d4"/><g transform="translate(10.503 4.532)"><path d="M270.148,148.987c-.476-4.675,1.157-9.3,3.034-13.6a54.21,54.21,0,0,1,6.758-11.919,26.718,26.718,0,0,1,10.652-8.433" transform="translate(-264.304 -115.031)" fill="none" stroke="#00ad9f" stroke-linecap="round" stroke-linejoin="round" stroke-width="1"/><path d="M278.068,120.694a37.689,37.689,0,0,0,.941,13.241" transform="translate(-268.15 -117.827)" fill="none" stroke="#00ad9f" stroke-linecap="round" stroke-linejoin="round" stroke-width="1"/><path d="M281.676,139.394A32.67,32.67,0,0,1,299.4,134.81" transform="translate(-270.037 -124.778)" fill="none" stroke="#00ad9f" stroke-linecap="round" stroke-linejoin="round" stroke-width="1"/><path d="M258.688,145.438c5.73,2.417,5.966,10.842,6.119,13.236" transform="translate(-258.688 -130.043)" fill="none" stroke="#00ad9f" stroke-linecap="round" stroke-linejoin="round" stroke-width="1"/><path d="M273.858,157.68a19.827,19.827,0,0,1,15.383-2.917" transform="translate(-266.177 -134.407)" fill="none" stroke="#00ad9f" stroke-linecap="round" stroke-linejoin="round" stroke-width="1"/><path d="M295.98,116.421a6.92,6.92,0,0,0-1.514,4.9" transform="translate(-276.338 -115.717)" fill="none" stroke="#00ad9f" stroke-linecap="round" stroke-linejoin="round" stroke-width="1"/><path d="M296.958,122.809a10.976,10.976,0,0,1,7.614-.548" transform="translate(-277.582 -118.394)" fill="none" stroke="#00ad9f" stroke-linecap="round" stroke-linejoin="round" stroke-width="1"/></g></g><g transform="translate(15.328)"><path d="M74.1,135.046c.539-.028,4.212-2.749,5.627-3.666a3.869,3.869,0,0,0,1.08-.913,1.363,1.363,0,0,0,.206-1.34,1.691,1.691,0,0,0-1.719-1.061,3.9,3.9,0,0,0-3.355,1.525C72.994,132.634,74.1,135.046,74.1,135.046Z" transform="translate(-66.146 -112.26)" fill="#4a49ca"/><path d="M104.263,161.218a9.651,9.651,0,0,0,5.047,1.213,1.89,1.89,0,0,0,1.635-1.035,1.512,1.512,0,0,0-.508-1.562,3.61,3.61,0,0,0-1.573-.709,15.806,15.806,0,0,0-7.225.367A18.569,18.569,0,0,0,104.263,161.218Z" transform="translate(-79.842 -127.459)" fill="#4a49ca"/><path d="M126.161,113.563c-.713-.45-1.5-1.053-1.5-1.9a1.686,1.686,0,0,1,1.729-1.495,3.542,3.542,0,0,1,2.267,1.015,6.19,6.19,0,0,1,2.356,5.056S126.955,114.065,126.161,113.563Z" transform="translate(-91.207 -103.426)" fill="#4a49ca"/><path d="M130.006,99.78a3.46,3.46,0,0,1-1.639-1.167,1.116,1.116,0,0,1-.17-.946c.185-.524.512-.994,1.832-.754,4.177.757,5.087,3.618,5.087,3.618A27.854,27.854,0,0,1,130.006,99.78Z" transform="translate(-92.931 -96.848)" fill="#4a49ca"/><path d="M155.985,109.242a6.6,6.6,0,0,0,4.462-2.287,4.085,4.085,0,0,0,.9-1.66,1.816,1.816,0,0,0-.49-1.747,1.848,1.848,0,0,0-2.163,0,4.349,4.349,0,0,0-1.4,1.82C156.846,106.3,155.985,109.242,155.985,109.242Z" transform="translate(-106.672 -99.983)" fill="#4a49ca"/><path d="M77.985,169.4,65.814,158.669a24.573,24.573,0,0,1-5.739-6.4c-2.944-5.452-1.247-12.536,2.729-17.288s9.8-7.558,15.649-9.6S90.391,121.9,95.967,119.2c3.5-1.694,7.013-4.218,7.972-7.983A7.965,7.965,0,0,0,96.7,101.3" transform="translate(-58.589 -99.046)" fill="none" stroke="#0b43a4" stroke-linecap="round" stroke-linejoin="round" stroke-width="1"/><path d="M154.371,107.454c-1.108,3.4-5.426,5.475-7.4,8.423" transform="translate(-102.224 -102.084)" fill="none" stroke="#0b43a4" stroke-linecap="round" stroke-linejoin="round" stroke-width="1"/><path d="M130.964,115.187a32.373,32.373,0,0,1,2.611,2.629,5.719,5.719,0,0,1-.621,7.594" transform="translate(-94.32 -105.902)" fill="none" stroke="#0b43a4" stroke-linecap="round" stroke-linejoin="round" stroke-width="1"/><path d="M87.817,152.824a23.158,23.158,0,0,0,12.8,4.771" transform="translate(-73.018 -124.483)" fill="none" stroke="#0b43a4" stroke-linecap="round" stroke-linejoin="round" stroke-width="1"/><path d="M71.04,149.321a12.632,12.632,0,0,1,4.246-13.768" transform="translate(-64.435 -115.956)" fill="none" stroke="#0b43a4" stroke-linecap="round" stroke-linejoin="round" stroke-width="1"/></g><g transform="translate(152.28 9.913)"><path d="M329.929,120.053a1.789,1.789,0,0,1,.26-1.79,1.319,1.319,0,0,1,1.4-.314c3.559,1.565,3.174,7.117,3.174,7.117S331.391,124.579,329.929,120.053Z" transform="translate(-329.44 -117.135)" fill="#4a49ca"/><path d="M329.483,141.469c-2.3,4.161,5.881,3.843,8.832,1.393C338.315,142.862,331.465,137.887,329.483,141.469Z" transform="translate(-329.08 -128.15)" fill="#4a49ca"/><path d="M349.805,119.661a2.2,2.2,0,0,1-.148-2.619,2.022,2.022,0,0,1,1.924-.572,4.506,4.506,0,0,1,2.162,1.318,7.027,7.027,0,0,1,1.428,6.629S350.715,120.908,349.805,119.661Z" transform="translate(-339.056 -116.427)" fill="#4a49ca"/><path d="M414.388,140.963a1.837,1.837,0,0,1,.352-1.893,1.608,1.608,0,0,1,1.2-.358,3.644,3.644,0,0,1,1.224.366,3.909,3.909,0,0,1,1.885,1.873,7.63,7.63,0,0,1,.324,4.665S414.884,142.578,414.388,140.963Z" transform="translate(-371.142 -127.426)" fill="#4a49ca"/><path d="M387.508,157a5.256,5.256,0,0,0-5.426-.873,2.782,2.782,0,0,0-1.161.871,2.663,2.663,0,0,0,.251,3.077,6.777,6.777,0,0,0,2.692,1.864c1.821.827,4.647.992,6.586,1.487A9.34,9.34,0,0,0,387.508,157Z" transform="translate(-354.484 -135.83)" fill="#4a49ca"/><path d="M335.084,123.954c1.2,3.941,4.611,6.914,8.4,8.523s7.972,2.033,12.084,2.3,8.273.4,12.249,1.478c3.876,1.052,7.735,3.243,9.4,6.9,2.024,4.448.232,9.768-2.61,13.744s-6.669,7.181-9.418,11.222c-1.263,1.855-2.317,4.028-2.062,6.257.34,2.972,2.844,5.161,5.172,7.041" transform="translate(-332.044 -120.143)" fill="none" stroke="#0b43a4" stroke-linecap="round" stroke-linejoin="round" stroke-width="1"/><path d="M353.8,121.1a23.585,23.585,0,0,1,5.433,11.758" transform="translate(-341.286 -118.734)" fill="none" stroke="#0b43a4" stroke-linecap="round" stroke-linejoin="round" stroke-width="1"/><path d="M335.707,142.949a18.852,18.852,0,0,0,4.749.834,7.254,7.254,0,0,0,4.638-2.009" transform="translate(-332.352 -128.941)" fill="none" stroke="#0b43a4" stroke-linecap="round" stroke-linejoin="round" stroke-width="1"/><path d="M419.761,143.647a8.043,8.043,0,0,1,2.423,5.423,9.473,9.473,0,0,1-2.4,6" transform="translate(-373.848 -129.865)" fill="none" stroke="#0b43a4" stroke-linecap="round" stroke-linejoin="round" stroke-width="1"/><path d="M389.6,161.823a81.134,81.134,0,0,0,8.695,7.134c1.479,1.04,4.417,2.374,5.721,2.031" transform="translate(-358.956 -138.839)" fill="none" stroke="#0b43a4" stroke-linecap="round" stroke-linejoin="round" stroke-width="1"/></g><g transform="translate(183.053 89.823)"><path d="M423.627,278.308a22.253,22.253,0,0,1-2.395,1.17,28.751,28.751,0,0,1-10.01,2.218c-5,.187-10.146-.916-14.946.511a14.726,14.726,0,0,0-5.9,3.418c-.167.081-.334.172-.5.268-.4-3.387,8.045-7.8,10.612-8.952a30.6,30.6,0,0,1,14.86-2.592,12.809,12.809,0,0,1,6.319,1.873A6.761,6.761,0,0,1,423.627,278.308Z" transform="translate(-389.861 -274.256)" fill="#5275a0" opacity="0.2"/><path d="M415.347,278.348a12.815,12.815,0,0,1,6.32,1.873,5.889,5.889,0,0,1,2.692,5.7c-.5,2.542-3.125,4.2-5.7,4.508s-5.14-.395-7.676-.917a54.731,54.731,0,0,0-17.1-.782,9.914,9.914,0,0,0-4.012,1.168c-.4-3.389,8.049-7.8,10.616-8.953A30.6,30.6,0,0,1,415.347,278.348Z" transform="translate(-389.859 -276.23)" fill="#52d2bc"/><path d="M394.228,291.626c4.194-3.686,14.96-6.189,22.574-5.383a11.7,11.7,0,0,1,6.37,2.415" transform="translate(-392.016 -280.099)" fill="none" stroke="#00ad9f" stroke-linecap="round" stroke-linejoin="round" stroke-width="1"/></g></g><path d="M378.754,215.141l40.953-.085a8.7,8.7,0,0,1,8.72,8.684h0a8.7,8.7,0,0,1-8.684,8.72l-28.013.058" transform="translate(-201.323 -147.436)" fill="none" stroke="#0b43a4" stroke-linecap="round" stroke-linejoin="round" stroke-width="1" stroke-dasharray="4"/><path d="M101.3,274.613l-28.64.059a4.912,4.912,0,0,0-4.9,4.922h0a4.912,4.912,0,0,0,4.922,4.9l8.351-.017" transform="translate(-47.79 -176.839)" fill="none" stroke="#0b43a4" stroke-linecap="round" stroke-linejoin="round" stroke-width="1" stroke-dasharray="4"/><g transform="translate(0.653 111.163)"><path d="M36.753,311.751c-9.811.02-10.016,14.655,2.468,14.629L223.2,326c7.723-.016,8.538-12.065-1.009-12.045-19,.039-19.631-9.022-9.082-9.044" transform="translate(-29.604 -302.959)" fill="none" stroke="#c8dbfb" stroke-linecap="round" stroke-linejoin="round" stroke-width="1" stroke-dasharray="4"/><path d="M43.563,315.648a2.425,2.425,0,1,1-2.8-1.983A2.425,2.425,0,0,1,43.563,315.648Z" transform="translate(-34.118 -307.264)" fill="#5193f4"/><path d="M396.646,303.073a2.425,2.425,0,1,1-2.8-1.982A2.424,2.424,0,0,1,396.646,303.073Z" transform="translate(-208.432 -301.056)" fill="#0b43a4"/></g><g transform="translate(32.285 26.648)"><path d="M254.212,283.026l-152.343.315a3.68,3.68,0,0,1-3.687-3.673l-.209-100.924a3.681,3.681,0,0,1,3.673-3.688l152.343-.314a3.68,3.68,0,0,1,3.687,3.673l.209,100.924A3.68,3.68,0,0,1,254.212,283.026Z" transform="translate(-94.99 -154.182)" fill="#5275a0" opacity="0.2"/><g transform="translate(0 18.632)"><path d="M248.32,279.218l-152.343.314a3.68,3.68,0,0,1-3.687-3.673l-.209-100.924a3.681,3.681,0,0,1,3.673-3.688l152.343-.314a3.68,3.68,0,0,1,3.687,3.673l.209,100.924A3.681,3.681,0,0,1,248.32,279.218Z" transform="translate(-92.081 -170.933)" fill="#fff"/><path d="M247.926,170.936l-151.691.313a4.006,4.006,0,0,0-4,4.015l.007,3.483,159.7-.33-.007-3.483A4.006,4.006,0,0,0,247.926,170.936Z" transform="translate(-92.158 -170.934)" fill="#0056ec"/><path d="M96.384,287.1l22.92-.048-.208-100.8-26.926.056.2,96.794A4,4,0,0,0,96.384,287.1Z" transform="translate(-92.125 -178.496)" fill="#c8dbfb"/><g transform="translate(-92.118 -170.934)" fill="none" stroke-linecap="round" stroke-linejoin="round"><path d="M248.394,279.219l-152.343.314a3.68,3.68,0,0,1-3.688-3.673l-.208-100.924a3.68,3.68,0,0,1,3.672-3.687l152.343-.314a3.68,3.68,0,0,1,3.688,3.672l.208,100.924A3.68,3.68,0,0,1,248.394,279.219Z" stroke="none"/><path d="M 96.04692077636719 277.5338745117188 L 248.3900451660156 277.2194519042969 C 248.8387451171875 277.2185668945313 249.2602386474609 277.0429382324219 249.5768737792969 276.7249755859375 C 249.8935089111328 276.4070434570313 250.0673370361328 275.9847717285156 250.0663146972656 275.5356140136719 L 249.8582153320313 174.6112518310547 C 249.8563690185547 173.6869659423828 249.1029357910156 172.9349822998047 248.1786956787109 172.9349822998047 L 248.1743927001953 172.9349822998047 L 95.83124542236328 173.2494049072266 C 95.38254547119141 173.2502899169922 94.96104431152344 173.4259033203125 94.64439392089844 173.7438507080078 C 94.32778930664063 174.0617523193359 94.15398406982422 174.4838562011719 94.15498352050781 174.9327239990234 L 94.36309051513672 275.8571166992188 C 94.36493682861328 276.7816772460938 95.11881256103516 277.5338745117188 96.04360961914063 277.5338745117188 L 96.04692077636719 277.5338745117188 M 96.04360198974609 279.5338745117188 C 94.01419067382813 279.5338745117188 92.36712646484375 277.8914489746094 92.36309051513672 275.861083984375 L 92.15498352050781 174.9368591308594 C 92.15043640136719 172.9045257568359 93.79493713378906 171.2534637451172 95.82723999023438 171.2494049072266 L 248.1702728271484 170.9349822998047 C 248.1729888916016 170.9349822998047 248.1759796142578 170.9349822998047 248.1787109375 170.9349822998047 C 250.2077789306641 170.9349822998047 251.8541564941406 172.57763671875 251.8582153320313 174.6072540283203 L 252.0663146972656 275.531494140625 C 252.0708923339844 277.5643310546875 250.4263763427734 279.2153625488281 248.3940734863281 279.2194519042969 L 96.05104827880859 279.5338745117188 C 96.04856872558594 279.5338745117188 96.04608917236328 279.5338745117188 96.04360198974609 279.5338745117188 Z" stroke="none" fill="#0056ec"/></g><path d="M1.5,0H18.987a1.5,1.5,0,0,1,1.5,1.5v0a1.5,1.5,0,0,1-1.5,1.5H1.5A1.5,1.5,0,0,1,0,1.5v0A1.5,1.5,0,0,1,1.5,0Z" transform="translate(4.233 97.937) rotate(-0.118)" fill="#fff"/><rect width="20.209" height="20.209" rx="5.106" transform="translate(3.524 12.341) rotate(-0.118)" fill="#fff"/><path d="M1.957,0H54.121a1.957,1.957,0,0,1,1.957,1.957v0a1.957,1.957,0,0,1-1.957,1.957H1.957A1.957,1.957,0,0,1,0,1.957v0A1.957,1.957,0,0,1,1.957,0Z" transform="matrix(1, -0.002, 0.002, 1, 31.324, 73.758)" fill="#c8dbfb"/><rect width="45.089" height="3.914" rx="1.957" transform="translate(39.285 14.042) rotate(-0.118)" fill="#c8dbfb"/><rect width="58.888" height="3.914" rx="1.957" transform="matrix(1, -0.002, 0.002, 1, 90.935, 55.943)" fill="#c8dbfb"/><rect width="56.078" height="3.914" rx="1.957" transform="translate(31.34 81.85) rotate(-0.118)" fill="#c8dbfb"/><rect width="56.078" height="3.914" rx="1.957" transform="translate(31.357 89.943) rotate(-0.118)" fill="#c8dbfb"/><rect width="58.888" height="28.765" rx="6.012" transform="translate(90.965 70.373) rotate(-0.118)" fill="#c8dbfb"/><path d="M107.021,177.545a1.291,1.291,0,1,1-1.293-1.288A1.29,1.29,0,0,1,107.021,177.545Z" transform="translate(-98.183 -173.561)" fill="#c8dbfb"/><circle cx="1.291" cy="1.291" r="1.291" transform="translate(11.721 2.684)" fill="#c8dbfb"/><path d="M128.6,177.5a1.291,1.291,0,1,1-1.293-1.288A1.291,1.291,0,0,1,128.6,177.5Z" transform="translate(-108.837 -173.539)" fill="#c8dbfb"/><circle cx="3.732" cy="3.732" r="3.732" transform="translate(29.465 19.352) rotate(-84.28)" fill="#c8dbfb"/><path d="M.738,0H17.182a.738.738,0,0,1,.738.738v0a.739.739,0,0,1-.739.739H.739A.739.739,0,0,1,0,.738v0A.738.738,0,0,1,.738,0Z" transform="translate(5.009 34.226) rotate(-0.118)" fill="#fff"/><path d="M.739,0H17.182a.739.739,0,0,1,.739.739v0a.738.738,0,0,1-.738.738H.738A.738.738,0,0,1,0,.739v0A.739.739,0,0,1,.739,0Z" transform="matrix(1, -0.002, 0.002, 1, 5.016, 37.382)" fill="#fff"/><path d="M162.348,239.556l-4.675.047.034,19.584-4.033.008a2.577,2.577,0,0,1-2.583-2.572l-.075-36.214a2.605,2.605,0,0,1,2.6-2.61l8.681-.022Z" transform="translate(-121.177 -194.059)" fill="#c8dbfb"/><g transform="translate(29.835 23.745) rotate(-0.118)" fill="none" stroke="#c8dbfb" stroke-linecap="round" stroke-linejoin="round" stroke-width="1"><rect width="44.697" height="41.396" rx="6.012" stroke="none"/><rect x="0.5" y="0.5" width="43.697" height="40.396" rx="5.512" fill="none"/></g></g><rect width="58.888" height="32.368" rx="6.012" transform="translate(88.632 27.47) rotate(12.735)" fill="#c8dbfb"/><g transform="translate(25.894 131.883)"><path d="M155.017,403.8l-7.206.015-1.763-9.181,10.7-.022Z" transform="translate(-144.617 -394.613)" fill="#0056ec"/><path d="M149.97,394.636c0,.749-.141,2.007.358,2.025s.292-1.194.861-1.161c.363.021-.169,3.989,1.2,4.084.943.065.771-1.946.868-3.205a.589.589,0,0,1,1.166-.121c.01.63-.03,1.053,0,1.77.051,1.2,1.893.88,1.827-.721s0-2.684,0-2.684Z" transform="translate(-146.546 -394.618)" fill="#c8dbfb"/><g transform="translate(0 0.083)"><path d="M144.923,400.258a1.926,1.926,0,0,1-.426-.044,1.5,1.5,0,0,1-1.107-.83c-.735-1.557,1.2-4.476,1.275-4.606l.1.526c-.017.03-1.7,2.539-1.038,3.938a1.144,1.144,0,0,0,.854.632,1.66,1.66,0,0,0,.362.037c2.6,0,7.032-4.842,7.081-4.9.181-.218.52-.013.4.171C152.221,395.417,147.713,400.252,144.923,400.258Z" transform="translate(-143.224 -394.778)" fill="#0c2340"/></g></g><g transform="translate(82.939 0.313)"><path d="M276.273,157.61c-10.242-.392-24.342,7.183-19.34,25.7-.108,1.566.829,2.683,1.826,2.378s.118-3.274.118-3.274c1.705-13.77,4.895-16.152,10.31-16.1l12.7-.026c3.14.463,8.847,2.659,9.7,13.681l3.162.584C295,172.591,293.075,158.252,276.273,157.61Z" transform="translate(-255.892 -146.03)" fill="#5275a0" opacity="0.2"/><path d="M276.273,154.424c-10.242-.392-24.342,7.182-19.34,25.7l1.945-.9c1.705-13.77,4.895-16.152,10.31-16.1l12.7-.026c3.14.463,9,3.249,9.855,14.271l3.01-.006C295,169.405,293.075,155.066,276.273,154.424Z" transform="translate(-255.892 -144.457)" fill="#ef832b"/><path d="M290.526,155.033l-1.521,3.344a2.008,2.008,0,0,0,2.029,1.844c1.848-.04,2.095-.893,2.095-.893l.241-3.839Z" transform="translate(-272.239 -144.765)" fill="#ffb9a3"/><path d="M297.842,144.529c-1.734,3.066-2.5,4.02-4.77,4.48-2.936.6-6.229-1.383-4.7-6.265,1.248-3.98,3.137-3.367,4.988-3.217S299.715,141.216,297.842,144.529Z" transform="translate(-271.736 -137.049)" fill="#ffb9a3"/><path d="M290.512,139.813a1.243,1.243,0,0,0-1.412.341,1.546,1.546,0,0,0-.389,1.478,1.345,1.345,0,0,0-1.265,1.413c-.485-1.131-.223-2.308-.318-3.466a4.5,4.5,0,0,1,.781-3.3,3.768,3.768,0,0,1,1.125-.867,5.817,5.817,0,0,1,5.224-.074,3.169,3.169,0,0,0,2.35.412c2.237-.541,3.546.972,2.2,2.389a1.784,1.784,0,0,1,1.1.764.344.344,0,0,1,.009.336.389.389,0,0,1-.205.127,2.438,2.438,0,0,1-1.177.094c.151.128.981.178,1.231.661.667,1.285-1.976.636-2.378.507.46.086,1.666,1.049,1.28,1.71-.076.13-1.706,1.08-3.419-.91a3.124,3.124,0,0,0-1.486-1.047,2.338,2.338,0,0,0-1.4.216c-.327.123-1.162.631-1.4.329C290.707,140.591,291.046,140.079,290.512,139.813Z" transform="translate(-271.299 -134.752)" fill="#0c2340"/><path d="M326.748,199.681c-.454,1.562-.913,1.717-.363,1.967s1-.627,1-.627l2.541.505s-.573-1.651-.973-1.85A7.946,7.946,0,0,0,326.748,199.681Z" transform="translate(-290.57 -166.762)" fill="#ffb9a3"/><path d="M259.893,203.433c.332.824.423.83.886,1.821.884,1.894-1.186,4.888-2.471,1.619a9.146,9.146,0,0,1-.359-2.544Z" transform="translate(-256.907 -168.659)" fill="#ffb9a3"/></g><g transform="translate(98.264)"><path d="M300.848,135.707c1.736.094,3.874-1.131,5.234.443.125.145.378-.047.267-.206-1.3-1.866-3.715-.478-5.5-.525-.186-.005-.184.278,0,.289Z" transform="translate(-293.343 -134.545)" fill="#0c2340"/><path d="M296.369,134.339c-1.187.206-2.332-.352-3.52-.166a5.173,5.173,0,0,0-2.559,1.281c-.187.163.058.481.266.345a5.143,5.143,0,0,1,3.281-1.162,6.818,6.818,0,0,0,2.633.067.19.19,0,0,0-.1-.366Z" transform="translate(-288.165 -134.134)" fill="#0c2340"/><path d="M287.609,137.719a2.783,2.783,0,0,0-1.416,2.214c-.071.717-.093,2.366.632,2.772a.177.177,0,0,0,.213-.276,3.8,3.8,0,0,1-.472-2.341,2.747,2.747,0,0,1,1.163-2.163c.118-.089.013-.288-.12-.2Z" transform="translate(-286.16 -135.894)" fill="#0c2340"/><path d="M312.007,142.306a1.927,1.927,0,0,0-2.375-.931.151.151,0,0,0,.076.28,3.687,3.687,0,0,1,1.07.07,1.865,1.865,0,0,1,1,.714c.1.137.315.017.229-.134Z" transform="translate(-297.712 -137.63)" fill="#0c2340"/></g><g transform="translate(31.342 63.056)"><path d="M203.116,295.917c5.369,1.973,10.033,8.134,8.963,12.611a12.15,12.15,0,0,1-4.7,7.239l-1.1-2.031s2.789-4.361,2.547-6.421c-.388-3.3-4.553-5.5-4.553-5.5Z" transform="translate(-178.24 -277.061)" fill="#0b43a4"/><path d="M172.985,408.635a23.1,23.1,0,0,0-4.122,2.083l6.532-.013,0-2.076Z" transform="translate(-161.33 -332.706)" fill="#0c2340"/><path d="M202.249,408.389a5.293,5.293,0,0,1,1.108,2.172l-4.457.009a5.22,5.22,0,0,1,.831-2.176Z" transform="translate(-176.159 -332.587)" fill="#0c2340"/><path d="M200.674,372.318l-3.043.005c.061-3.585-.678-15.8-1.392-24.936-.42-5.357-.835-9.66-1.078-10.531l1.63-.36,6.152-1.367C204,339.94,201.565,362.025,200.674,372.318Z" transform="translate(-174.312 -296.42)" fill="#047f76"/><path d="M180.08,337.91c-2.374,3.739-2.987,30.755-3.981,35.762l2.886.164a261.941,261.941,0,0,1,10.374-36.181Z" transform="translate(-164.902 -297.667)" fill="#009790"/><path d="M199.985,337.65c-1.392,3.782-2.643,7.483-3.747,10.982-.42-5.357-.835-9.66-1.078-10.531l1.63-.359Z" transform="translate(-174.312 -297.664)" fill="#5275a0" opacity="0.2"/><path d="M180.08,337.91c-2.374,3.739-2.987,30.755-3.981,35.762l2.886.164a261.941,261.941,0,0,1,10.374-36.181Z" transform="translate(-164.902 -297.667)" fill="#009790"/><path d="M187.187,277.491s-1.848,7.04,2.767,7.031l-.273,1.8,3.5.383-.757-2.507s.693-4.427.739-5.226C193.254,277.479,189.072,274.848,187.187,277.491Z" transform="translate(-170.196 -267.407)" fill="#ffb9a3"/><g transform="translate(0)"><rect width="1.36" height="5.746" transform="translate(4.219 2.194) rotate(-0.113)" fill="#0c2340"/><rect width="9.787" height="2.183" rx="1.092" transform="translate(0 0.019) rotate(-0.113)" fill="#0056ec"/></g><path d="M160.911,273.807c-.037-1.3-1.112-.962-.52-3.088.366-1.315,3.081.211,2.743,1.122s-.727,2.354-.727,2.354Z" transform="translate(-157.06 -264.367)" fill="#ffb9a3"/><path d="M176.382,285.8c-6.9.458-7.356,2.783-10.444,2.419-4.571-.539-3.771-9.027-3.206-12.071l-2.73.006s-4.921,19.337,10.622,15.762c-.6,3.387,3.268,8.919-.479,15.633,5.9,1.6,11.406,2,16.12-.032-.825-1.112,1.692-12.347-3.237-20.436C182.066,285.5,176.887,285.767,176.382,285.8Z" transform="translate(-156.59 -267.301)" fill="#0056ec"/><path d="M176.382,285.8c-6.9.458-7.356,2.783-10.444,2.419-4.571-.539-3.771-9.027-3.206-12.071l-2.73.006s-4.921,19.337,10.622,15.762c-.6,3.387,3.268,8.919-.479,15.633,5.9,1.6,11.406,2,16.12-.032-.825-1.112,1.692-12.347-3.237-20.436C182.066,285.5,176.887,285.767,176.382,285.8Z" transform="translate(-156.59 -267.301)" fill="#0056ec"/><path d="M188.967,277.209c.45.115.974.2,1.214.584a1.419,1.419,0,0,1,.13.845.707.707,0,0,1,.742-.483.688.688,0,0,1,.6.638,1.119,1.119,0,0,1-.1.427,5.115,5.115,0,0,1-.514.977c.565.208,1.036,1.857,1.318,2.369.948-.237,3.057-1.052,3.241-4.41a4.769,4.769,0,0,0-2.088-4.478,6.565,6.565,0,0,0-4.559-.4c-1.112.284-2.887,1.395-2.06,2.694A3.525,3.525,0,0,0,188.967,277.209Z" transform="translate(-170.126 -265.776)" fill="#ef832b"/><path d="M201.058,276.934a1.662,1.662,0,0,1,1.843.436,3.551,3.551,0,0,1,.371,1.468,1.143,1.143,0,0,0,.319.653,1.375,1.375,0,0,0,.852.263,19.4,19.4,0,0,1,2.227.07,2.046,2.046,0,0,1,1.69,1.222c.115.379.053.794.191,1.166.208.557.8.874,1.318,1.2a8.583,8.583,0,0,1,2.71,2.7,4.883,4.883,0,0,1,.811,2.237c.052.8.625,1.846.472,2.63a3.685,3.685,0,0,1-2.637,2.516c-2.837.913-3.736,1.309-6.453-.307-.328-.195-.969-.858-1.265-1.095a1.446,1.446,0,0,1-.461-.735,3.071,3.071,0,0,1,.443-2.331c.408-.709.956-1.337,1.371-2.042a2.558,2.558,0,0,0,.429-1.382.743.743,0,0,0-.187-.5.842.842,0,0,0-.439-.2,6.991,6.991,0,0,1-1.794-.261,1.266,1.266,0,0,1-.655-1.443c.106-.365.383-.673.462-1.045a1.423,1.423,0,0,0-.687-1.4,4,4,0,0,0-1.6-.527,1.846,1.846,0,0,1-.79-.252,1.058,1.058,0,0,1-.4-.878A2.466,2.466,0,0,1,201.058,276.934Z" transform="translate(-176.306 -267.639)" fill="#ef832b"/></g><path d="M201.915,282.449a1.7,1.7,0,0,1,1.524,1.668,4.538,4.538,0,0,1-.663,1.769,1.84,1.84,0,0,0-.075,1.815,1.751,1.751,0,0,0,1.491.574c.639-.01,1.4-.109,1.81.378a1.475,1.475,0,0,1,.077,1.468,5.224,5.224,0,0,0-.5,1.453" transform="translate(-146.305 -207.356)" fill="none" stroke="#ef832b" stroke-miterlimit="10" stroke-width="1"/><path d="M187.9,273.252a5.907,5.907,0,0,1,7.626.842" transform="translate(-139.386 -202.312)" fill="none" stroke="#ef832b" stroke-miterlimit="10" stroke-width="1"/><g transform="translate(114.219 65.607)"><path d="M361.521,290.68l-1.141,2.294,2.788,1.14.3-2.641Z" transform="translate(-338.757 -277.027)" fill="#ffb9a3"/><path d="M362.231,275.929c-6.325,2.753-3.734,9.426.116,8.642,1.874-.381,2.823-6.415,2.823-6.415Z" transform="translate(-337.783 -269.744)" fill="#ffb9a3"/><path d="M367.212,272.762a3.319,3.319,0,0,0-.747-1.074.957.957,0,0,0-1.208-.063c-.425.4-.176,1.136.255,1.525-.371.045-.812-.211-1.085.044-.207.193-.135.536-.017.793a3.525,3.525,0,0,0,1.3,1.486c-.321.182-.693.535-.5.85.053.087.143.147.195.235.123.2,0,.464-.119.668q-.3.494-.645.958a.565.565,0,0,1,.906.157.964.964,0,0,1-.225,1.019,1.01,1.01,0,0,1-.51.326c-.174.04-.94,2.41-.342,2.874.739.574,3.253.076,3.616-.573a1.608,1.608,0,0,0,1.422.589.875.875,0,0,0,.644-1.209,1.479,1.479,0,0,0,1.785-2.142c.31-.094.372-.513.293-.827a1.911,1.911,0,0,0-1.309-1.345.648.648,0,0,0,.59-.637,1.332,1.332,0,0,0-.353-.87,2.963,2.963,0,0,0-2.174-1.039C368.093,274.394,367.6,273.491,367.212,272.762Z" transform="translate(-340.663 -267.526)" fill="#4a49ca"/><path d="M354.31,407.768a31.233,31.233,0,0,0-4.2,2.331s7.281.328,7.851-.016-1.166-2.319-1.166-2.319Z" transform="translate(-333.688 -334.829)" fill="#0c2340"/><path d="M382.059,403.3a31.228,31.228,0,0,0-3.624,3.149s7.678-1.14,7.678-1.641-1.621-2.028-1.621-2.028Z" transform="translate(-347.67 -332.368)" fill="#0c2340"/><path d="M364.526,337.944c-.137.753-5.2,20.755,9.293,32.746l4.2-.963a29.782,29.782,0,0,1-7.19-12.833c-2.178-7.8-.448-8.565.858-12.862a15.094,15.094,0,0,0,.37-8.207Z" transform="translate(-340.326 -299.314)" fill="#d8742a"/><path d="M348.928,339.456c-2.3,5.492-6.244,24.21,2.355,34.749l4.295-.009s-3.383-3.707-3.761-12.308,1.809-12.377,3.351-15.216a49.98,49.98,0,0,0,2.969-7.661Z" transform="translate(-331.656 -300.887)" fill="#ef832b"/><path d="M345.128,272.639c-1.141,4.023-1.516,11.454,4.2,14.447l3.825-.932s-6.895-3.615-5.418-12.751Z" transform="translate(-330.887 -268.12)" fill="#0b43a4"/><path d="M324.939,268.216l2.969-.366s-.357,12.466,14.04,13.516c10.991.8,11.854,21.426,11.854,21.426-3.544,2.386-9.491,3.108-17.111,2.562,0,0,.488-14.714-.723-18.742C335.97,286.612,324.007,282.848,324.939,268.216Z" transform="translate(-321.234 -265.756)" fill="#0056ec"/><path d="M317.747,263.911c-.5.582,1.6,1.321,3.63,2.263l2.605-.322a10.252,10.252,0,0,0,0-1.063c-.032-.543-.3-.852-.614-.386a2.017,2.017,0,0,1-2.247.2C320.5,264.176,318.25,263.329,317.747,263.911Z" transform="translate(-317.672 -263.713)" fill="#ffb9a3"/><path d="M345.087,271c-.954-.939-.7-.881-.7-.881l2.912.658s.64-1.421,1.183-1.461-.409.979-.191,1.357-.6,1.091-.6,1.091Z" transform="translate(-330.845 -266.477)" fill="#ffb9a3"/></g><path d="M373.408,276.506a3.114,3.114,0,0,1,1.938.659,1.437,1.437,0,0,1,.288,1.873" transform="translate(-230.969 -204.422)" fill="none" stroke="#4a49ca" stroke-miterlimit="10" stroke-width="1"/><path d="M378.286,287.165a1.226,1.226,0,0,1,.7.868,1.161,1.161,0,0,1-.33.9,3.43,3.43,0,0,1-.79.591" transform="translate(-233.171 -209.684)" fill="none" stroke="#4a49ca" stroke-miterlimit="10" stroke-width="1"/><path d="M365.513,292.712a3.61,3.61,0,0,0,4.163-.51" transform="translate(-227.072 -212.171)" fill="none" stroke="#4a49ca" stroke-miterlimit="10" stroke-width="1"/><path d="M378.538,278.426a1.14,1.14,0,0,1,.381,1.3,3.339,3.339,0,0,1-.817,1.2" transform="translate(-233.287 -205.37)" fill="none" stroke="#4a49ca" stroke-miterlimit="10" stroke-width="1"/></g><g transform="translate(88.041)"><path d="M208.569,88.752l-1.188-2.9,11.458-4.35Z" transform="translate(-204.759 -81.502)" fill="#0b43a4"/><path d="M210.866,86.965l9.693-5.463-6.747,6.853Z" transform="translate(-206.479 -81.502)" fill="#5193f4"/><path d="M202.2,84.67l14.08-3.169-11.458,4.35Z" transform="translate(-202.202 -81.502)" fill="#5193f4"/><path d="M210.3,92.292l-.577,1.788,1.749-1.235Z" transform="translate(-205.917 -86.828)" fill="#0056ec"/></g><path d="M200.617,95c-2.991-.506-7.052,2.519-5.305,5.67.595,1.073,3.662.607,3.433-.579-.109-.568-.8-.809-1.378-.743a3.41,3.41,0,0,0-3.328,3.9c.765,3.685,6.414,2.439,8.313,1.919" transform="translate(-110.112 -88.139)" fill="none" stroke="#c8dbfb" stroke-linecap="round" stroke-linejoin="round" stroke-width="1" stroke-dasharray="4"/></g></g></svg>