<svg xmlns="http://www.w3.org/2000/svg" width="22.09" height="17.954" viewBox="0 0 22.09 17.954"><path d="M195.521,59.423a9.148,9.148,0,0,1-2.879,1.1,4.533,4.533,0,0,0-7.839,3.1,4.456,4.456,0,0,0,.117,1.031,12.862,12.862,0,0,1-9.342-4.734,4.538,4.538,0,0,0,1.4,6.051,4.5,4.5,0,0,1-2.053-.568c0,.019,0,.039,0,.059a4.534,4.534,0,0,0,3.637,4.443,4.51,4.51,0,0,1-1.2.161,4.56,4.56,0,0,1-.851-.082,4.534,4.534,0,0,0,4.232,3.147,9.087,9.087,0,0,1-5.629,1.94,8.854,8.854,0,0,1-1.081-.064A12.89,12.89,0,0,0,193.884,64.15c0-.2-.005-.392-.013-.587a9.181,9.181,0,0,0,2.26-2.345,9.076,9.076,0,0,1-2.6.712A4.547,4.547,0,0,0,195.521,59.423Z" transform="translate(-174.041 -59.092)" fill="#299df4"/></svg>