<svg xmlns="http://www.w3.org/2000/svg" width="22" height="28.085" viewBox="0 0 22 28.085"><g transform="translate(-6.5)"><path d="M21.673,0H6.5V28.085h22V6.827Zm.274,1.6L26.9,6.553H21.947ZM7.436,27.149V.936H21.011V7.489h6.553v19.66Z" fill="#579acc"/><path d="M33.457,21H25.968a.468.468,0,0,0,0,.936h7.489a.468.468,0,1,0,0-.936Z" transform="translate(-10.106 -11.17)" fill="#579acc"/><path d="M18.952,18.1l-2.013,1.611-.64-.64a.468.468,0,0,0-.662.662l.936.936a.468.468,0,0,0,.623.035l2.34-1.872a.468.468,0,0,0-.585-.731Z" transform="translate(-4.787 -9.574)" fill="#579acc"/><path d="M33.457,32H25.968a.468.468,0,0,0,0,.936h7.489a.468.468,0,1,0,0-.936Z" transform="translate(-10.106 -17.021)" fill="#579acc"/><path d="M18.952,29.1l-2.013,1.611-.64-.64a.468.468,0,0,0-.662.662l.936.936a.468.468,0,0,0,.623.035l2.34-1.872a.468.468,0,0,0-.585-.731Z" transform="translate(-4.787 -15.425)" fill="#579acc"/><path d="M33.457,43H25.968a.468.468,0,0,0,0,.936h7.489a.468.468,0,1,0,0-.936Z" transform="translate(-10.106 -22.872)" fill="#579acc"/><path d="M18.952,40.1l-2.013,1.611-.64-.64a.468.468,0,0,0-.662.662l.936.936a.468.468,0,0,0,.623.035l2.34-1.872a.468.468,0,0,0-.585-.731Z" transform="translate(-4.787 -21.276)" fill="#579acc"/></g></svg>