<svg xmlns="http://www.w3.org/2000/svg" width="33.767" height="30.39" viewBox="0 0 33.767 30.39"><path d="M32.078,5.065H24.762V2.814A2.817,2.817,0,0,0,21.948,0H11.818A2.817,2.817,0,0,0,9,2.814V5.065H1.688A1.688,1.688,0,0,0,0,6.753V19.281a1.7,1.7,0,0,0,1.126,1.589V28.7A1.688,1.688,0,0,0,2.814,30.39H30.953A1.688,1.688,0,0,0,32.641,28.7V20.87a1.7,1.7,0,0,0,1.126-1.589V6.753a1.688,1.688,0,0,0-1.688-1.688ZM10.13,2.814a1.688,1.688,0,0,1,1.688-1.688h10.13a1.688,1.688,0,0,1,1.688,1.688V5.065H22.511V2.814a.563.563,0,0,0-.563-.563H11.818a.563.563,0,0,0-.563.563V5.065H10.13ZM21.386,5.065h-9V3.377h9ZM31.516,28.7a.563.563,0,0,1-.563.563H2.814a.563.563,0,0,1-.563-.563V21.063l12.381,1.708V24.2a1.688,1.688,0,0,0,1.688,1.688h1.126A1.688,1.688,0,0,0,19.134,24.2V22.771l12.381-1.708ZM18.009,24.2a.563.563,0,0,1-.563.563H16.321a.563.563,0,0,1-.563-.563V20.823a.563.563,0,0,1,.563-.563h1.126a.563.563,0,0,1,.563.563Zm14.632-4.919a.563.563,0,0,1-.484.558L32,19.86,19.134,21.634v-.811a1.688,1.688,0,0,0-1.688-1.688H16.321a1.688,1.688,0,0,0-1.688,1.688v.811L1.61,19.838a.563.563,0,0,1-.484-.558V6.753a.563.563,0,0,1,.563-.563h30.39a.563.563,0,0,1,.563.563Zm0,0" fill="#d4f1ff"/></svg>