<?xml version="1.0" encoding="utf-8"?>
<!-- Generator: Adobe Illustrator 24.0.0, SVG Export Plug-In . SVG Version: 6.00 Build 0)  -->
<svg version="1.1" id="Layer_1" xmlns="http://www.w3.org/2000/svg" xmlns:xlink="http://www.w3.org/1999/xlink" x="0px" y="0px"
	 viewBox="0 0 32 39" style="enable-background:new 0 0 32 39;" xml:space="preserve">
<style type="text/css">
	.st0{fill:#FFFFFF;}
</style>
<g>
	<path class="st0" d="M23.64,6.1c-0.25-1.25-1.36-2.19-2.68-2.19c-0.3,0-0.55,0.24-0.55,0.55s0.24,0.55,0.55,0.55
		c0.9,0,1.64,0.74,1.64,1.64s-0.74,1.64-1.64,1.64c-0.3,0-0.55,0.24-0.55,0.55c0,0.3,0.24,0.55,0.55,0.55
		c1.32,0,2.42-0.94,2.68-2.19h7.16v4.92H1.28V7.2h7.65h1.64c0.3,0,0.55-0.24,0.55-0.55c0-0.3-0.24-0.55-0.55-0.55H9.58
		c0.23-0.64,0.83-1.09,1.54-1.09c0.9,0,1.64,0.74,1.64,1.64s-0.74,1.64-1.64,1.64c-0.3,0-0.55,0.24-0.55,0.55
		c0,0.3,0.24,0.55,0.55,0.55c1.51,0,2.73-1.23,2.73-2.73s-1.23-2.73-2.73-2.73C9.8,3.92,8.7,4.86,8.44,6.1H0.18v7.11v21.87H31.9
		V13.21V6.1H23.64z M30.8,33.99H1.28V13.21H30.8V33.99z"/>
	<path class="st0" d="M14.4,5.01c0.9,0,1.64,0.74,1.64,1.64S15.3,8.29,14.4,8.29c-0.3,0-0.55,0.24-0.55,0.55
		c0,0.3,0.24,0.55,0.55,0.55c1.51,0,2.73-1.23,2.73-2.73s-1.23-2.73-2.73-2.73c-0.3,0-0.55,0.24-0.55,0.55S14.1,5.01,14.4,5.01z"/>
	<path class="st0" d="M17.68,5.01c0.9,0,1.64,0.74,1.64,1.64s-0.74,1.64-1.64,1.64c-0.3,0-0.55,0.24-0.55,0.55
		c0,0.3,0.24,0.55,0.55,0.55c1.51,0,2.73-1.23,2.73-2.73s-1.23-2.73-2.73-2.73c-0.3,0-0.55,0.24-0.55,0.55S17.38,5.01,17.68,5.01z"
		/>
	<circle class="st0" cx="12.21" cy="17.04" r="0.55"/>
	<circle class="st0" cx="16.04" cy="17.04" r="0.55"/>
	<circle class="st0" cx="19.87" cy="17.04" r="0.55"/>
	<circle class="st0" cx="23.7" cy="17.04" r="0.55"/>
	<circle class="st0" cx="27.52" cy="17.04" r="0.55"/>
	<circle class="st0" cx="4.56" cy="21.41" r="0.55"/>
	<circle class="st0" cx="8.39" cy="21.41" r="0.55"/>
	<circle class="st0" cx="12.21" cy="21.41" r="0.55"/>
	<circle class="st0" cx="16.04" cy="21.41" r="0.55"/>
	<circle class="st0" cx="19.87" cy="21.41" r="0.55"/>
	<circle class="st0" cx="23.7" cy="21.41" r="0.55"/>
	<circle class="st0" cx="27.52" cy="21.41" r="0.55"/>
	<circle class="st0" cx="4.56" cy="25.24" r="0.55"/>
	<circle class="st0" cx="8.39" cy="25.24" r="0.55"/>
	<circle class="st0" cx="12.21" cy="25.24" r="0.55"/>
	<circle class="st0" cx="16.04" cy="25.24" r="0.55"/>
	<circle class="st0" cx="19.87" cy="25.24" r="0.55"/>
	<circle class="st0" cx="23.7" cy="25.24" r="0.55"/>
	<circle class="st0" cx="27.52" cy="25.24" r="0.55"/>
	<circle class="st0" cx="4.56" cy="29.62" r="0.55"/>
	<circle class="st0" cx="8.39" cy="29.62" r="0.55"/>
	<circle class="st0" cx="12.21" cy="29.62" r="0.55"/>
	<circle class="st0" cx="16.04" cy="29.62" r="0.55"/>
	<circle class="st0" cx="19.87" cy="29.62" r="0.55"/>
</g>
</svg>
