<svg id="right" xmlns="http://www.w3.org/2000/svg" width="25" height="25" viewBox="0 0 25 25">
  <g id="Group_2019" data-name="Group 2019">
    <g id="Group_2018" data-name="Group 2018">
      <path id="Path_3153" data-name="Path 3153" d="M21.339,3.661A12.5,12.5,0,0,0,3.661,21.339,12.5,12.5,0,1,0,21.339,3.661ZM12.5,23.535A11.035,11.035,0,1,1,23.535,12.5,11.048,11.048,0,0,1,12.5,23.535Z" fill="#0074cf"/>
    </g>
  </g>
  <g id="Group_2021" data-name="Group 2021" transform="translate(6.314 8.275)">
    <g id="Group_2020" data-name="Group 2020">
      <path id="Path_3154" data-name="Path 3154" d="M141.459,169.682a.732.732,0,0,0-1.036,0l-6.468,6.468-3.4-3.4a.732.732,0,0,0-1.036,1.036l3.923,3.922a.732.732,0,0,0,1.036,0l6.986-6.986A.732.732,0,0,0,141.459,169.682Z" transform="translate(-129.301 -169.467)"/>
    </g>
  </g>
</svg>
