<svg xmlns="http://www.w3.org/2000/svg" width="29.192" height="35" viewBox="0 0 29.192 35"><path d="M168.872,62.794c-.219,2.224-.39,9.488.428,11.52a.5.5,0,1,1-.928.373c-.805-2.006-.713-7.707-.626-9.887.07-1.748.031-1.09,1.173-12.679a.5.5,0,0,1,1,.1Zm-1.314-17.639c.564.167,1.185.3,1.709.407a5.826,5.826,0,0,1,4.582,6.272L171.9,71.62a.5.5,0,1,0,.995.1c2.131-21.638,1.982-19.978,1.982-20.461a6.827,6.827,0,0,0-5.421-6.677c.044.01-.972-.19-1.638-.391-1.942-.582-3-1.608-3.077-3.706a.5.5,0,0,0-1,.036C163.833,43.065,165.192,44.452,167.558,45.155Zm-15.911,6.976a.5.5,0,1,0-1,.1l1.041,10.565c.224,2.272.384,9.5-.428,11.52a.5.5,0,1,0,.928.373c.906-2.258.726-9.641.495-11.99ZM147.67,71.725a.5.5,0,0,0,1-.1c-.005,0-1.978-19.914-1.978-20.37a5.826,5.826,0,0,1,4.61-5.695c.368-.071,1.178-.248,1.736-.415a6.16,6.16,0,0,0,2.255-1.142,4.571,4.571,0,0,0,1.534-3.487.5.5,0,0,0-1-.036c-.1,2.805-1.967,3.574-4.734,4.1a6.827,6.827,0,0,0-5.37,7.348ZM158.23,46.2c3.354-1.181,6.743,1.148,6.744,3.3a3.387,3.387,0,0,1-1.839,2.842,6.025,6.025,0,0,1-3.036.783,5.865,5.865,0,0,1-3.694-1.113,3.156,3.156,0,0,1-1.181-2.512C155.224,48.2,156.5,46.805,158.23,46.2Zm-2.006,3.3c0,1.337.992,2.113,2.294,2.441a5.964,5.964,0,0,0,3.568-.193,2.68,2.68,0,0,0,1.887-2.248c0-1.016-1.62-2.625-3.875-2.625C157.893,46.875,156.223,48.448,156.224,49.5Zm8.023,8.924c-1.11,2.374-5.92,2.752-7.876.5-1.838-2.123.175-5,3.728-5C163.17,53.917,165.325,56.127,164.247,58.424Zm-.732-1.257c0-1.021-1.029-1.756-2.035-2.055a4.392,4.392,0,0,0-4.354.956c-1.064,1.23-.117,2.646,1.59,3.153C160.377,59.715,163.515,59.361,163.515,57.167Zm-.971,9.184a4.976,4.976,0,0,1-5.779-.705,2.351,2.351,0,0,1-.626-1.562c0-1.62,2.807-3.731,5.864-2.525C164.537,62.561,164.735,65.109,162.545,66.351Zm.512-2.268c0-.964-1.271-1.875-2.958-1.875s-2.96,1.231-2.958,1.875c0,1.847,4,2.651,5.541.9A1.36,1.36,0,0,0,163.057,64.084Zm-.023,4.793a1.938,1.938,0,0,1,.174,2.534,4.089,4.089,0,0,1-4.448,1.109c-1.055-.356-2.162-1.164-2.161-2.269,0-1.467,1.663-2.5,3.5-2.5A3.977,3.977,0,0,1,163.034,68.876Zm-.484,1.086c-.329-.948-2.19-1.585-3.765-.98-.7.266-1.346.849-1.155,1.46A2.837,2.837,0,0,0,160.1,71.75C161.624,71.751,162.865,70.876,162.549,69.962Z" transform="translate(-145.688 -40)" fill="#0074cf"/></svg>