<svg xmlns="http://www.w3.org/2000/svg" width="35.922" height="35.95" viewBox="0 0 35.922 35.95"><g transform="translate(-0.194)"><g transform="translate(0.194)"><g transform="translate(0)"><path d="M34.565,7.735l-.872-.272a2.76,2.76,0,0,0-.708-.109,2.343,2.343,0,0,0-2.179,1.58l-.49,1.471V9.26a.673.673,0,0,0-.218-.436L21.165.163A.588.588,0,0,0,20.784,0H3.3a.515.515,0,0,0-.545.545V2.233H.739a.515.515,0,0,0-.545.545V35.406a.515.515,0,0,0,.545.545H27.211a.515.515,0,0,0,.545-.545V33.717h2.015a.515.515,0,0,0,.545-.545V25.819l1.525-2.07.054-.163,4.085-13.018A2.172,2.172,0,0,0,34.565,7.735ZM21.328,1.852l7.136,6.863H21.328Zm5.338,33.009H1.283V3.323H2.754v29.85a.515.515,0,0,0,.545.545H26.666v1.144Zm2.615-2.233H3.843V1.089h16.4V9.26a.515.515,0,0,0,.545.545h8.5V13.89l-2.56,8.062v.163l.109,6.918a.523.523,0,0,0,.381.49.517.517,0,0,0,.6-.218l1.471-1.961v5.284Zm-1.416-5.284-.109-4.521,2.724.872ZM35,10.24,31.079,22.714l-3.159-1.035L31.841,9.26A1.184,1.184,0,0,1,33.312,8.5l.872.272A1.152,1.152,0,0,1,35,10.24Z" transform="translate(-0.194)" fill="#d4f1ff"/><path d="M94.856,50.316H102.7a.515.515,0,0,0,.545-.545V44.216a.515.515,0,0,0-.545-.545H94.856a.515.515,0,0,0-.545.545v5.556A.586.586,0,0,0,94.856,50.316ZM95.4,44.76h6.754v4.467H95.4Z" transform="translate(-87.502 -40.512)" fill="#d4f1ff"/><path d="M79.8,192.337H96.357a.545.545,0,0,0,0-1.089H79.8a.545.545,0,0,0,0,1.089Z" transform="translate(-73.534 -177.413)" fill="#d4f1ff"/><path d="M79.8,247.3H96.357a.545.545,0,0,0,0-1.089H79.8a.545.545,0,0,0,0,1.089Z" transform="translate(-73.534 -228.401)" fill="#d4f1ff"/><path d="M79.8,302.266H96.357a.545.545,0,0,0,0-1.089H79.8a.545.545,0,0,0,0,1.089Z" transform="translate(-73.534 -279.389)" fill="#d4f1ff"/><path d="M96.847,356.687a.515.515,0,0,0-.545-.545H79.8a.545.545,0,0,0,0,1.089H96.357A.537.537,0,0,0,96.847,356.687Z" transform="translate(-73.534 -330.378)" fill="#d4f1ff"/><path d="M234.846,411.106h-8.225a.545.545,0,1,0,0,1.089h8.171a.515.515,0,0,0,.545-.545A.5.5,0,0,0,234.846,411.106Z" transform="translate(-209.735 -381.365)" fill="#d4f1ff"/></g></g></g></svg>