<svg xmlns="http://www.w3.org/2000/svg" width="36.976" height="24.116" viewBox="0 0 36.976 24.116">
  <path id="Path_1" data-name="Path 1" d="M718.831,464.314l-10.755-8.13-6.627,5.009a.416.416,0,0,1-.505,0l-6.631-5.013-10.755,8.13a1.672,1.672,0,0,0,.466.919h0a1.641,1.641,0,0,0,1.174.487h31.987a1.668,1.668,0,0,0,1.642-1.406Zm-11.008-8.98-6.629,5.012-6.625-5.01-.015-.012L683.539,447v-2.065a1.67,1.67,0,0,1,1.663-1.664h31.987a1.655,1.655,0,0,1,1.173.487l0,0a1.664,1.664,0,0,1,.485,1.175V447l-11.016,8.329-.011.008Zm.942.329,10.086-7.625v15.249l-10.086-7.625Zm-25.226-7.625,10.086,7.625-10.086,7.625V448.038Zm1.663-5.6h31.987a2.488,2.488,0,0,1,1.76.732l0,0a2.487,2.487,0,0,1,.732,1.762v19.125a2.5,2.5,0,0,1-2.494,2.495H685.2a2.5,2.5,0,0,1-1.757-.728l0,0h0a2.489,2.489,0,0,1-.732-1.762V444.932a2.5,2.5,0,0,1,2.495-2.5Z" transform="translate(-682.707 -442.436)" fill="#d4f1ff" fill-rule="evenodd"/>
</svg>
