<svg xmlns="http://www.w3.org/2000/svg" width="37.95" height="37.949" viewBox="0 0 37.95 37.949"><g transform="translate(-0.001)"><g transform="translate(17.368 31.862)"><path d="M235.566,430.076a.741.741,0,1,0,.217.524A.747.747,0,0,0,235.566,430.076Z" transform="translate(-234.301 -429.859)" fill="#d4f1ff"/></g><g transform="translate(0.001 19.046)"><g transform="translate(0)"><path d="M22.162,263.153V257.7a.741.741,0,0,0-1.018-.688L8.372,262.155H4.258a4.257,4.257,0,0,0,0,8.514h.49v4.451a.741.741,0,0,0,.741.741H8.515a.741.741,0,0,0,.741-.741v-4.094l11.888,4.781a.741.741,0,0,0,1.018-.688v-5.454a3.34,3.34,0,0,0,0-6.514ZM7.774,274.379H6.23v-3.71H7.774v3.71Zm0-5.192H4.258a2.775,2.775,0,1,1,0-5.549H7.774Zm12.906,4.837h0L9.257,269.429V263.4l8.111-3.267v7.356a.741.741,0,0,0,1.482,0v-7.953l1.83-.737Zm1.482-5.91v-3.407a1.858,1.858,0,0,1,0,3.407Z" transform="translate(-0.001 -256.958)" fill="#d4f1ff"/></g></g><g transform="translate(26.895 27.779)"><path d="M367.773,374.775h-4.2a.741.741,0,0,0,0,1.482h4.2a.741.741,0,0,0,0-1.482Z" transform="translate(-362.835 -374.775)" fill="#d4f1ff"/></g><g transform="translate(25.678 22.13)"><path d="M349.131,298.787a.741.741,0,0,0-1.048,0l-1.448,1.448a.741.741,0,0,0,1.048,1.048l1.448-1.448A.741.741,0,0,0,349.131,298.787Z" transform="translate(-346.418 -298.57)" fill="#d4f1ff"/></g><g transform="translate(25.684 31.862)"><path d="M349.261,431.577l-1.5-1.5a.741.741,0,0,0-1.048,1.048l1.5,1.5a.741.741,0,0,0,1.048-1.048Z" transform="translate(-346.499 -429.864)" fill="#d4f1ff"/></g><g transform="translate(4.004)"><path d="M84.984,0H71.2a2.968,2.968,0,0,0-2.965,2.965v.3H55.78A1.781,1.781,0,0,0,54,5.04V16.751A1.781,1.781,0,0,0,55.78,18.53h.766V20.8a.741.741,0,0,0,1.265.524l2.8-2.8H75.332a1.781,1.781,0,0,0,1.779-1.779V14.528h7.873a2.968,2.968,0,0,0,2.965-2.965v-8.6A2.968,2.968,0,0,0,84.984,0ZM75.628,16.751a.3.3,0,0,1-.3.3H60.3a.741.741,0,0,0-.524.217l-1.749,1.749V17.789a.741.741,0,0,0-.741-.741H55.78a.3.3,0,0,1-.3-.3V5.04a.3.3,0,0,1,.3-.3H68.232v6.819A2.968,2.968,0,0,0,71.2,14.528h4.431Zm10.838-5.188a1.484,1.484,0,0,1-1.482,1.482H71.2a1.484,1.484,0,0,1-1.482-1.482v-8.6A1.484,1.484,0,0,1,71.2,1.482H84.984a1.484,1.484,0,0,1,1.482,1.482Z" transform="translate(-54.001)" fill="#d4f1ff"/></g><g transform="translate(24.886 3.594)"><path d="M341.921,51.514l-5.073-2.929a.741.741,0,0,0-1.112.642v5.858a.741.741,0,0,0,1.112.642l5.073-2.929a.741.741,0,0,0,0-1.284Zm-4.7,2.287v-3.29l2.849,1.645Z" transform="translate(-335.736 -48.486)" fill="#d4f1ff"/></g><g transform="translate(7.747 7.783)"><path d="M112.665,105h-7.412a.741.741,0,1,0,0,1.482h7.412a.741.741,0,1,0,0-1.482Z" transform="translate(-104.512 -105)" fill="#d4f1ff"/></g><g transform="translate(15.16 11.934)"><path d="M205.776,161.217a.741.741,0,1,0,.217.524A.746.746,0,0,0,205.776,161.217Z" transform="translate(-204.511 -161)" fill="#d4f1ff"/></g><g transform="translate(7.747 11.934)"><path d="M109.885,161h-4.632a.741.741,0,0,0,0,1.482h4.632a.741.741,0,1,0,0-1.482Z" transform="translate(-104.512 -161)" fill="#d4f1ff"/></g></g></svg>