<svg xmlns="http://www.w3.org/2000/svg" width="103.337" height="59.757" viewBox="0 0 103.337 59.757"><g transform="translate(0 -40.482)"><g transform="translate(0 40.482)"><g transform="translate(0)"><path d="M40.2,240.357a1.614,1.614,0,0,0-.807-.759l-10.721-4.639-.863-2.675c2.793-2.258,4.48-6,4.48-10.581V208.786a1.614,1.614,0,0,0-.473-1.142,15.714,15.714,0,0,0-10.829-3.7,15.713,15.713,0,0,0-10.829,3.7,1.614,1.614,0,0,0-.473,1.142V221.7c0,4.576,1.684,8.319,4.475,10.577l-.864,2.679L2.592,239.6a1.614,1.614,0,0,0-.807.759L.17,243.586a1.614,1.614,0,0,0-.17.722v19.376H3.229V244.689l1.18-2.362,9.721-4.21,5.245,5.245v5.79h3.229v-5.79l5.245-5.245,9.721,4.21,1.18,2.362v18.995h3.229V244.308a1.613,1.613,0,0,0-.161-.722ZM20.99,207.171a13.415,13.415,0,0,1,8.073,2.365v7.089c-.807-.212-1.615-.616-1.615-1.382a1.615,1.615,0,0,0-1.615-1.615H16.146a1.615,1.615,0,0,0-1.615,1.615c0,.765-.807,1.169-1.615,1.382v-7.088A13.417,13.417,0,0,1,20.99,207.171ZM12.917,221.7v-1.765a5.737,5.737,0,0,0,4.55-3.079h7.046a5.737,5.737,0,0,0,4.55,3.079V221.7c0,4.469-2.115,9.688-8.073,9.688S12.917,226.172,12.917,221.7ZM20.99,234.62a11.217,11.217,0,0,0,3.963-.7l.616,1.911L20.99,240.41l-4.581-4.581.614-1.91A11.216,11.216,0,0,0,20.99,234.62Z" transform="translate(0 -203.927)" fill="#4f4f4f"/><rect width="3.229" height="8.073" transform="translate(8.073 51.683)" fill="#4f4f4f"/><rect width="3.229" height="8.073" transform="translate(30.678 51.683)" fill="#4f4f4f"/><path d="M344.2,240.357a1.615,1.615,0,0,0-.807-.759l-10.721-4.639-.863-2.675c2.793-2.258,4.48-6,4.48-10.581V208.786a1.614,1.614,0,0,0-.473-1.142,17.689,17.689,0,0,0-21.659,0,1.614,1.614,0,0,0-.473,1.142V221.7c0,4.574,1.683,8.316,4.471,10.574l-.865,2.682-10.71,4.639a1.614,1.614,0,0,0-.807.759l-1.615,3.229a1.614,1.614,0,0,0-.161.722v19.376h3.229V244.689l1.179-2.362,9.722-4.21,5.245,5.245v5.79H326.6v-5.79l5.245-5.245,9.721,4.21,1.18,2.362v18.995h3.229V244.308a1.614,1.614,0,0,0-.161-.722ZM324.99,207.171a13.414,13.414,0,0,1,8.073,2.365v7.089c-.807-.212-1.615-.616-1.615-1.382a1.615,1.615,0,0,0-1.615-1.615h-9.688a1.615,1.615,0,0,0-1.615,1.615c0,.765-.807,1.169-1.615,1.382v-7.088A13.417,13.417,0,0,1,324.99,207.171ZM316.917,221.7v-1.765a5.737,5.737,0,0,0,4.55-3.079h7.046a5.737,5.737,0,0,0,4.55,3.079V221.7c0,4.469-2.115,9.688-8.073,9.688S316.917,226.172,316.917,221.7Zm8.073,12.917a11.217,11.217,0,0,0,3.963-.7l.616,1.911-4.579,4.579-4.582-4.582.612-1.91A11.22,11.22,0,0,0,324.99,234.62Z" transform="translate(-242.643 -203.927)" fill="#4f4f4f"/><rect width="3.229" height="8.073" transform="translate(69.43 51.683)" fill="#4f4f4f"/><rect width="3.229" height="8.073" transform="translate(92.035 51.683)" fill="#4f4f4f"/><path d="M216.146,238.115l3.245,1.409,1.285-2.963-3.7-1.6-.865-2.68c2.789-2.258,4.473-6,4.473-10.577V208.786a1.614,1.614,0,0,0-.473-1.142,17.689,17.689,0,0,0-21.659,0,1.614,1.614,0,0,0-.473,1.142V221.7c0,4.573,1.682,8.315,4.469,10.573l-.867,2.688-4.113,1.776,1.292,2.963,3.661-1.586,5.245,5.245v5.79H210.9v-5.79Zm-6.861-30.944a13.415,13.415,0,0,1,8.073,2.365v7.089c-.807-.212-1.615-.616-1.615-1.382a1.615,1.615,0,0,0-1.615-1.615h-9.688a1.615,1.615,0,0,0-1.615,1.615c0,.765-.807,1.169-1.615,1.382v-7.088A13.417,13.417,0,0,1,209.285,207.171ZM201.212,221.7v-1.765a5.737,5.737,0,0,0,4.55-3.079h7.046a5.737,5.737,0,0,0,4.55,3.079V221.7c0,4.469-2.115,9.688-8.073,9.688S201.212,226.172,201.212,221.7Zm8.073,12.917a11.224,11.224,0,0,0,3.97-.7l.615,1.907-4.585,4.585-4.582-4.582.612-1.911A11.215,11.215,0,0,0,209.285,234.62Z" transform="translate(-157.616 -203.927)" fill="#4f4f4f"/></g></g></g></svg>