<svg xmlns="http://www.w3.org/2000/svg" width="24.343" height="18.066" viewBox="0 0 24.343 18.066"><g transform="translate(0 0)"><g transform="translate(0 0)"><path d="M21.965,66H2.377A2.38,2.38,0,0,0,0,68.377V81.69a2.38,2.38,0,0,0,2.377,2.377H21.965a2.38,2.38,0,0,0,2.377-2.377V68.377A2.38,2.38,0,0,0,21.965,66Zm-.532.951-1.617,1.617H11.47a.475.475,0,0,0,0,.951h7.4L17.534,70.85H14.017a.475.475,0,1,0,0,.951h2.566l-2.325,2.325a2.955,2.955,0,0,1-4.175,0L2.91,66.951Zm.532,16.165H2.377a1.417,1.417,0,0,1-.651-.158L3.99,80.693a.475.475,0,1,0-.672-.672L1.073,82.266a1.418,1.418,0,0,1-.122-.576V68.377a1.427,1.427,0,0,1,.775-1.268c.01.012.021.024.032.036l7.218,7.218-3,3a.475.475,0,0,0,.672.672L9.66,75.024a3.908,3.908,0,0,0,5.024,0l7.934,7.934A1.418,1.418,0,0,1,21.965,83.116Zm1.426-1.426a1.418,1.418,0,0,1-.122.576l-7.9-7.9,7.218-7.218c.011-.011.022-.023.032-.036a1.428,1.428,0,0,1,.775,1.268Z" transform="translate(0 -66)" fill="#cee9ff"/></g><g transform="translate(9.049 2.567)"><path d="M191.142,120.139a.475.475,0,1,0,.139.336A.478.478,0,0,0,191.142,120.139Z" transform="translate(-190.33 -120)" fill="#cee9ff"/></g><g transform="translate(4.559 12.501)"><path d="M96.7,329.079a.476.476,0,1,0,.139.336A.479.479,0,0,0,96.7,329.079Z" transform="translate(-95.89 -328.94)" fill="#cee9ff"/></g></g></svg>