<svg xmlns="http://www.w3.org/2000/svg" width="39.728" height="40.156" viewBox="0 0 39.728 40.156"><g transform="translate(-2.733)"><g transform="translate(30.596 29.602)"><path d="M359.588,377.533q-.346-.049-.7-.1a.8.8,0,1,0-.206,1.587q.344.045.68.093a.817.817,0,0,0,.114.008.8.8,0,0,0,.112-1.592Z" transform="translate(-357.985 -377.43)" fill="#fff"/></g><g transform="translate(2.733)"><g transform="translate(0)"><path d="M35.274,30.25a.8.8,0,0,0-.339,1.564c4.687,1.015,5.925,2.274,5.925,2.8,0,.5-1.048,1.6-4.977,2.579A57.662,57.662,0,0,1,22.6,38.557,57.662,57.662,0,0,1,9.31,37.191c-3.929-.978-4.977-2.081-4.977-2.579,0-.482.872-1.331,3.329-2.137a41.976,41.976,0,0,1,9.5-1.622,37.531,37.531,0,0,0,4.98,4.413.8.8,0,0,0,.921,0,39.1,39.1,0,0,0,6.537-6.137A31.265,31.265,0,0,0,34.1,22.286a20.357,20.357,0,0,0,2.073-8.709,13.577,13.577,0,1,0-27.154,0,20.358,20.358,0,0,0,2.073,8.709A31.263,31.263,0,0,0,15.6,29.129l.2.23a40.418,40.418,0,0,0-8.634,1.6c-2.94.964-4.43,2.195-4.43,3.657,0,1.719,2.083,3.109,6.19,4.131A59.276,59.276,0,0,0,22.6,40.156,59.276,59.276,0,0,0,36.27,38.743c4.108-1.022,6.19-2.412,6.19-4.131C42.461,32.75,40.043,31.282,35.274,30.25ZM10.62,13.577a11.977,11.977,0,1,1,23.954,0c0,5.964-3.357,11.169-6.172,14.485a39.548,39.548,0,0,1-5.8,5.552,39.443,39.443,0,0,1-5.779-5.522C13.99,24.77,10.62,19.554,10.62,13.577Z" transform="translate(-2.733)" fill="#fff"/></g></g><g transform="translate(16.187 7.168)"><path d="M180.689,91.388A6.409,6.409,0,1,0,187.1,97.8,6.417,6.417,0,0,0,180.689,91.388Zm0,11.219A4.809,4.809,0,1,1,185.5,97.8,4.815,4.815,0,0,1,180.689,102.607Z" transform="translate(-174.28 -91.388)" fill="#fff"/></g></g></svg>