<svg xmlns="http://www.w3.org/2000/svg" width="24.971" height="32.732" viewBox="0 0 24.971 32.732"><path d="M269.932,421.167v-2.323a1.641,1.641,0,1,0-3.281,0v2.1a10.273,10.273,0,0,1-2.59,6.834l-2.3,2.591a.535.535,0,0,0,.039.749.519.519,0,0,0,.739-.039l2.3-2.591a11.34,11.34,0,0,0,2.858-7.544v-2.1a.593.593,0,1,1,1.187,0v2.323a12.542,12.542,0,0,1-3.2,8.394l-2.244,2.5a.535.535,0,0,0,.035.749.519.519,0,0,0,.74-.036l2.244-2.5A13.607,13.607,0,0,0,269.932,421.167Z" transform="translate(-255.494 -401.345)" fill="#579acc"/><path d="M246.62,361.508a3.875,3.875,0,1,0-7.749,0v2.1a8,8,0,0,1-2.016,5.321l-1.637,1.842a.535.535,0,0,0,.039.749.519.519,0,0,0,.739-.039l1.637-1.842a9.064,9.064,0,0,0,2.285-6.03v-2.1a2.828,2.828,0,1,1,5.655,0v2.323a14.816,14.816,0,0,1-3.785,9.916l-1.894,2.11a.535.535,0,0,0,.035.749.519.519,0,0,0,.74-.036l1.894-2.11a15.882,15.882,0,0,0,4.058-10.629Z" transform="translate(-229.947 -344.01)" fill="#579acc"/><path d="M210.4,304.173a6.109,6.109,0,1,0-12.217,0v2.1a5.723,5.723,0,0,1-1.443,3.807l-1.474,1.659a.535.535,0,0,0,.039.749.519.519,0,0,0,.739-.04l1.474-1.658a6.79,6.79,0,0,0,1.711-4.517v-2.1a5.062,5.062,0,1,1,10.123,0V306.5a17.089,17.089,0,0,1-4.366,11.437l-.524.584a.535.535,0,0,0,.035.749.519.519,0,0,0,.74-.036l.524-.584A18.155,18.155,0,0,0,210.4,306.5v-2.323Z" transform="translate(-191.494 -286.675)" fill="#579acc"/><path d="M216.927,248.882a.524.524,0,1,0,1.047,0,7.432,7.432,0,0,1,1.8-4.857,7.273,7.273,0,0,1,4.45-2.456.53.53,0,0,0-.149-1.05,8.317,8.317,0,0,0-5.09,2.808A8.5,8.5,0,0,0,216.927,248.882Z" transform="translate(-212.472 -231.384)" fill="#579acc"/><path d="M158.544,502.772a.524.524,0,1,0-1.047,0,3.447,3.447,0,0,1-.869,2.294l-1.311,1.475a.535.535,0,0,0,.039.749.519.519,0,0,0,.739-.039l1.311-1.475A4.515,4.515,0,0,0,158.544,502.772Z" transform="translate(-153.041 -483.177)" fill="#579acc"/><path d="M598.912,640.463a.524.524,0,0,0-.639.379,19.445,19.445,0,0,1-.715,2.21.533.533,0,0,0,.294.688.517.517,0,0,0,.193.037.524.524,0,0,0,.487-.335,20.52,20.52,0,0,0,.754-2.332A.531.531,0,0,0,598.912,640.463Z" transform="translate(-578.799 -616.134)" fill="#579acc"/><path d="M565.7,291.993a.519.519,0,0,0-.739.04.535.535,0,0,0,.039.749,7.443,7.443,0,0,1,2.423,5.494V300.6a19.65,19.65,0,0,1-.179,2.641.529.529,0,0,0,.447.6.515.515,0,0,0,.072,0,.526.526,0,0,0,.518-.458,20.744,20.744,0,0,0,.188-2.786v-2.323A8.511,8.511,0,0,0,565.7,291.993Z" transform="translate(-547.331 -280.778)" fill="#579acc"/><path d="M457.845,242.2a.516.516,0,0,0,.225.052.523.523,0,0,0,.473-.3.533.533,0,0,0-.248-.707,8.2,8.2,0,0,0-2.383-.729.53.53,0,0,0-.149,1.05A7.161,7.161,0,0,1,457.845,242.2Z" transform="translate(-441.923 -231.382)" fill="#579acc"/><path d="M411.657,178.792c-.2,0-.394.005-.589.016a.53.53,0,0,0,.058,1.059c.176-.01.355-.015.531-.015a9.6,9.6,0,0,1,9.529,9.65v2.323a.524.524,0,1,0,1.047,0V189.5A10.656,10.656,0,0,0,411.657,178.792Z" transform="translate(-398.859 -172.005)" fill="#579acc"/><path d="M273.3,191.294a.517.517,0,0,0,.3-.095,9.421,9.421,0,0,1,2.844-1.361.531.531,0,0,0,.362-.654.523.523,0,0,0-.646-.366A10.461,10.461,0,0,0,273,190.329a.534.534,0,0,0-.131.738A.521.521,0,0,0,273.3,191.294Z" transform="translate(-266.23 -181.631)" fill="#579acc"/><path d="M130.758,272.748v-2.1a9.675,9.675,0,0,1,2.6-6.615.535.535,0,0,0-.022-.749.519.519,0,0,0-.74.022,10.739,10.739,0,0,0-2.883,7.342v2.1a1.173,1.173,0,0,1-.3.78l-.646.726a.535.535,0,0,0,.039.749.519.519,0,0,0,.739-.039l.646-.726A2.24,2.24,0,0,0,130.758,272.748Z" transform="translate(-127.489 -253.152)" fill="#579acc"/><path d="M670.5,230.232a12.937,12.937,0,0,0-2.713-4.641.519.519,0,0,0-.74-.032.535.535,0,0,0-.031.749,11.88,11.88,0,0,1,2.491,4.261.524.524,0,0,0,.5.361.516.516,0,0,0,.167-.028A.532.532,0,0,0,670.5,230.232Z" transform="translate(-645.558 -216.862)" fill="#579acc"/><path d="M532.073,136.76a.522.522,0,0,0-.665.33.532.532,0,0,0,.326.673,11.678,11.678,0,0,1,3.222,1.723.519.519,0,0,0,.733-.108.535.535,0,0,0-.107-.742A12.721,12.721,0,0,0,532.073,136.76Z" transform="translate(-515.137 -131.541)" fill="#579acc"/><path d="M102.73,123.572a11.649,11.649,0,0,1,9.825-3.194.53.53,0,0,0,.15-1.05,12.687,12.687,0,0,0-10.7,3.478,12.983,12.983,0,0,0-3.937,8.773.528.528,0,0,0,.5.553h.024a.527.527,0,0,0,.523-.506A11.92,11.92,0,0,1,102.73,123.572Z" transform="translate(-98.068 -114.67)" fill="#579acc"/><path d="M340.091,59.6a14.885,14.885,0,0,0-3.468.408.531.531,0,0,0-.389.638.523.523,0,0,0,.63.394,13.863,13.863,0,0,1,13.318,3.982.519.519,0,0,0,.74.015.535.535,0,0,0,.015-.75,15.023,15.023,0,0,0-4.853-3.426A14.748,14.748,0,0,0,340.091,59.6Z" transform="translate(-327.293 -57.335)" fill="#579acc"/><path d="M120.57,94.438a.519.519,0,0,0,.735-.091,14.109,14.109,0,0,1,5.681-4.378.533.533,0,0,0,.283-.693.521.521,0,0,0-.684-.287,15.16,15.16,0,0,0-6.1,4.7A.535.535,0,0,0,120.57,94.438Z" transform="translate(-119.533 -85.573)" fill="#579acc"/><path d="M232.351,2.738a.515.515,0,0,0,.227-.053,15.878,15.878,0,0,1,7.033-1.624,16.058,16.058,0,0,1,3.8.454.524.524,0,0,0,.632-.391.531.531,0,0,0-.387-.64A17.093,17.093,0,0,0,239.611,0a16.906,16.906,0,0,0-7.488,1.73.533.533,0,0,0-.244.708A.523.523,0,0,0,232.351,2.738Z" transform="translate(-226.813)" fill="#579acc"/><path d="M590.71,32.523a16.1,16.1,0,0,1,1.588.744.516.516,0,0,0,.245.062.522.522,0,0,0,.463-.282.534.534,0,0,0-.218-.717,17.167,17.167,0,0,0-1.691-.792.522.522,0,0,0-.68.3A.533.533,0,0,0,590.71,32.523Z" transform="translate(-571.925 -30.304)" fill="#579acc"/></svg>