<svg xmlns="http://www.w3.org/2000/svg" width="36.5" height="36.5" viewBox="0 0 36.5 36.5"><g transform="translate(-1728 -648)"><g transform="translate(1728 648)"><path d="M1746.25,684.5a18.25,18.25,0,1,1,18.25-18.25A18.27,18.27,0,0,1,1746.25,684.5Zm0-34.979a16.729,16.729,0,1,0,16.729,16.729A16.749,16.749,0,0,0,1746.25,649.521Z" transform="translate(-1728 -648)" fill="#d4f1ff"/></g><g transform="translate(1735.604 648)"><path d="M1743.646,684.5c-5.969,0-10.646-8.016-10.646-18.25s4.677-18.25,10.646-18.25,10.646,8.016,10.646,18.25S1749.615,684.5,1743.646,684.5Zm0-34.979c-5.032,0-9.125,7.505-9.125,16.729s4.093,16.729,9.125,16.729,9.125-7.505,9.125-16.729S1748.678,649.521,1743.646,649.521Z" transform="translate(-1733 -648)" fill="#d4f1ff"/></g><g transform="translate(1731.975 654.946)"><path d="M1744.889,657.788c-5.609,0-10.812-1.457-14.274-3.994l.9-1.227c3.206,2.351,8.082,3.7,13.374,3.7s10.182-1.349,13.389-3.7l.9,1.227C1755.715,656.331,1750.506,657.788,1744.889,657.788Z" transform="translate(-1730.614 -652.567)" fill="#d4f1ff"/></g><g transform="translate(1731.221 670.813)"><path d="M1759.195,668.737c-3.124-2.64-8.377-4.216-14.048-4.216s-10.924,1.576-14.048,4.216l-.981-1.162c3.39-2.864,9.008-4.575,15.029-4.575s11.639,1.711,15.029,4.575Z" transform="translate(-1730.118 -663)" fill="#d4f1ff"/></g></g></svg>