<svg xmlns="http://www.w3.org/2000/svg" width="25.077" height="25.076" viewBox="0 0 25.077 25.076"><g transform="translate(0 0)"><g transform="translate(4.727 7.138)"><path d="M99.359,145.733H97.008a.49.49,0,0,0-.49.49v2.743a.49.49,0,0,0,.49.49h2.351a.49.49,0,0,0,.49-.49v-2.743A.49.49,0,0,0,99.359,145.733Zm-.49,2.743H97.5v-1.763h1.371Z" transform="translate(-96.518 -145.733)" fill="#cee9ff"/></g><g transform="translate(4.727 12.623)"><path d="M99.359,257.733H97.008a.49.49,0,0,0-.49.49v2.743a.49.49,0,0,0,.49.49h2.351a.49.49,0,0,0,.49-.49v-2.743A.49.49,0,0,0,99.359,257.733Zm-.49,2.743H97.5v-1.763h1.371Z" transform="translate(-96.518 -257.733)" fill="#cee9ff"/></g><g transform="translate(4.727 18.109)"><path d="M99.359,369.733H97.008a.49.49,0,0,0-.49.49v2.743a.49.49,0,0,0,.49.49h2.351a.49.49,0,0,0,.49-.49v-2.743A.49.49,0,0,0,99.359,369.733Zm-.49,2.743H97.5v-1.763h1.371Z" transform="translate(-96.518 -369.733)" fill="#cee9ff"/></g><g transform="translate(17.51 18.109)"><path d="M360.338,369.733h-2.351a.49.49,0,0,0-.49.49v2.743a.49.49,0,0,0,.49.49h2.351a.49.49,0,0,0,.49-.49v-2.743A.49.49,0,0,0,360.338,369.733Zm-.49,2.743h-1.371v-1.763h1.371Z" transform="translate(-357.497 -369.733)" fill="#cee9ff"/></g><g transform="translate(8.988 7.138)"><path d="M186.352,145.733H184a.49.49,0,0,0-.49.49v2.743a.49.49,0,0,0,.49.49h2.351a.49.49,0,0,0,.49-.49v-2.743A.49.49,0,0,0,186.352,145.733Zm-.49,2.743h-1.371v-1.763h1.371Z" transform="translate(-183.511 -145.733)" fill="#cee9ff"/></g><g transform="translate(13.249 7.138)"><path d="M273.344,145.733h-2.351a.49.49,0,0,0-.49.49v2.743a.49.49,0,0,0,.49.49h2.351a.49.49,0,0,0,.49-.49v-2.743A.49.49,0,0,0,273.344,145.733Zm-.49,2.743h-1.371v-1.763h1.371Z" transform="translate(-270.503 -145.733)" fill="#cee9ff"/></g><g transform="translate(8.988 12.623)"><path d="M186.352,257.733H184a.49.49,0,0,0-.49.49v2.743a.49.49,0,0,0,.49.49h2.351a.49.49,0,0,0,.49-.49v-2.743A.49.49,0,0,0,186.352,257.733Zm-.49,2.743h-1.371v-1.763h1.371Z" transform="translate(-183.511 -257.733)" fill="#cee9ff"/></g><g transform="translate(13.249 12.623)"><path d="M273.344,257.733h-2.351a.49.49,0,0,0-.49.49v2.743a.49.49,0,0,0,.49.49h2.351a.49.49,0,0,0,.49-.49v-2.743A.49.49,0,0,0,273.344,257.733Zm-.49,2.743h-1.371v-1.763h1.371Z" transform="translate(-270.503 -257.733)" fill="#cee9ff"/></g><g transform="translate(17.51 7.138)"><path d="M360.338,145.733h-2.351a.49.49,0,0,0-.49.49v2.743a.49.49,0,0,0,.49.49h2.351a.49.49,0,0,0,.49-.49v-2.743A.49.49,0,0,0,360.338,145.733Zm-.49,2.743h-1.371v-1.763h1.371Z" transform="translate(-357.497 -145.733)" fill="#cee9ff"/></g><g transform="translate(17.51 12.623)"><path d="M360.338,257.733h-2.351a.49.49,0,0,0-.49.49v2.743a.49.49,0,0,0,.49.49h2.351a.49.49,0,0,0,.49-.49v-2.743A.49.49,0,0,0,360.338,257.733Zm-.49,2.743h-1.371v-1.763h1.371Z" transform="translate(-357.497 -257.733)" fill="#cee9ff"/></g><path d="M24.587,24.1H22.75V5.1a.49.49,0,0,0-.49-.49H19.542V2.841a.49.49,0,0,0-.49-.49H16.359V.49a.49.49,0,0,0-.49-.49H9.208a.49.49,0,0,0-.49.49V2.351H6.025a.49.49,0,0,0-.49.49V4.607H2.817a.49.49,0,0,0-.49.49v19H.49a.49.49,0,0,0,0,.98h24.1a.49.49,0,1,0,0-.98ZM9.7.98h5.681V2.351H9.7ZM14.6,24.1H11.207L14.6,20.708Zm0-4.771-.032.029-4.082,4.082V21.361l3.142-3.142H14.6Zm-4.114.65V18.22h1.756ZM21.77,24.1h-6.2V18.22h.171a.49.49,0,0,0,0-.98H9.33a.49.49,0,0,0,0,.98H9.5V24.1h-6.2V5.587H8.743a.49.49,0,0,0,0-.98H6.515V3.331H18.562V4.607H12.613a.49.49,0,0,0,0,.98H21.77Z" fill="#cee9ff"/><g transform="translate(10.163 4.607)"><path d="M208.346,94.2a.489.489,0,1,0,.144.346A.493.493,0,0,0,208.346,94.2Z" transform="translate(-207.51 -94.06)" fill="#cee9ff"/></g></g></svg>