<svg xmlns="http://www.w3.org/2000/svg" width="26.409" height="26.408" viewBox="0 0 26.409 26.408"><g transform="translate(0 0.001)"><g transform="translate(0 0)"><path d="M25.893,25.379h-2.27V21.3a.516.516,0,1,0-1.032,0v4.075H16.4v-9.8a.516.516,0,0,0-.516-.516H10.522a.516.516,0,0,0-.516.516v9.8H3.817V13.722h.2a.516.516,0,0,0,.365-.151L13.2,4.746l8.824,8.824a.516.516,0,0,0,.365.151h.2V17.59a.516.516,0,1,0,1.032,0V13.722h2.27a.516.516,0,0,0,.365-.881L13.569.152a.516.516,0,0,0-.73,0L7.991,5a.516.516,0,0,0,.73.729L13.2,1.246,24.648,12.69H22.607L13.569,3.652a.516.516,0,0,0-.73,0L3.8,12.69H1.761L5.832,8.619a.516.516,0,0,0-.729-.73L.151,12.841a.516.516,0,0,0,.365.881h2.27V25.379H.516a.516.516,0,1,0,0,1.032H25.893a.516.516,0,1,0,0-1.032Zm-10.522,0H11.038V16.094h4.333Z" transform="translate(0 -0.001)" fill="#cee9ff"/></g><g transform="translate(17.537 15.061)"><path d="M343.405,292h-2.889a.516.516,0,0,0-.516.516v5.158a.516.516,0,0,0,.516.516h2.889a.516.516,0,0,0,.516-.516v-5.158A.516.516,0,0,0,343.405,292Zm-.516,5.158h-1.857v-4.126h1.857Z" transform="translate(-340.001 -292.002)" fill="#cee9ff"/></g><g transform="translate(4.952 15.061)"><path d="M99.405,292H96.517a.516.516,0,0,0-.516.516v5.158a.516.516,0,0,0,.516.516h2.888a.516.516,0,0,0,.516-.516v-5.158A.516.516,0,0,0,99.405,292Zm-.516,5.158H97.033v-4.126h1.857Z" transform="translate(-96.001 -292.002)" fill="#cee9ff"/></g><g transform="translate(10.832 8.476)"><path d="M212.374,164.322a2.373,2.373,0,1,0,2.373,2.373A2.375,2.375,0,0,0,212.374,164.322Zm0,3.714a1.341,1.341,0,1,1,1.341-1.341A1.343,1.343,0,0,1,212.374,168.036Z" transform="translate(-210.001 -164.322)" fill="#cee9ff"/></g><g transform="translate(11.709 20.22)"><path d="M227.881,392.153a.515.515,0,1,0,.151.365A.52.52,0,0,0,227.881,392.153Z" transform="translate(-227.001 -392.002)" fill="#cee9ff"/></g><g transform="translate(6.344 6.344)"><path d="M123.881,123.153a.515.515,0,1,0,.151.365A.519.519,0,0,0,123.881,123.153Z" transform="translate(-123.001 -123.002)" fill="#cee9ff"/></g><g transform="translate(22.592 18.792)"><path d="M438.881,364.482a.516.516,0,1,0,.151.365A.52.52,0,0,0,438.881,364.482Z" transform="translate(-438.001 -364.331)" fill="#cee9ff"/></g></g></svg>