<svg xmlns="http://www.w3.org/2000/svg" width="17.03" height="17.039" viewBox="0 0 17.03 17.039"><g transform="translate(-84.6 -161.561)"><path d="M97.34,161.56H88.9a4.306,4.306,0,0,0-4.3,4.3v8.44a4.306,4.306,0,0,0,4.3,4.3h8.43a4.306,4.306,0,0,0,4.3-4.3v-8.44A4.285,4.285,0,0,0,97.34,161.56Zm2.44,12.73a2.437,2.437,0,0,1-2.44,2.44H88.9a2.437,2.437,0,0,1-2.44-2.44v-8.44a2.437,2.437,0,0,1,2.44-2.44h8.44a2.437,2.437,0,0,1,2.44,2.44v8.44Z" fill="#fff"/><path d="M93.12,165.69a4.39,4.39,0,1,0,4.39,4.39A4.389,4.389,0,0,0,93.12,165.69Zm2.53,4.39a2.53,2.53,0,1,1-2.53-2.53,2.527,2.527,0,0,1,2.53,2.53Z" fill="#fff"/><path d="M97.49,164.33a1.04,1.04,0,1,0,0,2.08h0a1.04,1.04,0,1,0,0-2.08Z" fill="#fff"/></g></svg>