<svg xmlns="http://www.w3.org/2000/svg" width="28.308" height="28.308" viewBox="0 0 28.308 28.308"><g transform="translate(-1380 -4480.661)"><circle cx="13" cy="13" r="13" transform="translate(1381 4482)" fill="#fff"/><path d="M34.638,23.88H26.2a2.445,2.445,0,0,0-2.442,2.442v8.437A2.445,2.445,0,0,0,26.2,37.2h8.437a2.445,2.445,0,0,0,2.443-2.443V26.322A2.445,2.445,0,0,0,34.638,23.88ZM30.42,34.927a4.386,4.386,0,1,1,4.386-4.386A4.391,4.391,0,0,1,30.42,34.927Zm4.527-7.864a1.038,1.038,0,1,1,1.038-1.038A1.039,1.039,0,0,1,34.947,27.062Z" transform="translate(1363.734 4464.313)" fill="#065a9c"/><path d="M39.382,36.971A2.532,2.532,0,1,0,41.914,39.5,2.536,2.536,0,0,0,39.382,36.971Z" transform="translate(1354.772 4455.35)" fill="#065a9c"/><path d="M14.154,0A14.154,14.154,0,1,0,28.308,14.154,14.154,14.154,0,0,0,14.154,0Zm8.514,18.411a4.3,4.3,0,0,1-4.3,4.3H9.935a4.3,4.3,0,0,1-4.3-4.3V9.974a4.3,4.3,0,0,1,4.3-4.3h8.437a4.3,4.3,0,0,1,4.3,4.3Z" transform="translate(1380 4480.661)" fill="#065a9c"/></g></svg>