<svg xmlns="http://www.w3.org/2000/svg" width="28.308" height="28.308" viewBox="0 0 28.308 28.308"><g transform="translate(-1427 -4480.177)"><path d="M14.154,0A14.154,14.154,0,1,1,0,14.154,14.154,14.154,0,0,1,14.154,0Z" transform="translate(1427 4480.177)" fill="#065a9c"/><g transform="translate(1433.83 4486.225)"><path d="M42.849,33.214V39.05H39.466V33.605c0-1.367-.488-2.3-1.713-2.3a1.851,1.851,0,0,0-1.735,1.237,2.316,2.316,0,0,0-.112.825v5.683H32.522s.045-9.221,0-10.175h3.384v1.442c-.007.011-.016.022-.022.033h.022v-.033a3.359,3.359,0,0,1,3.049-1.681c2.226,0,3.895,1.454,3.895,4.579ZM28.983,23.969a1.763,1.763,0,1,0-.044,3.516h.022a1.764,1.764,0,1,0,.022-3.516ZM27.269,39.05h3.382V28.874H27.269Z" transform="translate(-27.068 -23.969)" fill="#fff"/></g></g></svg>