<svg xmlns="http://www.w3.org/2000/svg" width="92.4" height="92.4" viewBox="0 0 92.4 92.4"><g transform="translate(-517 -2754)"><path d="M272,448h2.981v2.981H272Zm0,0" transform="translate(295.671 2389.458)" fill="#1098e7"/><path d="M4.471,20.865h6.955l7.948,5.961V20.865h5.961a4.477,4.477,0,0,0,4.471-4.471V4.471A4.477,4.477,0,0,0,25.336,0H4.471A4.477,4.477,0,0,0,0,4.471V16.394A4.477,4.477,0,0,0,4.471,20.865ZM2.981,4.471a1.491,1.491,0,0,1,1.49-1.49H25.336a1.491,1.491,0,0,1,1.49,1.49V16.394a1.491,1.491,0,0,1-1.49,1.49H16.394v2.981l-3.975-2.981H4.471a1.491,1.491,0,0,1-1.49-1.49Zm0,0" transform="translate(517 2754)" fill="#1098e7"/><path d="M32,64H49.884v2.981H32Zm0,0" transform="translate(490.961 2701.923)" fill="#1098e7"/><path d="M361.336,0H340.471A4.477,4.477,0,0,0,336,4.471V16.394a4.477,4.477,0,0,0,4.471,4.471h5.961v5.961l7.948-5.961h6.955a4.477,4.477,0,0,0,4.471-4.471V4.471A4.477,4.477,0,0,0,361.336,0Zm1.49,16.394a1.491,1.491,0,0,1-1.49,1.49h-7.948l-3.975,2.981V17.884h-8.942a1.491,1.491,0,0,1-1.49-1.49V4.471a1.491,1.491,0,0,1,1.49-1.49h20.865a1.491,1.491,0,0,1,1.49,1.49Zm0,0" transform="translate(243.594 2754)" fill="#1098e7"/><path d="M368,64h17.884v2.981H368Zm0,0" transform="translate(217.555 2701.923)" fill="#1098e7"/><path d="M32,32H49.884v2.981H32Zm0,0" transform="translate(490.961 2727.961)" fill="#1098e7"/><path d="M368,32h17.884v2.981H368Zm0,0" transform="translate(217.555 2727.961)" fill="#1098e7"/><path d="M86.754,177.741l-6.279-1.571v-.714a10.466,10.466,0,0,0,4.472-8.553V164.3a10.7,10.7,0,0,0-10.111-10.8c-.09-.006-.175,0-.378,0-.088,0-.171,0-.263,0a10.708,10.708,0,0,0-10.112,10.8V166.9a10.466,10.466,0,0,0,4.472,8.553v.714l-4.472,1.12v-7.406a17.884,17.884,0,0,0-35.768,0v7.42l-4.472-1.132v-.714a10.473,10.473,0,0,0,4.472-8.555V164.3a10.705,10.705,0,0,0-10.111-10.8c-.09-.006-.175,0-.378,0-.088,0-.171,0-.263,0A10.708,10.708,0,0,0,7.451,164.3V166.9a10.466,10.466,0,0,0,4.472,8.553v.714l-6.279,1.571A7.443,7.443,0,0,0,0,184.971v7.268H35.767v-4.674a12,12,0,0,0,2.981,3.534v3l-11.833,3.413a10.482,10.482,0,0,0-7.541,10.024v8.548H73.026v-8.548a10.484,10.484,0,0,0-7.541-10.024L53.651,194.1v-3a11.989,11.989,0,0,0,2.992-3.553l-.012,4.693H92.4v-7.268a7.443,7.443,0,0,0-5.645-7.23ZM2.98,189.258v-4.288a4.468,4.468,0,0,1,3.386-4.339L14.9,178.5l.006-4.716-.745-.431a7.48,7.48,0,0,1-3.73-6.449V164.3a7.71,7.71,0,0,1,7.274-7.821h.407a7.706,7.706,0,0,1,7.222,7.823V166.9a7.481,7.481,0,0,1-3.73,6.449l-.745.431.006,4.716,7.455,1.86a5.953,5.953,0,0,0,4.456,5.7l.01,3.2Zm31.3-5.961a2.981,2.981,0,0,1,0-5.961v4.471a11.992,11.992,0,0,0,.1,1.49ZM22.355,207.536a7.489,7.489,0,0,1,5.386-7.16l11.426-3.3.031.125a7.191,7.191,0,0,0,5.51,5.293V213.1H31.3v-8.942H28.314V213.1H22.353v-5.568Zm28.316-12.5-.361,1.444a4.237,4.237,0,0,1-8.22,0l-.361-1.444v-2.187a11.827,11.827,0,0,0,8.942,0Zm13.989,5.337a7.487,7.487,0,0,1,5.386,7.16V213.1H64.084v-8.942H61.1V213.1H47.69V202.5A7.189,7.189,0,0,0,53.2,197.2l.031-.125Zm-9.518-18.569a8.942,8.942,0,1,1-17.884,0v-5.961a1.491,1.491,0,0,1,1.49-1.49h14.9a1.491,1.491,0,0,1,1.49,1.49Zm-1.49-10.432h-14.9a4.465,4.465,0,0,0-4.2,2.981h-.274a5.9,5.9,0,0,0-2.981.829v-5.3a14.9,14.9,0,0,1,29.806,0v5.3a5.9,5.9,0,0,0-2.981-.829h-.274a4.465,4.465,0,0,0-4.2-2.981ZM58.02,183.3a11.994,11.994,0,0,0,.1-1.49v-4.471a2.981,2.981,0,0,1,0,5.961Zm31.4,5.961H59.613v-3.192a5.952,5.952,0,0,0,4.468-5.705l7.455-1.863.006-4.716-.745-.431a7.476,7.476,0,0,1-3.73-6.447V164.3a7.71,7.71,0,0,1,7.274-7.821h.407a7.706,7.706,0,0,1,7.222,7.823V166.9a7.481,7.481,0,0,1-3.73,6.449l-.745.431L77.5,178.5l8.535,2.133a4.468,4.468,0,0,1,3.386,4.339Zm0,0" transform="translate(517 2630.316)" fill="#1098e7"/></g></svg>