<svg xmlns="http://www.w3.org/2000/svg" width="394.333" height="70.56" viewBox="0 0 394.333 70.56"><g transform="translate(-382.5 -4017)"><g transform="translate(382.5 4017)"><g transform="translate(14.842 12.442)"><g transform="translate(6.009 51.531)"><path d="M116.437,299.644l.543.179a.115.115,0,0,1,.033,0C116.82,299.756,116.627,299.7,116.437,299.644Z" transform="translate(-116.437 -299.644)" fill="#fff"/></g><g transform="translate(1.807 53.225)"><path d="M117.39,302.871c-1.782-.45-3.6-.924-5.471-1.406C112.529,304.062,114.77,304.616,117.39,302.871Z" transform="translate(-111.919 -301.465)" fill="#fff"/></g><path d="M112.248,267.916a8.3,8.3,0,0,0,3.942.818c-.027-.513-.056-.99-.071-1.466-.011-.345-.186-.484-.51-.6a10.083,10.083,0,0,1-2.047-.878,1.681,1.681,0,0,1-.51-2.4,3.042,3.042,0,0,1,2.132-1.574c1.184-.221,2.382-.372,3.573-.539a6.965,6.965,0,0,0,4.221-1.964,4.036,4.036,0,0,0,.313-5.6c-1.411-1.533-3.5-1.83-5.408-2.322-.2-2.329.443-4.741.227-7.067a10.531,10.531,0,0,0-2.526,0c.026,3.372.129,6.74.215,10.112.034,1.228-.219,3.359.455,4.464.58.947.986-.257,1.165-.882a19.411,19.411,0,0,0,.417-5.644c.086.77.1.731-.424,1.235,1.038.363,2.3.208,3.13,1.039a2.447,2.447,0,0,1-.268,3.811,7.163,7.163,0,0,1-2.754.921c-1.187.186-2.4.288-3.561.56a4.781,4.781,0,0,0-3.364,2.337,3.881,3.881,0,0,0,.093,4.337A3.956,3.956,0,0,0,112.248,267.916Z" transform="translate(-109.976 -244.241)" fill="#fff"/><g transform="translate(5.48 0.27)"><g transform="translate(1.321)"><line y2="32.59" fill="#0063b0"/></g><path d="M118.5,244.531l-.465,32.59h-1.7l-.469-32.59Z" transform="translate(-115.868 -244.531)" fill="#fff"/></g></g><g transform="translate(12.139 10.463)"><path d="M118.409,242.159c-1.946.153-3.9.271-5.839.494a6.3,6.3,0,0,0-4.782,2.97,10.44,10.44,0,0,0-.718,1.812v.839c.026.122.063.243.078.362a4.95,4.95,0,0,0,1.436,3.067,8.612,8.612,0,0,0,4.5,2.056,8.505,8.505,0,0,0,2.389.056c0-.685-.007-1.334,0-1.977,0-.229-.107-.27-.3-.28a13.617,13.617,0,0,1-1.481-.081,4.242,4.242,0,0,1-3.234-1.763c-.863-1.38-.889-2.659.413-3.775a5.847,5.847,0,0,1,2.758-1.392,22.021,22.021,0,0,1,5.426-.044c.082,0,.164.018.249.025l-.223-2.412C118.86,242.127,118.629,242.143,118.409,242.159Z" transform="translate(-107.07 -242.114)" fill="#fff"/></g><g transform="translate(23.904 9.084)"><path d="M120.049,242.01c-.238.032-.35.062-.327.3.066.554.108,1.107.138,1.665.022.307-.078.45.331.45a2.038,2.038,0,0,1,.67.312c.242.142.476.318.737.446a1.521,1.521,0,0,0,1.25.065,2.435,2.435,0,0,0,1.076-2.406,3.478,3.478,0,0,0-.673-1.6,1.282,1.282,0,0,0-2.215.067A1.376,1.376,0,0,1,120.049,242.01Z" transform="translate(-119.719 -240.632)" fill="#fff"/></g><g transform="translate(19.08 6.199)"><path d="M115.883,241.4c.03.238.064.349.295.327.554-.053,1.112-.09,1.667-.116.313-.018.454.088.454-.33a2.237,2.237,0,0,1,.32-.659c.149-.249.327-.476.458-.729a1.546,1.546,0,0,0,.074-1.254,2.418,2.418,0,0,0-2.389-1.1,3.387,3.387,0,0,0-1.616.653,1.283,1.283,0,0,0,.052,2.216A1.347,1.347,0,0,1,115.883,241.4Z" transform="translate(-114.533 -237.53)" fill="#fff"/></g><g transform="translate(21.644 43.396)"><path d="M117.326,277.521l-.037.03v0A.142.142,0,0,0,117.326,277.521Z" transform="translate(-117.289 -277.521)" fill="#fff"/></g><g transform="translate(18.838 35.336)"><g transform="translate(0.089 30.259)"><path d="M119.839,302.8q-2.663-.677-5.471-1.407C114.982,303.989,117.226,304.545,119.839,302.8Z" transform="translate(-114.368 -301.388)" fill="#fff"/></g><path d="M118.1,277.46a4.882,4.882,0,0,0,3.167-4.18,4.459,4.459,0,0,0-2.977-4.38c-.312-.111-.469-.015-.495.32s0,.655-.007.982a.61.61,0,0,0,.428.644,1.754,1.754,0,0,1,.942.845,3,3,0,0,1,.1,2.855,5.3,5.3,0,0,1-2.143,2.37.141.141,0,0,1-.037.033v0l-.216.13,0,.007a9.1,9.1,0,0,1-2.025.774,4.777,4.777,0,0,0-.562.2c0,.055.011.115.019.17a6.318,6.318,0,0,0,.752.057,6.842,6.842,0,0,0,1.5-.238l1.045-.362C117.766,277.615,117.93,277.545,118.1,277.46Z" transform="translate(-114.272 -268.856)" fill="#fff"/></g><g transform="translate(18.927 65.595)"><path d="M119.839,302.8q-2.663-.677-5.471-1.407C114.982,303.989,117.226,304.545,119.839,302.8Z" transform="translate(-114.368 -301.388)" fill="#fff"/></g><g transform="translate(24.45 51.42)"><path d="M120.339,286.148h-.007a.134.134,0,0,0-.026.007A.213.213,0,0,1,120.339,286.148Z" transform="translate(-120.306 -286.148)" fill="#fff"/></g><path d="M137.006,250.891a20.988,20.988,0,0,0-4.362-11.446c-6.565-9.1-20.688-11.734-30.643-4.123-6.175,4.718-8.824,10.969-7.749,18.708a27.275,27.275,0,0,0,5.713,12.851,14.051,14.051,0,0,1,2.717,5.765,44.763,44.763,0,0,1,.77,5.931,7.227,7.227,0,0,0,3.692,6.134,24.68,24.68,0,0,0,4.138,1.9c2.706.93,5.467,1.693,8.214,2.546.383.123.748.283,1.127.447a10.2,10.2,0,0,1-2.132-.4c-3.126-.919-6.245-1.913-9.4-2.743a8.509,8.509,0,0,0-3.167-.231,1.827,1.827,0,0,0-1.363,2.825,3.659,3.659,0,0,0,1.2,1.291,11,11,0,0,0,2.381,1.221c2.523.889,5.065,1.7,7.593,2.545.4.127.789.261,1.187.4a3.243,3.243,0,0,1,.894.361c.03.022-.291.2-.32.2a1.146,1.146,0,0,1-.477-.093c-1.808-.578-3.625-1.1-5.425-1.67-1.035-.313-1.947.275-1.776,1.306a15.8,15.8,0,0,0,.978,3.881,4.7,4.7,0,0,0,5.318,2.858,11.235,11.235,0,0,0,2.36-.714c1.551-.64,1.73-1.482.644-2.624.32.331,1.838-.153,2.218-.29,1.749-.656,1.689-2.788.249-3.808a9.585,9.585,0,0,0-2.17-1.172c-2.345-.833-4.715-1.592-7.086-2.378-1.213-.409-2.438-.852-3.655-1.276.031-.041.049-.089.083-.138.231.063.476.112.711.179,3.308.975,6.587,2.006,9.907,2.892a10.747,10.747,0,0,0,3.256.246,1.744,1.744,0,0,0,1.59-1.545,2.28,2.28,0,0,0-1.1-2.578,15.516,15.516,0,0,0-3.238-1.526c-2.285-.77-4.644-1.321-6.926-2.118a35.517,35.517,0,0,1-4.7-2.106,4.365,4.365,0,0,1-2.24-3.823c-.089-1.25-.153-2.494-.305-3.733a20.305,20.305,0,0,0-3.61-9.388,39.315,39.315,0,0,1-3.685-6.221,17.732,17.732,0,0,1-1.083-13.412c2.036-6.072,6.479-9.734,12.4-11.617,9.873-3.165,20.52,2.482,23.915,12.508a15.023,15.023,0,0,1-.1,10.188,25.815,25.815,0,0,1-5.947,9.074,19.882,19.882,0,0,0-3.9,5.971,41.163,41.163,0,0,0-2.522,8.058,3.436,3.436,0,0,1-.674,1.466,2.2,2.2,0,0,1-1.22.677,5.459,5.459,0,0,1-.789.135h.007a.212.212,0,0,0-.034.007.135.135,0,0,1,.026-.007,1.317,1.317,0,0,1-.726-.261,3.219,3.219,0,0,1-1.1-2.325c-.037-.268-.063-.536-.078-.807-.026-.372-.03-.749-.041-1.125-.033-1.06.212-2.62-.562-3.461-.1-.1-.286.156-.286.156l-.193,0a1.049,1.049,0,0,0-.16.155,2.369,2.369,0,0,0-.32.446c-.1.2-.093-.171-.171.071a14.313,14.313,0,0,0-.305,1.445c-.048.327-.1.677-.156,1.06-.031.2-.049.4-.074.6-.023.213-.042.428-.06.644a8.383,8.383,0,0,0,.116,2.361,4.738,4.738,0,0,0,.785,1.819,3.537,3.537,0,0,0,.644.686c.127.088.242.185.368.268s.253.152.383.226.26.12.391.176a4.182,4.182,0,0,0,1.337.278,5.08,5.08,0,0,0,3.863-1.265,6.017,6.017,0,0,0,.7-.89,7.516,7.516,0,0,0,.9-2.214,50.159,50.159,0,0,1,1.463-5.251,19.784,19.784,0,0,1,4.577-7.726,27.4,27.4,0,0,0,5.181-7.283A18.459,18.459,0,0,0,137.006,250.891Zm-24.533,45.64c1.868.483,3.692.956,5.475,1.406C115.328,299.682,113.087,299.128,112.473,296.531Z" transform="translate(-94.019 -230.865)" fill="#fff"/></g><g transform="translate(442.196 4036.258)"><g transform="translate(319.125 9.302)"><path d="M503.7,262.923h-2.269V261.7h6.036v1.22h-2.3v6.771H503.7Z" transform="translate(-501.313 -261.579)" fill="#fff"/><path d="M505.278,269.8h-1.7v-6.771H501.3V261.57h6.275v1.463h-2.3Zm-1.451-.238h1.213v-6.773h2.293v-.98h-5.791v.98h2.285Z" transform="translate(-501.304 -261.57)" fill="#fff"/><g transform="translate(6.728)"><path d="M515.626,266.433c-.052-1.032-.112-2.274-.1-3.357h-.037c-.26.975-.6,2.053-.945,3.061l-1.161,3.461h-1.132l-1.064-3.414c-.312-1.018-.6-2.11-.811-3.108h-.022c-.037,1.042-.089,2.313-.141,3.405l-.179,3.214h-1.362l.536-7.992h1.921l1.034,3.214c.3.934.537,1.884.738,2.774h.044c.208-.867.477-1.849.79-2.787l1.1-3.2h1.9l.461,7.992h-1.422Z" transform="translate(-508.547 -261.579)" fill="#fff"/><path d="M517.321,269.8h-1.668l-.164-3.474c-.037-.794-.074-1.677-.089-2.516-.23.792-.491,1.6-.751,2.352l-1.192,3.541h-1.3l-1.086-3.5c-.231-.758-.446-1.553-.632-2.308-.023.794-.067,1.729-.112,2.574l-.187,3.327h-1.6l.544-8.234h2.128l1.064,3.3c.238.771.455,1.581.647,2.374.164-.651.4-1.5.693-2.391l1.131-3.282h2.092Zm-1.436-.238h1.176l-.447-7.753h-1.7l-1.072,3.119c-.357,1.075-.633,2.106-.8,2.779l-.023.092H512.8l-.023-.094c-.208-.913-.461-1.869-.728-2.769l-1.028-3.127h-1.719l-.514,7.753h1.124l.172-3.1c.06-1.163.112-2.5.14-3.4v-.113h.217l.045.1c.208.966.5,2.069.8,3.095l1.042,3.329h.952l1.132-3.385c.342-.968.685-2.051.945-3.048l.03-.087h.245v.119c-.014,1.04.037,2.215.089,3.251Z" transform="translate(-508.538 -261.57)" fill="#fff"/></g></g><path d="M158.2,279.514H162V256.574h-3.8v-4.429h13.726a20.715,20.715,0,0,1,6.624.76c6.215,1.79,10.286,7.335,10.286,15.116,0,7.555-3.759,12.921-9.847,14.939a20.463,20.463,0,0,1-7.02.935H158.2Zm13.5-.312a12.69,12.69,0,0,0,5.188-.8c3.625-1.481,5.9-5.144,5.9-10.376,0-5.41-2.367-9.033-6.126-10.464a11.913,11.913,0,0,0-4.965-.715h-3.84V279.2Z" transform="translate(-158.201 -251.609)" fill="#fff"/><path d="M207.5,261.182c6.981,0,12.564,4.965,12.564,11.937,0,7.026-5.583,11.946-12.519,11.946-6.974,0-12.564-4.92-12.564-11.946C194.98,266.147,200.57,261.182,207.5,261.182Zm.045,19.05a7.116,7.116,0,1,0-6.8-7.113A6.749,6.749,0,0,0,207.544,280.232Z" transform="translate(-160.771 -252.241)" fill="#fff"/><path d="M237.472,261.182c3.8,0,9.349,1.435,9.349,5.458v3.13H241.9v-1.518c0-1.567-2.329-2.237-4.25-2.237-4.153,0-6.706,2.862-6.706,7.019a6.824,6.824,0,0,0,7.153,7.246,11.983,11.983,0,0,0,7.109-2.773l2.016,4.026a14.416,14.416,0,0,1-9.438,3.532c-6.669,0-12.564-4.563-12.564-11.894A11.858,11.858,0,0,1,237.472,261.182Z" transform="translate(-162.885 -252.241)" fill="#fff"/><path d="M254.864,265.542h-3.491v-4.248h3.669v-6.215h5.493v6.215h5.2v4.248h-5.2v9.611c0,3.941,2.962,4.432,4.571,4.432.313,0,.58-.044.759-.044h.26v4.651l-.492.086a9.624,9.624,0,0,1-1.25.045c-3.215,0-9.52-.938-9.52-8.582Z" transform="translate(-164.712 -251.814)" fill="#fff"/><path d="M282.882,261.182c6.974,0,12.571,4.965,12.571,11.937,0,7.026-5.6,11.946-12.527,11.946-6.975,0-12.564-4.92-12.564-11.946C270.363,266.147,275.952,261.182,282.882,261.182Zm.045,19.05a7.116,7.116,0,1,0-6.8-7.113A6.749,6.749,0,0,0,282.927,280.232Z" transform="translate(-166.039 -252.241)" fill="#fff"/><path d="M301.163,280.3h3.312V266.971a.859.859,0,0,0-.982-.986H300.94v-4.248h5.947c2.017,0,3.044.939,3.044,2.774v1.34a6.244,6.244,0,0,1-.052,1.031,1.466,1.466,0,0,0-.037.4h.089c1.072-3.264,3.714-5.858,7.234-5.858a3.316,3.316,0,0,1,.722.043.839.839,0,0,0,.312.047v5.59a1.29,1.29,0,0,1-.4-.043,6.556,6.556,0,0,0-.982-.045c-4.608,0-6.662,4.025-6.662,8.32V280.3h3.26v4.246H301.163Z" transform="translate(-168.176 -252.258)" fill="#fff"/><path d="M345.9,251.569c5.679,0,12.437,2.19,12.437,6.262v4.379H353.01v-2.323c0-2.192-3.439-3.308-6.84-3.308-6.751,0-10.956,4.29-10.956,11.044,0,6.8,4.205,11.758,11.224,11.758,2.553,0,7.294-.667,7.294-3.306v-3.4h-5.769v-4.38h11.083v9.568c0,4.83-8.493,6.531-13.182,6.531-9.759,0-16.733-7.067-16.733-16.546S336.017,251.569,345.9,251.569Z" transform="translate(-170.147 -251.569)" fill="#fff"/><path d="M377.253,261.182c6.572,0,10.153,4.786,10.153,10.828a11.478,11.478,0,0,1-.046,1.2l-.089.718H371.484a6.6,6.6,0,0,0,6.84,6.35,9.556,9.556,0,0,0,4.7-1.206,11.764,11.764,0,0,0,1.928-1.21l2.188,4.024a12.5,12.5,0,0,1-2.464,1.566,14.352,14.352,0,0,1-6.751,1.612c-7.562,0-12.252-5.5-12.252-11.946C365.671,266.1,370.413,261.182,377.253,261.182Zm4.294,9.4c-.133-3.176-1.972-5.009-4.428-5.009-2.91,0-4.964,1.966-5.5,5.009Z" transform="translate(-172.7 -252.241)" fill="#fff"/><path d="M393.008,280.28h3.311V266.954a.858.858,0,0,0-.982-.986h-2.546V261.72h5.984c2.017,0,2.956.939,2.956,2.549V265.3a3.117,3.117,0,0,1-.046.673.9.9,0,0,0-.044.314h.089a9.144,9.144,0,0,1,8.41-5.1c4.875,0,7.644,2.6,7.644,8.677V280.28h3.306v4.246h-8.939v-13.5c0-2.818-.759-4.652-3.626-4.652-4.108,0-6.528,3.933-6.528,7.915v5.993h3.268v4.246H393.008Z" transform="translate(-174.595 -252.241)" fill="#fff"/><path d="M426.52,279.648h3.313V265.337H426.3v-4.248H435.5v18.56h3.268v4.246H426.52Zm3.26-27.5H435.5V257.2H429.78Z" transform="translate(-176.937 -251.609)" fill="#fff"/><path d="M445.455,266.009h-3.529v-4.248h9.207v13.684c0,2.732.714,4.607,3.58,4.607,3.938,0,6.305-4.023,6.305-8.142v-5.9h-3.492v-4.248h9.17v17.621a.857.857,0,0,0,.982.982h2.189v4.2H464.24c-2.018,0-2.955-.935-2.955-2.546v-.848c0-.316.046-.588.046-.763v-.316h-.089a8.941,8.941,0,0,1-8.322,5.012c-4.518,0-7.465-2.455-7.465-8.675Z" transform="translate(-178.029 -252.281)" fill="#fff"/><path d="M475.1,276.926h4.831v1.339c0,1.567,2.1,2.372,4.473,2.372,2.278,0,3.886-.76,3.886-2.326,0-1.876-2.144-2.46-5.188-3.532-3.306-1.21-7.2-2.683-7.2-7.066,0-4.832,4.876-6.531,8.991-6.531,3.306,0,8.225,1.3,8.225,4.744v2.907H488.24v-1.3c0-1.207-1.339-1.877-3.349-1.877-1.793,0-3.32.625-3.32,2.056,0,1.878,2.241,2.681,4.786,3.4,3.5,1.069,7.607,2.546,7.607,7.02,0,4.648-4.385,6.929-9.616,6.929-4.108,0-9.252-1.789-9.252-5.5Z" transform="translate(-180.347 -252.241)" fill="#fff"/></g></g></svg>