<svg xmlns="http://www.w3.org/2000/svg" width="349.674" height="62.569" viewBox="0 0 349.674 62.569"><g transform="translate(-94.019 -230.865)"><g transform="translate(94.019 230.865)"><g transform="translate(13.161 11.033)"><g transform="translate(5.328 45.695)"><path d="M116.437,299.644l.482.158a.1.1,0,0,1,.03,0C116.777,299.743,116.605,299.694,116.437,299.644Z" transform="translate(-116.437 -299.644)" fill="#0576cd"/></g><g transform="translate(1.602 47.197)"><path d="M116.77,302.712c-1.58-.4-3.194-.819-4.851-1.247C112.46,303.768,114.447,304.259,116.77,302.712Z" transform="translate(-111.919 -301.465)" fill="#0576cd"/></g><path d="M111.991,265.235a7.36,7.36,0,0,0,3.5.726c-.024-.455-.049-.878-.063-1.3-.01-.306-.165-.429-.452-.532a8.942,8.942,0,0,1-1.815-.779,1.49,1.49,0,0,1-.452-2.132,2.7,2.7,0,0,1,1.89-1.4c1.05-.2,2.112-.33,3.168-.478a6.176,6.176,0,0,0,3.743-1.741,3.579,3.579,0,0,0,.277-4.968c-1.251-1.359-3.1-1.623-4.8-2.059-.175-2.065.393-4.2.2-6.267a9.336,9.336,0,0,0-2.24,0c.023,2.99.115,5.976.191,8.967.031,1.089-.195,2.978.4,3.958.515.84.874-.228,1.033-.782a17.214,17.214,0,0,0,.37-5c.076.683.086.648-.376,1.1.92.322,2.043.185,2.775.921a2.169,2.169,0,0,1-.238,3.379,6.352,6.352,0,0,1-2.442.817c-1.052.165-2.125.256-3.158.5a4.239,4.239,0,0,0-2.983,2.073,3.441,3.441,0,0,0,.082,3.846A3.508,3.508,0,0,0,111.991,265.235Z" transform="translate(-109.976 -244.241)" fill="#0576cd"/><g transform="translate(4.859 0.239)"><g transform="translate(1.172)"><line y2="28.899" fill="#0063b0"/></g><path d="M118.205,244.531l-.413,28.9h-1.508l-.416-28.9Z" transform="translate(-115.868 -244.531)" fill="#0576cd"/></g></g><g transform="translate(10.764 9.278)"><path d="M117.125,242.154c-1.725.136-3.462.24-5.178.438a5.583,5.583,0,0,0-4.24,2.633,9.257,9.257,0,0,0-.637,1.607v.744c.023.108.056.215.069.321a4.39,4.39,0,0,0,1.273,2.719,7.637,7.637,0,0,0,3.99,1.823,7.54,7.54,0,0,0,2.118.049c0-.607-.007-1.183,0-1.753,0-.2-.095-.239-.267-.248a12.057,12.057,0,0,1-1.313-.072,3.761,3.761,0,0,1-2.868-1.563,2.317,2.317,0,0,1,.366-3.348,5.185,5.185,0,0,1,2.445-1.235,19.528,19.528,0,0,1,4.812-.039c.073,0,.145.016.221.022l-.2-2.139C117.525,242.126,117.32,242.14,117.125,242.154Z" transform="translate(-107.07 -242.114)" fill="#0576cd"/></g><g transform="translate(21.197 8.055)"><path d="M120.012,241.854c-.211.028-.31.055-.29.263.059.492.1.981.122,1.476.02.272-.069.4.294.4a1.807,1.807,0,0,1,.594.276c.214.126.422.282.653.4a1.349,1.349,0,0,0,1.109.058,2.159,2.159,0,0,0,.954-2.134,3.083,3.083,0,0,0-.6-1.421,1.136,1.136,0,0,0-1.964.059A1.22,1.22,0,0,1,120.012,241.854Z" transform="translate(-119.719 -240.632)" fill="#0576cd"/></g><g transform="translate(16.919 5.497)"><path d="M115.73,240.966c.026.211.057.309.261.29.492-.047.986-.08,1.478-.1.277-.016.4.078.4-.293a1.982,1.982,0,0,1,.284-.584c.132-.221.29-.422.406-.647a1.371,1.371,0,0,0,.066-1.112,2.144,2.144,0,0,0-2.118-.976,3,3,0,0,0-1.433.579,1.137,1.137,0,0,0,.046,1.965A1.194,1.194,0,0,1,115.73,240.966Z" transform="translate(-114.533 -237.53)" fill="#0576cd"/></g><g transform="translate(19.193 38.481)"><path d="M117.322,277.521l-.033.026v0A.127.127,0,0,0,117.322,277.521Z" transform="translate(-117.289 -277.521)" fill="#0576cd"/></g><g transform="translate(16.704 31.334)"><g transform="translate(0.079 26.832)"><path d="M119.219,302.636q-2.362-.6-4.851-1.248C114.912,303.695,116.9,304.187,119.219,302.636Z" transform="translate(-114.368 -301.388)" fill="#0576cd"/></g><path d="M117.664,276.485a4.329,4.329,0,0,0,2.808-3.707,3.954,3.954,0,0,0-2.64-3.884c-.277-.1-.416-.013-.439.284s0,.581-.007.871a.54.54,0,0,0,.379.571,1.555,1.555,0,0,1,.836.749,2.663,2.663,0,0,1,.092,2.532,4.7,4.7,0,0,1-1.9,2.1.125.125,0,0,1-.033.03v0l-.191.115,0,.007a8.065,8.065,0,0,1-1.8.686,4.232,4.232,0,0,0-.5.179c0,.049.01.1.017.151a5.566,5.566,0,0,0,.666.05,6.059,6.059,0,0,0,1.334-.211l.927-.321C117.371,276.623,117.516,276.561,117.664,276.485Z" transform="translate(-114.272 -268.856)" fill="#0576cd"/></g><g transform="translate(16.783 58.166)"><path d="M119.219,302.636q-2.362-.6-4.851-1.248C114.912,303.695,116.9,304.187,119.219,302.636Z" transform="translate(-114.368 -301.388)" fill="#0576cd"/></g><g transform="translate(21.681 45.596)"><path d="M120.336,286.148h-.007a.113.113,0,0,0-.023.007A.178.178,0,0,1,120.336,286.148Z" transform="translate(-120.306 -286.148)" fill="#0576cd"/></g><path d="M132.138,248.623a18.611,18.611,0,0,0-3.868-10.15c-5.821-8.069-18.345-10.405-27.172-3.656-5.476,4.184-7.825,9.727-6.871,16.59a24.186,24.186,0,0,0,5.066,11.4,12.46,12.46,0,0,1,2.409,5.112,39.694,39.694,0,0,1,.683,5.26,6.408,6.408,0,0,0,3.274,5.439,21.883,21.883,0,0,0,3.669,1.683c2.4.825,4.848,1.5,7.284,2.257.34.109.663.251,1,.4a9.043,9.043,0,0,1-1.89-.354c-2.772-.815-5.538-1.7-8.333-2.432a7.543,7.543,0,0,0-2.808-.2,1.62,1.62,0,0,0-1.208,2.5,3.245,3.245,0,0,0,1.066,1.145,9.756,9.756,0,0,0,2.111,1.083c2.238.788,4.492,1.5,6.733,2.257.353.113.7.232,1.052.354a2.874,2.874,0,0,1,.793.32c.026.02-.258.178-.284.181a1.017,1.017,0,0,1-.423-.082c-1.6-.512-3.214-.98-4.811-1.481-.918-.278-1.726.244-1.575,1.158a14.011,14.011,0,0,0,.868,3.442,4.168,4.168,0,0,0,4.716,2.534,9.963,9.963,0,0,0,2.092-.633c1.376-.567,1.534-1.314.571-2.327.284.294,1.63-.135,1.967-.257a1.875,1.875,0,0,0,.221-3.377,8.5,8.5,0,0,0-1.924-1.039c-2.079-.739-4.181-1.412-6.283-2.109-1.076-.363-2.162-.755-3.241-1.132.027-.036.044-.079.073-.122.2.056.422.1.63.158,2.934.864,5.841,1.779,8.785,2.564a9.532,9.532,0,0,0,2.888.218,1.546,1.546,0,0,0,1.41-1.37,2.022,2.022,0,0,0-.974-2.286,13.759,13.759,0,0,0-2.871-1.353c-2.026-.683-4.118-1.171-6.141-1.878a31.5,31.5,0,0,1-4.165-1.867,3.87,3.87,0,0,1-1.986-3.39c-.079-1.109-.136-2.211-.271-3.31a18.006,18.006,0,0,0-3.2-8.324,34.86,34.86,0,0,1-3.268-5.516,15.724,15.724,0,0,1-.96-11.893c1.805-5.384,5.745-8.631,10.993-10.3,8.755-2.807,18.2,2.2,21.207,11.092a13.322,13.322,0,0,1-.092,9.035A22.891,22.891,0,0,1,123.8,262a17.63,17.63,0,0,0-3.462,5.3,36.5,36.5,0,0,0-2.237,7.145,3.046,3.046,0,0,1-.6,1.3,1.954,1.954,0,0,1-1.082.6,4.85,4.85,0,0,1-.7.12h.007a.185.185,0,0,0-.03.007.117.117,0,0,1,.023-.007,1.168,1.168,0,0,1-.644-.232,2.854,2.854,0,0,1-.977-2.062c-.033-.238-.056-.475-.069-.716-.023-.33-.026-.664-.036-1-.03-.94.188-2.323-.5-3.069-.086-.092-.254.139-.254.139l-.172,0a.93.93,0,0,0-.142.138,2.1,2.1,0,0,0-.284.4c-.089.176-.082-.152-.152.063a12.7,12.7,0,0,0-.271,1.281c-.043.29-.092.6-.139.94-.027.175-.044.353-.066.528s-.037.379-.054.571a7.433,7.433,0,0,0,.1,2.093,4.2,4.2,0,0,0,.7,1.613,3.14,3.14,0,0,0,.571.608c.112.078.214.164.327.237s.224.134.34.2.231.106.346.156a3.707,3.707,0,0,0,1.185.247,4.5,4.5,0,0,0,3.425-1.122,5.333,5.333,0,0,0,.624-.789,6.665,6.665,0,0,0,.8-1.963,44.482,44.482,0,0,1,1.3-4.657,17.542,17.542,0,0,1,4.059-6.851,24.3,24.3,0,0,0,4.594-6.458A16.368,16.368,0,0,0,132.138,248.623Zm-21.754,40.471c1.656.428,3.274.848,4.855,1.247C112.915,291.889,110.928,291.4,110.383,289.094Z" transform="translate(-94.019 -230.865)" fill="#0576cd"/></g><g transform="translate(146.955 247.941)"><g transform="translate(282.983 8.249)"><path d="M503.444,262.785h-2.012V261.7h5.353v1.082h-2.04v6h-1.3Z" transform="translate(-501.326 -261.593)" fill="#0576cd"/><path d="M504.828,268.872h-1.505v-6H501.3v-1.3h5.564v1.3h-2.04Zm-1.287-.211h1.076v-6.006h2.033v-.869h-5.135v.869h2.026Z" transform="translate(-501.304 -261.57)" fill="#0576cd"/><g transform="translate(5.966)"><path d="M514.839,265.9c-.046-.916-.1-2.017-.086-2.977h-.033c-.23.864-.528,1.82-.838,2.714l-1.029,3.069h-1l-.944-3.028c-.277-.9-.528-1.871-.719-2.756h-.02c-.033.924-.079,2.051-.125,3.02l-.159,2.85h-1.208l.475-7.086h1.7l.917,2.85c.265.828.476,1.671.654,2.46h.039c.185-.769.423-1.64.7-2.471l.977-2.838h1.683l.409,7.086H514.97Z" transform="translate(-508.562 -261.593)" fill="#0576cd"/><path d="M516.326,268.872h-1.479l-.145-3.081c-.033-.7-.066-1.487-.079-2.231-.2.7-.436,1.423-.667,2.086l-1.056,3.14h-1.155l-.963-3.1c-.2-.672-.4-1.377-.561-2.046-.021.7-.059,1.533-.1,2.282l-.166,2.95h-1.419l.482-7.3h1.887l.944,2.926c.211.684.4,1.4.574,2.1.145-.577.357-1.333.615-2.121l1-2.911H515.9Zm-1.274-.211H516.1l-.4-6.875h-1.505l-.95,2.766c-.317.953-.562,1.867-.713,2.464l-.021.082h-.19l-.021-.083c-.185-.81-.409-1.658-.646-2.455l-.911-2.773h-1.524l-.456,6.875h1l.153-2.751c.053-1.031.1-2.215.125-3.016v-.1h.192l.04.086c.185.856.442,1.834.713,2.744l.924,2.952h.845l1-3c.3-.859.607-1.819.838-2.7l.026-.078h.218v.106c-.012.922.033,1.965.079,2.883Z" transform="translate(-508.538 -261.57)" fill="#0576cd"/></g></g><path d="M158.2,276.414h3.372V256.073H158.2v-3.928h12.171a18.37,18.37,0,0,1,5.874.674c5.511,1.587,9.121,6.5,9.121,13.4,0,6.7-3.333,11.458-8.732,13.247a18.146,18.146,0,0,1-6.225.829H158.2Zm11.972-.277a11.252,11.252,0,0,0,4.6-.713c3.214-1.313,5.234-4.561,5.234-9.2,0-4.8-2.1-8.01-5.432-9.279a10.564,10.564,0,0,0-4.4-.634h-3.406v19.827Z" transform="translate(-158.201 -251.67)" fill="#0576cd"/><path d="M206.082,261.182c6.191,0,11.141,4.4,11.141,10.585,0,6.23-4.95,10.593-11.1,10.593-6.184,0-11.141-4.363-11.141-10.593C194.98,265.585,199.937,261.182,206.082,261.182Zm.04,16.892a6.31,6.31,0,1,0-6.026-6.307A5.985,5.985,0,0,0,206.121,278.074Z" transform="translate(-164.646 -253.253)" fill="#0576cd"/><path d="M236.085,261.182c3.373,0,8.29,1.273,8.29,4.84V268.8h-4.363v-1.346c0-1.39-2.065-1.984-3.768-1.984-3.683,0-5.947,2.538-5.947,6.224a6.051,6.051,0,0,0,6.343,6.426,10.626,10.626,0,0,0,6.3-2.459l1.788,3.57a12.784,12.784,0,0,1-8.369,3.132c-5.914,0-11.141-4.046-11.141-10.547A10.515,10.515,0,0,1,236.085,261.182Z" transform="translate(-169.944 -253.253)" fill="#0576cd"/><path d="M254.468,264.357h-3.1V260.59h3.254v-5.511H259.5v5.511h4.607v3.767H259.5v8.522c0,3.495,2.627,3.93,4.053,3.93.277,0,.515-.039.673-.039h.231V280.9l-.436.076a8.542,8.542,0,0,1-1.108.04c-2.851,0-8.442-.832-8.442-7.61Z" transform="translate(-174.527 -252.184)" fill="#0576cd"/><path d="M281.465,261.182c6.184,0,11.148,4.4,11.148,10.585,0,6.23-4.964,10.593-11.108,10.593-6.185,0-11.141-4.363-11.141-10.593C270.363,265.585,275.319,261.182,281.465,261.182Zm.04,16.892a6.31,6.31,0,1,0-6.026-6.307A5.984,5.984,0,0,0,281.5,278.074Z" transform="translate(-177.854 -253.253)" fill="#0576cd"/><path d="M301.138,278.16h2.937V266.343a.761.761,0,0,0-.871-.874H300.94V261.7h5.274c1.789,0,2.7.833,2.7,2.46v1.188a5.532,5.532,0,0,1-.046.914,1.3,1.3,0,0,0-.033.355h.079c.95-2.894,3.293-5.194,6.415-5.194a2.938,2.938,0,0,1,.64.038.745.745,0,0,0,.277.041v4.957a1.145,1.145,0,0,1-.356-.038,5.814,5.814,0,0,0-.871-.04c-4.086,0-5.907,3.569-5.907,7.378v4.4H312v3.765H301.138Z" transform="translate(-183.212 -253.296)" fill="#0576cd"/><path d="M344,251.569c5.036,0,11.028,1.942,11.028,5.552V261h-4.725v-2.06c0-1.944-3.049-2.934-6.065-2.934-5.986,0-9.715,3.8-9.715,9.793,0,6.027,3.729,10.427,9.953,10.427,2.264,0,6.468-.591,6.468-2.931v-3.016H345.83V266.4h9.828v8.484c0,4.283-7.531,5.792-11.689,5.792-8.654,0-14.838-6.267-14.838-14.672S335.237,251.569,344,251.569Z" transform="translate(-188.152 -251.569)" fill="#0576cd"/><path d="M375.941,261.182c5.828,0,9,4.244,9,9.6a10.185,10.185,0,0,1-.04,1.066l-.079.637h-14a5.852,5.852,0,0,0,6.065,5.631,8.474,8.474,0,0,0,4.165-1.07,10.426,10.426,0,0,0,1.71-1.073l1.94,3.568a11.087,11.087,0,0,1-2.185,1.389,12.728,12.728,0,0,1-5.986,1.429c-6.705,0-10.864-4.881-10.864-10.593C365.671,265.547,369.876,261.182,375.941,261.182Zm3.808,8.331c-.118-2.817-1.749-4.441-3.927-4.441-2.581,0-4.4,1.744-4.878,4.441Z" transform="translate(-194.555 -253.253)" fill="#0576cd"/><path d="M392.983,278.117h2.936V266.3a.761.761,0,0,0-.871-.874h-2.257V261.66H398.1c1.789,0,2.621.833,2.621,2.26v.911a2.763,2.763,0,0,1-.04.6.8.8,0,0,0-.039.279h.079a8.109,8.109,0,0,1,7.458-4.523c4.323,0,6.778,2.3,6.778,7.694v9.241h2.931v3.765h-7.927V269.909c0-2.5-.673-4.125-3.215-4.125-3.643,0-5.788,3.488-5.788,7.019v5.314h2.9v3.765H392.983Z" transform="translate(-199.307 -253.253)" fill="#0576cd"/><path d="M426.495,276.534h2.938V263.843H426.3v-3.767h8.164v16.458h2.9V280.3H426.495Zm2.891-24.389h5.076v4.48h-5.076Z" transform="translate(-205.178 -251.67)" fill="#0576cd"/><path d="M445.055,265.528h-3.129v-3.767h8.165V273.9c0,2.422.633,4.085,3.174,4.085,3.492,0,5.591-3.567,5.591-7.22v-5.232h-3.1v-3.767h8.132v15.625a.76.76,0,0,0,.871.871H466.7v3.726h-4.99c-1.789,0-2.62-.829-2.62-2.257v-.752c0-.281.04-.521.04-.676v-.28h-.079a7.929,7.929,0,0,1-7.379,4.445c-4.007,0-6.62-2.177-6.62-7.693Z" transform="translate(-207.916 -253.355)" fill="#0576cd"/><path d="M475.1,275.143h4.284v1.188c0,1.39,1.861,2.1,3.966,2.1,2.02,0,3.446-.674,3.446-2.063,0-1.664-1.9-2.182-4.6-3.132-2.931-1.073-6.383-2.379-6.383-6.266,0-4.285,4.323-5.792,7.973-5.792,2.931,0,7.294,1.152,7.294,4.206v2.577h-4.324v-1.151c0-1.071-1.188-1.664-2.97-1.664-1.59,0-2.944.554-2.944,1.823,0,1.665,1.987,2.378,4.244,3.018,3.1.948,6.745,2.257,6.745,6.225,0,4.121-3.888,6.145-8.527,6.145-3.643,0-8.2-1.587-8.2-4.881Z" transform="translate(-213.728 -253.253)" fill="#0576cd"/></g></g></svg>