<svg xmlns="http://www.w3.org/2000/svg" width="34.544" height="32.275" viewBox="0 0 34.544 32.275"><g transform="translate(0 -16.814)"><g transform="translate(0 16.814)"><g transform="translate(0 0)"><path d="M34.518,29.012a.51.51,0,0,0-.032-.176.882.882,0,0,0-.348-.491l-4.945-3.437V21.223a.885.885,0,0,0-.885-.885H22.62L17.78,16.973a.884.884,0,0,0-1.008,0L11.9,20.338H6.236a.885.885,0,0,0-.885.885v3.642L.382,28.3A.883.883,0,0,0,0,29.014c0,.005,0,.01,0,.016L.026,48.206a.884.884,0,0,0,.885.883h0l32.749-.045a.885.885,0,0,0,.883-.886Zm-5.325-1.949,2.827,1.965-2.827,1.965Zm-11.92-8.287,2.247,1.562H15.013ZM7.121,22.107h20.3V32.222l-6.817,4.739-2.779-2.156-.012-.008a.884.884,0,0,0-1.072.008l-2.8,2.172L7.121,32.262ZM5.351,27.015v4.024L2.44,29.027Zm-3.58,3.7,10.705,7.4L1.793,46.4ZM3.5,47.317,17.286,36.624,31.022,47.279ZM22.072,38.1l10.679-7.424L32.773,46.4Z" transform="translate(0 -16.814)" fill="#fff"/></g></g><g transform="translate(10.399 25.646)"><g transform="translate(0 0)"><path d="M166.985,147.713H155.007a.885.885,0,1,0,0,1.769h11.978a.885.885,0,1,0,0-1.769Z" transform="translate(-154.122 -147.713)" fill="#fff"/></g></g><g transform="translate(10.399 30.246)"><path d="M166.985,215.9H155.007a.885.885,0,1,0,0,1.769h11.978a.885.885,0,1,0,0-1.769Z" transform="translate(-154.122 -215.895)" fill="#fff"/></g></g></svg>