<svg xmlns="http://www.w3.org/2000/svg" width="91" height="91" viewBox="0 0 91 91"><g transform="translate(-894 -2319)"><path d="M83.661,20.548H76.323V0H14.677V20.548H7.339A7.347,7.347,0,0,0,0,27.887V74.855a7.347,7.347,0,0,0,7.339,7.339H26.419v5.871H20.548V91h49.9V88.065H64.581V82.194H83.661A7.347,7.347,0,0,0,91,74.855V27.887A7.347,7.347,0,0,0,83.661,20.548ZM17.613,2.935H73.387v58.71H17.613ZM7.339,23.484h7.339v41.1H76.323v-41.1h7.339a4.409,4.409,0,0,1,4.4,4.4V67.516H2.935V27.887A4.409,4.409,0,0,1,7.339,23.484ZM61.645,88.065H29.355V82.194h32.29Zm22.016-8.806H7.339a4.409,4.409,0,0,1-4.4-4.4v-4.4H88.065v4.4A4.409,4.409,0,0,1,83.661,79.258Zm0,0" transform="translate(894 2319)" fill="#1098e7"/><path d="M192,400h2.935v2.935H192Zm0,0" transform="translate(737.226 1992.387)" fill="#1098e7"/><path d="M224,400h8.806v2.935H224Zm0,0" transform="translate(711.097 1992.387)" fill="#1098e7"/><path d="M288,400h2.935v2.935H288Zm0,0" transform="translate(658.839 1992.387)" fill="#1098e7"/><path d="M112,254.677h49.9V240H112Zm2.935-11.742h44.032v8.806H114.935Zm0,0" transform="translate(802.548 2123.032)" fill="#1098e7"/><path d="M144,272h2.935v2.935H144Zm0,0" transform="translate(776.419 2096.903)" fill="#1098e7"/><path d="M176,272h2.935v2.935H176Zm0,0" transform="translate(750.29 2096.903)" fill="#1098e7"/><path d="M208,272h2.935v2.935H208Zm0,0" transform="translate(724.161 2096.903)" fill="#1098e7"/><path d="M240,272h2.935v2.935H240Zm0,0" transform="translate(698.032 2096.903)" fill="#1098e7"/><path d="M272,272h2.935v2.935H272Zm0,0" transform="translate(671.903 2096.903)" fill="#1098e7"/><path d="M304,272h2.935v2.935H304Zm0,0" transform="translate(645.774 2096.903)" fill="#1098e7"/><path d="M336,272h2.935v2.935H336Zm0,0" transform="translate(619.645 2096.903)" fill="#1098e7"/><path d="M138.419,32H112V52.548h26.419Zm-2.935,17.613H114.935V34.935h20.548Zm0,0" transform="translate(802.548 2292.871)" fill="#1098e7"/><path d="M272,32h20.548v2.935H272Zm0,0" transform="translate(671.903 2292.871)" fill="#1098e7"/><path d="M272,64h20.548v2.935H272Zm0,0" transform="translate(671.903 2266.742)" fill="#1098e7"/><path d="M272,96h20.548v2.935H272Zm0,0" transform="translate(671.903 2240.613)" fill="#1098e7"/><path d="M272,128h20.548v2.935H272Zm0,0" transform="translate(671.903 2214.484)" fill="#1098e7"/><path d="M112,160h2.935v2.935H112Zm0,0" transform="translate(802.548 2188.355)" fill="#1098e7"/><path d="M144,160h44.032v2.935H144Zm0,0" transform="translate(776.419 2188.355)" fill="#1098e7"/><path d="M112,192h49.9v2.935H112Zm0,0" transform="translate(802.548 2162.226)" fill="#1098e7"/></g></svg>