<svg xmlns="http://www.w3.org/2000/svg" width="101" height="101" viewBox="0 0 101 101"><g transform="translate(-512 -2314)"><path d="M101,42.355H97.34l-5.456,2.871a8.1,8.1,0,0,0-1.942-.8L83.079,42.71v-.78a11.44,11.44,0,0,0,4.889-9.349V29.733A11.7,11.7,0,0,0,76.915,17.924c-.309-.008-.614,0-.92.018l1.779-4.166L69.147,5.153l-5.085,3.31a27.555,27.555,0,0,0-6.1-2.529L56.708,0H44.293L43.037,5.935a27.523,27.523,0,0,0-6.1,2.529l-5.085-3.31-8.619,8.619,1.749,4.169c-.067,0-.13-.015-.2-.017a11.408,11.408,0,0,0-11.755,11.4v3.258a11.435,11.435,0,0,0,4.887,9.347v.782l-4.477,1.119L5.328,39.1H0V72.853l16.026,5.341h3.121l.39-1.365,4.913,2.949a5.072,5.072,0,0,0,4.891,4.914,5.072,5.072,0,0,0,4.887,4.887,5.072,5.072,0,0,0,4.887,4.887,5.066,5.066,0,0,0,7.922,4.022l1.443,1.274A4.96,4.96,0,0,0,51.757,101h.3a4.96,4.96,0,0,0,4.951-4.893A4.955,4.955,0,0,0,61.9,91.22a4.955,4.955,0,0,0,4.887-4.892,5.009,5.009,0,0,0,4.893-5,4.768,4.768,0,0,0-.025-.488L101,66.169ZM84.71,29.733v2.848a8.177,8.177,0,0,1-4.077,7.049l-.815.471.006,5.155,8.139,2.033L70.048,56.718V52.33a8.105,8.105,0,0,0-2.333-5.677l5.591-1.4V40.1l-.813-.47a8.168,8.168,0,0,1-4.074-7.046V29.323a8.145,8.145,0,0,1,8.4-8.14,8.423,8.423,0,0,1,7.893,8.551Zm-31.754,25.7L45.582,53.08A20.117,20.117,0,0,0,35.143,52.6l-.934.207V52.33a4.884,4.884,0,0,1,3.7-4.742l9.331-2.331V40.1l-.813-.47a8.168,8.168,0,0,1-4.074-7.046V29.323a8.145,8.145,0,0,1,8.4-8.14,8.423,8.423,0,0,1,7.893,8.551v2.848a8.177,8.177,0,0,1-4.077,7.049l-.815.471.006,5.155,9.33,2.331a4.884,4.884,0,0,1,3.7,4.742v6.1l-.4.212h-1L55.374,55.783a10.268,10.268,0,0,0-2.418-.346ZM34.575,24.381a17.907,17.907,0,0,1,31.784-.131,11.33,11.33,0,0,0-1.2,5.072v3.258a11.435,11.435,0,0,0,4.887,9.347v.782l-6.516,1.631L57.014,42.71v-.78A11.44,11.44,0,0,0,61.9,32.581V29.733A11.7,11.7,0,0,0,50.85,17.924,11.405,11.405,0,0,0,39.1,29.322v3.258a11.435,11.435,0,0,0,4.887,9.347v.782l-6.516,1.631L30.95,42.71v-.78a11.44,11.44,0,0,0,4.889-9.349V29.733a12.007,12.007,0,0,0-1.264-5.352Zm-7.492-9.852,5.2-5.2,4.581,2.981.877-.538A24.309,24.309,0,0,1,44.8,8.843l1-.24,1.133-5.344h7.133L55.2,8.6l1,.239a24.333,24.333,0,0,1,7.054,2.926l.877.538,4.581-2.981,5.2,5.2-1.848,4.326a11.386,11.386,0,0,0-3.439,2.286c-.067.065-.124.135-.189.2a21.156,21.156,0,0,0-35.93.1,11.49,11.49,0,0,0-3.594-2.548ZM21.177,45.256V40.1l-.813-.47a8.168,8.168,0,0,1-4.074-7.046V29.323a8.145,8.145,0,0,1,8.4-8.14,8.423,8.423,0,0,1,7.893,8.551v2.848A8.177,8.177,0,0,1,28.5,39.63l-.815.471.006,5.155,5.589,1.4a8.105,8.105,0,0,0-2.333,5.677v1.207l-5.081,1.13L26,54.2l.062-3.011-8.591-5.012Zm-17.919-2.9H4.445l11.716,6.834L10.25,72.834,3.258,70.5Zm13.3,32.581-3.206-1.068L19.091,50.9l3.715,2.167v.465L16.691,74.936Zm11.139,4.69a1.839,1.839,0,0,1,.535-1.292l2.864-2.864a1.827,1.827,0,0,1,2.584,2.584l-2.864,2.864a1.827,1.827,0,0,1-3.118-1.292Zm4.887,4.887a1.839,1.839,0,0,1,.535-1.292l2.864-2.864a1.827,1.827,0,0,1,2.584,2.584L35.7,85.8a1.827,1.827,0,0,1-3.118-1.292ZM37.468,89.4A1.839,1.839,0,0,1,38,88.108l2.864-2.864a1.827,1.827,0,0,1,2.584,2.584l-2.864,2.864A1.827,1.827,0,0,1,37.468,89.4Zm6.713,6.713A1.827,1.827,0,0,1,42.889,93l2.864-2.864a1.827,1.827,0,0,1,2.584,2.584l-2.864,2.864A1.839,1.839,0,0,1,44.181,96.113Zm7.878,1.629h-.3a1.688,1.688,0,0,1-1.122-.426l-1.219-1.075,1.223-1.223A5.065,5.065,0,0,0,51.666,93.5l1.481,1.233a1.7,1.7,0,0,1-1.088,3ZM66.668,83.081h-.282a1.748,1.748,0,0,1-1.121-.407l-8.834-7.362-2.087,2.5,8.579,7.148a1.7,1.7,0,0,1-1.09,3h-.356a1.7,1.7,0,0,1-1.087-.395L51.543,80.2l-2.087,2.5,8.579,7.149a1.7,1.7,0,0,1-1.088,3,2.691,2.691,0,0,1-1.714-.62L51.6,89.2a5.068,5.068,0,0,0-4.374-2.847,5.072,5.072,0,0,0-4.887-4.887,5.072,5.072,0,0,0-4.887-4.887,5.072,5.072,0,0,0-8.66-3.416L25.924,76.03a5.02,5.02,0,0,0-.457.558l-5-3,4.387-15.353,11-2.445a16.782,16.782,0,0,1,8.74.4l2.4.768-8.136,4.068A5.43,5.43,0,0,0,35.839,65.9v.322A5.456,5.456,0,0,0,44.1,70.9l6.066-3.638a3.363,3.363,0,0,1,3.906.376L67.839,80.025a1.753,1.753,0,0,1-1.172,3.056ZM97.742,64.154,70.3,77.878c-.089-.095-.182-.185-.28-.272L56.256,65.219a6.556,6.556,0,0,0-7.764-.751l-6.068,3.639A2.2,2.2,0,0,1,39.1,66.22V65.9a2.186,2.186,0,0,1,1.215-1.966L49.4,59.388a7.08,7.08,0,0,1,5.077-.471l10.237,2.924,2.479.062L97.742,45.825Zm0,0" transform="translate(512 2314)" fill="#1098e7"/></g></svg>