<svg xmlns="http://www.w3.org/2000/svg" width="24.779" height="24.777" viewBox="0 0 24.779 24.777"><g transform="translate(0)"><g transform="translate(11.898 16.386)"><path d="M246.338,343.384a.484.484,0,0,1-.484-.484v-3.844a.484.484,0,1,1,.968,0V342.9A.484.484,0,0,1,246.338,343.384Z" transform="translate(-245.854 -338.572)" fill="#cee9ff"/></g><path d="M174.587,447.092a11.441,11.441,0,0,1-10.414,1.431.484.484,0,0,0-.325.912,12.409,12.409,0,0,0,11.3-1.552.484.484,0,1,0-.559-.79Z" transform="translate(-155.612 -425.37)" fill="#cee9ff"/><path d="M101.672,3.249a.482.482,0,0,0,.285-.093,11.436,11.436,0,0,1,11-1.361.484.484,0,1,0,.362-.9,12.4,12.4,0,0,0-11.93,1.477.484.484,0,0,0,.286.875Z" transform="translate(-96.291 0)" fill="#cee9ff"/><path d="M387.671,39.261a2.026,2.026,0,1,0-.728.643,11.434,11.434,0,0,1,1.417,11.109.484.484,0,1,0,.9.365,12.4,12.4,0,0,0-1.586-12.117Zm-2.423-.4a1.065,1.065,0,1,1,1.506,0A1.066,1.066,0,0,1,385.248,38.856Z" transform="translate(-365.386 -34.326)" fill="#cee9ff"/><path d="M4.358,180.753a1.83,1.83,0,0,0-.862.214.483.483,0,0,0-.048-.074A11.439,11.439,0,0,1,1.53,170.24a.484.484,0,1,0-.92-.3A12.407,12.407,0,0,0,2.69,181.5a.482.482,0,0,0,.118.106,1.839,1.839,0,1,0,1.55-.848Zm.616,2.455h0a.871.871,0,1,1,.255-.616A.865.865,0,0,1,4.974,183.208Z" transform="translate(0 -161.397)" fill="#cee9ff"/><path d="M72.534,73.018a.484.484,0,1,0-.342-.142A.487.487,0,0,0,72.534,73.018Z" transform="translate(-68.563 -68.563)" fill="#cee9ff"/><path d="M420.434,419.95a.484.484,0,1,0,.342.142A.488.488,0,0,0,420.434,419.95Z" transform="translate(-399.626 -399.626)" fill="#cee9ff"/><path d="M74,82.808a8.818,8.818,0,0,0,8.8,8.808h.011A8.808,8.808,0,1,0,74,82.808Zm6.842-1.154h3.271a2,2,0,0,0,.662-.113v1.311a1.966,1.966,0,0,1-3.933,0Zm4.31-2.008a1.041,1.041,0,0,1-1.04,1.04H80.842v-.653a1.527,1.527,0,0,1,1.525-1.525h2.785v1.138Zm2.733,9.131a7.807,7.807,0,0,1-4.365,1.838l1.7-4.395,1.57.343a1.4,1.4,0,0,1,1.094,1.36v.854Zm-5.077-2.99a2.921,2.921,0,0,0,1-.175,1.125,1.125,0,0,0,.466.378l-1.47,3.8-1.47-3.8a1.125,1.125,0,0,0,.468-.383A2.921,2.921,0,0,0,82.808,85.787Zm-2.426.434,1.7,4.393a7.807,7.807,0,0,1-4.35-1.837v-.855a1.4,1.4,0,0,1,1.094-1.359Zm10.266-3.413a7.8,7.8,0,0,1-1.8,4.992A2.375,2.375,0,0,0,87,85.619l-2.315-.506h0a2.929,2.929,0,0,0,1.063-2.259V80.816a2,2,0,0,0,.377-1.169V78.025a.484.484,0,0,0-.484-.484H82.367a2.5,2.5,0,0,0-2.493,2.493V81.17a.452.452,0,0,1,0,.16v1.522a2.929,2.929,0,0,0,1.06,2.256l-.013,0-2.3.505a2.375,2.375,0,0,0-1.85,2.182,7.839,7.839,0,1,1,13.881-4.992Z" transform="translate(-70.419 -70.419)" fill="#cee9ff"/></g></svg>