<svg xmlns="http://www.w3.org/2000/svg" width="75.251" height="86.4" viewBox="0 0 75.251 86.4"><g transform="translate(-898 -2757)"><path d="M63.287,0H11.148V16.723H0v62.71A6.976,6.976,0,0,0,6.968,86.4H68.284a6.976,6.976,0,0,0,6.968-6.968V11.965ZM64.1,4.758l6.391,6.391H64.1ZM6.968,83.613a4.186,4.186,0,0,1-4.181-4.181V19.51h8.361v5.574H5.574V75.252H8.361V27.871h2.787V79.432A4.186,4.186,0,0,1,6.968,83.613Zm61.316,0H12.539a6.94,6.94,0,0,0,1.4-4.181V2.787H61.316V13.936H72.464v65.5a4.186,4.186,0,0,1-4.181,4.181Zm0,0" transform="translate(898 2757)" fill="#1098e7"/><path d="M32,448h2.787v2.787H32Zm0,0" transform="translate(871.574 2387.039)" fill="#1098e7"/><path d="M96,371.51h27.871V352H96Zm2.787-16.723h22.3v13.936h-22.3Zm0,0" transform="translate(818.723 2466.316)" fill="#1098e7"/><path d="M272,352h22.3v2.787H272Zm0,0" transform="translate(673.381 2466.316)" fill="#1098e7"/><path d="M272,384h22.3v2.787H272Zm0,0" transform="translate(673.381 2439.891)" fill="#1098e7"/><path d="M272,416h22.3v2.787H272Zm0,0" transform="translate(673.381 2413.465)" fill="#1098e7"/><path d="M384,448h2.787v2.787H384Zm0,0" transform="translate(580.89 2387.039)" fill="#1098e7"/><path d="M272,448h16.723v2.787H272Zm0,0" transform="translate(673.381 2387.039)" fill="#1098e7"/><path d="M240,227.51h27.871V208H240Zm2.787-16.723h22.3v13.935h-22.3Zm0,0" transform="translate(699.806 2585.232)" fill="#1098e7"/><path d="M96,208h22.3v2.787H96Zm0,0" transform="translate(818.723 2585.232)" fill="#1098e7"/><path d="M96,240h22.3v2.787H96Zm0,0" transform="translate(818.723 2558.807)" fill="#1098e7"/><path d="M96,272h22.3v2.787H96Zm0,0" transform="translate(818.723 2532.381)" fill="#1098e7"/><path d="M96,304h16.723v2.787H96Zm0,0" transform="translate(818.723 2505.955)" fill="#1098e7"/><path d="M208,304h2.787v2.787H208Zm0,0" transform="translate(726.232 2505.955)" fill="#1098e7"/><path d="M123.871,55.686a6.967,6.967,0,0,0-5.031-6.67l-4.724-1.349V47.3a6.975,6.975,0,0,0,2.787-5.545v-2.5a7.17,7.17,0,0,0-6.349-7.23,6.968,6.968,0,0,0-7.586,6.941v2.787a6.975,6.975,0,0,0,2.787,5.545v.372l-4.724,1.349A6.967,6.967,0,0,0,96,55.686V57.08h27.871Zm-24.84-1.394A4.162,4.162,0,0,1,101.8,51.7l6.745-1.929V45.75l-.693-.4a4.136,4.136,0,0,1-2.094-3.6V38.964a4.189,4.189,0,0,1,1.357-3.082,4.146,4.146,0,0,1,3.2-1.081,4.367,4.367,0,0,1,3.8,4.452v2.5a4.136,4.136,0,0,1-2.094,3.6l-.693.4v4.019l6.745,1.929a4.168,4.168,0,0,1,2.767,2.595Zm0,0" transform="translate(818.723 2730.578)" fill="#1098e7"/><path d="M232,32h18.116v2.787H232Zm0,0" transform="translate(706.413 2730.574)" fill="#1098e7"/><path d="M232,64h18.116v2.787H232Zm0,0" transform="translate(706.413 2704.149)" fill="#1098e7"/><path d="M232,96h29.264v2.787H232Zm0,0" transform="translate(706.413 2677.723)" fill="#1098e7"/><path d="M272,128h22.3v2.787H272Zm0,0" transform="translate(673.381 2651.297)" fill="#1098e7"/><path d="M384,160h2.787v2.787H384Zm0,0" transform="translate(580.89 2624.871)" fill="#1098e7"/><path d="M272,160h16.723v2.787H272Zm0,0" transform="translate(673.381 2624.871)" fill="#1098e7"/></g></svg>