<svg xmlns="http://www.w3.org/2000/svg" width="24.778" height="19.359" viewBox="0 0 24.778 19.359"><g transform="translate(0 0)"><path d="M24.778-3.873a.484.484,0,0,0-.483-.459H.484A.484.484,0,0,0,0-3.873c0,.008,0,.016,0,.025v18.39a.484.484,0,0,0,.484.484H24.295a.484.484,0,0,0,.484-.484V-3.848C24.779-3.856,24.779-3.864,24.778-3.873Zm-23.81.5H23.811v2.233H.968ZM23.811,14.058H.968V-.169H23.811Zm0,0" transform="translate(0 4.332)" fill="#cee9ff"/><path d="M105.606,38.687h-3.872a.484.484,0,0,1,0-.968h3.872a.484.484,0,0,1,0,.968Zm0,0" transform="translate(-97.33 -36.091)" fill="#cee9ff"/><path d="M51.754,38.687a.484.484,0,0,1,0-.968h0a.484.484,0,0,1,0,.968Zm0,0" transform="translate(-49.284 -36.091)" fill="#cee9ff"/><path d="M79.119,296.733H75.054a.484.484,0,0,1,0-.968h4.065a.484.484,0,0,1,0,.968Zm0,0" transform="translate(-71.683 -284.146)" fill="#cee9ff"/><path d="M79.119,346.98H75.054a.484.484,0,0,1,0-.968h4.065a.484.484,0,0,1,0,.968Zm0,0" transform="translate(-71.683 -332.447)" fill="#cee9ff"/><path d="M79.119,397.23H75.054a.484.484,0,0,1,0-.968h4.065a.484.484,0,0,1,0,.968Zm0,0" transform="translate(-71.683 -380.752)" fill="#cee9ff"/><path d="M81.893,157.307a2.324,2.324,0,1,1,2.323-2.323A2.326,2.326,0,0,1,81.893,157.307Zm0-3.679a1.355,1.355,0,1,0,1.355,1.356A1.357,1.357,0,0,0,81.893,153.628Zm0,0" transform="translate(-76.489 -146.582)" fill="#cee9ff"/><path d="M259.549,296.733h-4.065a.484.484,0,0,1,0-.968h4.065a.484.484,0,0,1,0,.968Zm0,0" transform="translate(-245.127 -284.146)" fill="#cee9ff"/><path d="M259.549,346.98h-4.065a.484.484,0,0,1,0-.968h4.065a.484.484,0,0,1,0,.968Zm0,0" transform="translate(-245.127 -332.447)" fill="#cee9ff"/><path d="M259.549,397.23h-4.065a.484.484,0,0,1,0-.968h4.065a.484.484,0,0,1,0,.968Zm0,0" transform="translate(-245.127 -380.752)" fill="#cee9ff"/><path d="M262.323,157.307a2.324,2.324,0,1,1,2.323-2.323A2.326,2.326,0,0,1,262.323,157.307Zm0-3.679a1.355,1.355,0,1,0,1.355,1.356A1.357,1.357,0,0,0,262.323,153.628Zm0,0" transform="translate(-249.934 -146.582)" fill="#cee9ff"/><path d="M440.088,296.733h-4.065a.484.484,0,0,1,0-.968h4.065a.484.484,0,0,1,0,.968Zm0,0" transform="translate(-418.676 -284.146)" fill="#cee9ff"/><path d="M440.088,346.98h-4.065a.484.484,0,0,1,0-.968h4.065a.484.484,0,0,1,0,.968Zm0,0" transform="translate(-418.676 -332.447)" fill="#cee9ff"/><path d="M440.088,397.23h-4.065a.484.484,0,0,1,0-.968h4.065a.484.484,0,0,1,0,.968Zm0,0" transform="translate(-418.676 -380.752)" fill="#cee9ff"/><path d="M442.862,157.307a2.324,2.324,0,1,1,2.323-2.323A2.326,2.326,0,0,1,442.862,157.307Zm0-3.679a1.355,1.355,0,1,0,1.355,1.356A1.357,1.357,0,0,0,442.862,153.628Zm0,0" transform="translate(-423.483 -146.582)" fill="#cee9ff"/></g></svg>