<svg xmlns="http://www.w3.org/2000/svg" width="38.009" height="32.584" viewBox="0 0 38.009 32.584">
  <g id="Group_2013" data-name="Group 2013" transform="translate(-527.579 -246.51)">
    <g id="Group_2012" data-name="Group 2012">
      <path id="Path_3147" data-name="Path 3147" d="M542.5,258.968a.313.313,0,0,1,.335-.291h12.313v-6.795H528.683V274.1H542.5V258.968Z" fill="none"/>
      <rect id="Rectangle_1097" data-name="Rectangle 1097" width="11.957" height="11.762" transform="translate(543.188 262.34)" fill="none"/>
      <path id="Path_3148" data-name="Path 3148" d="M555.145,247.614h-26.46l0,3.415h26.462Zm-6.208,2.017-.285.1-.31-.1a.431.431,0,0,1-.129-.31l.129-.285.008-.009a.415.415,0,0,1,.587-.016l.129.31Zm2.07.107h-.057a.443.443,0,1,1,.057,0Zm2.636-.108-.31.1a.452.452,0,0,1-.31-.1.413.413,0,0,1-.1-.31l.1-.31a.445.445,0,0,1,.62.025l.1.285A.409.409,0,0,1,553.643,249.63Z" fill="none"/>
      <rect id="Rectangle_1098" data-name="Rectangle 1098" width="11.958" height="2.442" transform="translate(543.187 259.288)" fill="none"/>
      <path id="Path_3149" data-name="Path 3149" d="M555.585,274.956h-12.4v3.277h21.46V262.34H556v12.176A.431.431,0,0,1,555.585,274.956Z" fill="none"/>
      <path id="Path_3150" data-name="Path 3150" d="M564.646,261.73v-2.442H556v2.442Zm-1.444-1.436a.32.32,0,0,1,.446.023l.074.2a.3.3,0,0,1-.074.223l-.223.074a.329.329,0,0,1-.223-.074.3.3,0,0,1-.074-.223Zm-1.45-.071a.3.3,0,0,1,0,.6.328.328,0,0,1-.077,0,.3.3,0,0,1,.077-.6Zm-2.566.084a.3.3,0,0,1,.424-.014l.093.223-.1.223-.2.074-.223-.074a.307.307,0,0,1-.093-.223l.093-.2Z" fill="none"/>
      <path id="Path_3151" data-name="Path 3151" d="M528.683,274.1v-22.22h26.462v6.795H556v-11.5a.409.409,0,0,0-.4-.414H528.243a.409.409,0,0,0-.414.4v27.352a.431.431,0,0,0,.414.44H542.5V274.1Zm0-26.488h26.46v3.415H528.683Z" fill="#0074cf" stroke="#0074cf" stroke-width="0.5"/>
      <path id="Path_3152" data-name="Path 3152" d="M553.023,249.01l-.1.31a.413.413,0,0,0,.1.31.452.452,0,0,0,.31.1l.31-.1a.409.409,0,0,0,.1-.31l-.1-.285A.445.445,0,0,0,553.023,249.01Z" fill="#0074cf" stroke="#0074cf" stroke-width="0.5"/>
      <path id="Path_3153" data-name="Path 3153" d="M551.007,248.91a.415.415,0,1,0-.057.828h.057a.414.414,0,0,0,0-.828Z" fill="#0074cf" stroke="#0074cf" stroke-width="0.5"/>
      <path id="Path_3154" data-name="Path 3154" d="M548.35,249.027l-.008.009-.129.285a.431.431,0,0,0,.129.31l.31.1.285-.1.129-.31-.129-.31A.415.415,0,0,0,548.35,249.027Z" fill="#0074cf" stroke="#0074cf" stroke-width="0.5"/>
      <path id="Path_3155" data-name="Path 3155" d="M565.007,258.676H556v.611h8.647v2.442H556v.61h8.649v15.893h-21.46v-3.277H542.5v3.573a.329.329,0,0,0,.336.315H565a.329.329,0,0,0,.336-.315V258.973A.314.314,0,0,0,565.007,258.676Z" fill="#0074cf" stroke="#0074cf" stroke-width="0.5"/>
      <path id="Path_3156" data-name="Path 3156" d="M555.145,262.34v-.61H543.188l0-2.442h11.959v-.611H542.832a.313.313,0,0,0-.335.291V274.1h.692V262.34Z" fill="#0074cf" stroke="#0074cf" stroke-width="0.5"/>
      <rect id="Rectangle_1099" data-name="Rectangle 1099" width="0.854" height="0.611" transform="translate(555.145 258.677)" fill="#0074cf" stroke="#0074cf" stroke-width="0.5"/>
      <rect id="Rectangle_1100" data-name="Rectangle 1100" width="0.854" height="0.61" transform="translate(555.145 261.73)" fill="#0074cf" stroke="#0074cf" stroke-width="0.5"/>
      <rect id="Rectangle_1101" data-name="Rectangle 1101" width="0.692" height="0.854" transform="translate(542.496 274.102)" fill="#0074cf" stroke="#0074cf" stroke-width="0.5"/>
      <path id="Path_3157" data-name="Path 3157" d="M563.425,260.814l.223-.074a.3.3,0,0,0,.074-.223l-.074-.2a.32.32,0,0,0-.446-.023l-.074.223a.3.3,0,0,0,.074.223A.329.329,0,0,0,563.425,260.814Z" fill="#0074cf" stroke="#0074cf" stroke-width="0.5"/>
      <path id="Path_3158" data-name="Path 3158" d="M561.675,260.818a.328.328,0,0,0,.077,0,.3.3,0,1,0-.077,0Z" fill="#0074cf" stroke="#0074cf" stroke-width="0.5"/>
      <path id="Path_3159" data-name="Path 3159" d="M559.178,260.739l.223.074.2-.074.1-.223-.093-.223a.3.3,0,0,0-.424.014l-.008.009-.093.2A.307.307,0,0,0,559.178,260.739Z" fill="#0074cf" stroke="#0074cf" stroke-width="0.5"/>
    </g>
    <path id="Union_2" data-name="Union 2" d="M532.868,271.265h-.92a.68.68,0,0,1,0-1.359h7.71a.68.68,0,1,1,0,1.359Zm0-3.667h-.92a.679.679,0,0,1,0-1.359h7.71a.679.679,0,1,1,0,1.359Zm0-3.666h-.92a.68.68,0,0,1,0-1.36h7.71a.68.68,0,0,1,0,1.36Zm0-3.667h-.92a.68.68,0,0,1,0-1.359h7.71a.68.68,0,1,1,0,1.359Z" fill="#0074cf"/>
    <path id="Union_4" data-name="Union 4" d="M545.7,256.6h-13.75a.679.679,0,0,1,0-1.359h20.544a.679.679,0,1,1,0,1.359Z" fill="#0074cf"/>
    <g id="Group_2026" data-name="Group 2026">
      <g id="Group_2024" data-name="Group 2024">
        <path id="Path_3151-2" data-name="Path 3151" d="M561.729,266.065h-.951v.635h-.8v-.635h-.582l-1.57,2.059-1.571-2.059h-2.334l2.733,3.594-2.733,3.593h2.334l1.571-2.059,1.57,2.059h2.334l-2.733-3.593Z" fill="#0074cf"/>
        <rect id="Rectangle_1097-2" data-name="Rectangle 1097" width="0.802" height="0.638" transform="translate(559.976 265.423)" fill="#0074cf"/>
        <rect id="Rectangle_1098-2" data-name="Rectangle 1098" width="0.551" height="0.551" transform="translate(560.779 264.873)" fill="#0074cf"/>
        <rect id="Rectangle_1099-2" data-name="Rectangle 1099" width="0.551" height="0.551" transform="translate(559.426 264.873)" fill="#0074cf"/>
      </g>
      <g id="Group_2025" data-name="Group 2025">
        <rect id="Rectangle_1100-2" data-name="Rectangle 1100" width="0.891" height="0.664" transform="translate(548.261 275.1)" fill="#0074cf"/>
        <path id="Path_3152-2" data-name="Path 3152" d="M553.956,268.27a3.67,3.67,0,0,0-.746-1.145,3.55,3.55,0,0,0-1.115-.775,3.432,3.432,0,0,0-2.735,0c-.072.032-.14.069-.209.1v-.4h-1.935V275.1h1.043v-.766h.892v-1.472a3.533,3.533,0,0,0,.751.278,3.433,3.433,0,0,0,.832.1,3.34,3.34,0,0,0,1.362-.277,3.486,3.486,0,0,0,1.114-.764,3.662,3.662,0,0,0,.747-3.928Zm-5.7,6.06h-.664v-.518h.664Zm3.914-4.042a1.61,1.61,0,0,1-.336.514,1.654,1.654,0,0,1-.5.351,1.439,1.439,0,0,1-.606.13,1.5,1.5,0,0,1-.62-.13,1.622,1.622,0,0,1-.962-1.49,1.66,1.66,0,0,1,.122-.634,1.62,1.62,0,0,1,.338-.515,1.569,1.569,0,0,1,.5-.344,1.537,1.537,0,0,1,.62-.125,1.472,1.472,0,0,1,.606.125,1.581,1.581,0,0,1,.834.859,1.643,1.643,0,0,1,.122.634,1.611,1.611,0,0,1-.12.625Z" fill="#0074cf"/>
        <rect id="Rectangle_1101-2" data-name="Rectangle 1101" width="1.043" height="0.699" transform="translate(547.218 275.764)" fill="#0074cf"/>
      </g>
    </g>
  </g>
</svg>
