<svg xmlns="http://www.w3.org/2000/svg" width="24.18" height="24.18" viewBox="0 0 24.18 24.18"><g transform="translate(0 -0.001)"><g transform="translate(11.901 4.722)"><path d="M252.472,100a.472.472,0,1,0,.472.472A.472.472,0,0,0,252.472,100Z" transform="translate(-252 -99.999)" fill="#cee9ff"/></g><g transform="translate(0)"><path d="M23.822,9.931l-1.762-.44a9.758,9.758,0,0,0-1.2-2.9L21.8,5.037a.472.472,0,0,0-.071-.577l-2-2a.472.472,0,0,0-.577-.071l-1.553.932a9.759,9.759,0,0,0-2.9-1.2L14.249.358A.472.472,0,0,0,13.791,0H10.957A.472.472,0,0,0,10.5.358L10.053,2.14a9.76,9.76,0,0,0-2.864,1.2L5.6,2.385a.472.472,0,0,0-.577.071l-2,2a.472.472,0,0,0-.071.577L3.92,6.648A9.749,9.749,0,0,0,2.76,9.473L.925,9.931a.472.472,0,0,0-.358.458v2.834a.472.472,0,0,0,.358.458l1.855.464a9.79,9.79,0,0,0,1.146,2.77L1.361,19.48h0l-.667.668a2.361,2.361,0,1,0,3.339,3.339L4.7,22.82h0l2.565-2.565a9.8,9.8,0,0,0,2.77,1.146l.464,1.855a.472.472,0,0,0,.458.358h2.833a.472.472,0,0,0,.458-.358l.458-1.834a9.764,9.764,0,0,0,2.825-1.159l1.611.966a.472.472,0,0,0,.577-.071l2-2a.472.472,0,0,0,.071-.577l-.951-1.586a9.753,9.753,0,0,0,1.2-2.863l1.782-.446a.472.472,0,0,0,.358-.458V10.389A.472.472,0,0,0,23.822,9.931ZM3.364,22.819a1.416,1.416,0,1,1-2-2l.334-.334,2,2Zm3.5-3.5,0,0-2.5,2.5-2-2,2.5-2.5,0,0L6.9,15.281l0,0,1.641-1.641a4.263,4.263,0,0,0,2,2L8.9,17.282l0,0Zm6.664-8.07a.472.472,0,0,0-.6-.6L9.071,11.937c0-.043,0-.087,0-.131a3.306,3.306,0,1,1,3.306,3.306l-.131,0Zm-2.2,3.6-.07.07a3.31,3.31,0,0,1-2-2l.07-.07,3.005-1Zm11.9-2h0l-1.707.427a.472.472,0,0,0-.348.361,8.824,8.824,0,0,1-1.287,3.079.472.472,0,0,0-.012.5l.913,1.521-1.482,1.482L17.77,19.3a.472.472,0,0,0-.5.009,8.834,8.834,0,0,1-3.045,1.249.472.472,0,0,0-.363.348l-.44,1.76h-2.1l-.445-1.778a.472.472,0,0,0-.36-.347,8.876,8.876,0,0,1-2.566-.978L9.322,18.2A7.083,7.083,0,1,0,14.864,5.174a.472.472,0,1,0-.333.884,6.139,6.139,0,1,1-4.494,11.424l1.507-1.507A4.248,4.248,0,1,0,8.2,12.636L6.7,14.143a6.137,6.137,0,0,1,3.519-8.085.472.472,0,1,0-.333-.884,7.081,7.081,0,0,0-3.9,9.684L4.615,16.225a8.872,8.872,0,0,1-.978-2.566.472.472,0,0,0-.347-.36l-1.778-.445v-2.1l1.76-.44a.472.472,0,0,0,.348-.364A8.819,8.819,0,0,1,4.87,6.91a.472.472,0,0,0,.009-.5L3.952,4.867,5.435,3.385l1.52.912a.472.472,0,0,0,.5-.012A8.831,8.831,0,0,1,10.538,3a.472.472,0,0,0,.361-.348L11.326.944h2.1l.422,1.689a.472.472,0,0,0,.364.348,8.832,8.832,0,0,1,3.115,1.285.473.473,0,0,0,.5.01l1.487-.892L20.8,4.867,19.9,6.354a.472.472,0,0,0,.01.5A8.831,8.831,0,0,1,21.2,9.972a.472.472,0,0,0,.348.364l1.688.422Z" transform="translate(-0.001)" fill="#cee9ff"/></g></g></svg>