<svg xmlns="http://www.w3.org/2000/svg" width="33.061" height="33.062" viewBox="0 0 33.061 33.062"><g transform="translate(0 0)"><path d="M32.47,36.163,25.857,29.55a2.027,2.027,0,0,0-2.863,0l-1.72,1.72a2.026,2.026,0,0,0-.512,1.993l-.649.649h0c-.461.461-3.33-.247-6.8-3.715S9.137,23.859,9.6,23.4h0l.649-.649a2.026,2.026,0,0,0,1.993-.512l1.72-1.72a2.027,2.027,0,0,0,0-2.863L7.348,11.04a2.025,2.025,0,0,0-2.863,0l-1.72,1.72a2.026,2.026,0,0,0-.512,1.993s-.55.555-.577.59C-.154,17.377-.5,20.579.715,24.406A28.847,28.847,0,0,0,7.924,35.586,28.851,28.851,0,0,0,19.1,42.8a13.991,13.991,0,0,0,4.193.713,6.973,6.973,0,0,0,5.1-1.889l.361-.361a2.032,2.032,0,0,0,.562.08,2.011,2.011,0,0,0,1.431-.593l1.72-1.72A2.027,2.027,0,0,0,32.47,36.163ZM5.916,12.471l6.613,6.613-1.719,1.721h0l-.025-.025L7.5,17.5,4.2,14.191ZM26.964,40.188h0c-1.456,1.456-4.031,1.7-7.248.677A26.809,26.809,0,0,1,9.356,34.154,26.808,26.808,0,0,1,2.645,23.795c-1.02-3.218-.779-5.792.677-7.249h0l.183-.183L8.638,21.5l-.471.471h0c-1.95,1.953.393,6.338,3.716,9.661,2.487,2.487,5.57,4.426,7.782,4.426a2.556,2.556,0,0,0,1.881-.71h0l.47-.47,5.132,5.132Zm2.355-.874L22.706,32.7l1.72-1.72,6.613,6.613S29.32,39.315,29.319,39.314Z" transform="translate(-0.002 -10.447)" fill="#fff"/></g></svg>