<svg xmlns="http://www.w3.org/2000/svg" width="67" height="59.862" viewBox="0 0 67 59.862"><g transform="translate(0 -27.274)"><g transform="translate(0 27.274)"><g transform="translate(0 0)"><path d="M65.7,27.274H1.3a1.3,1.3,0,0,0-1.3,1.3V44.308a1.3,1.3,0,0,0,1.3,1.3H65.7a1.3,1.3,0,0,0,1.3-1.3V28.572A1.3,1.3,0,0,0,65.7,27.274ZM43.234,43.01H2.6V29.87H43.233V43.01Zm21.171,0H45.829V29.87H64.4Z" transform="translate(0 -27.274)" fill="#4f4f4f"/><path d="M378.692,68.725a4.283,4.283,0,0,0,2.985-1.21l3.342,1.928a1.3,1.3,0,1,0,1.3-2.248l-3.4-1.963a4.3,4.3,0,1,0-4.222,3.492Zm0-6a1.7,1.7,0,1,1-1.7,1.7A1.705,1.705,0,0,1,378.692,62.722Z" transform="translate(-325.4 -55.828)" fill="#0074cf"/><path d="M42.828,90.615h14.6a1.3,1.3,0,1,0,0-2.6h-14.6a1.3,1.3,0,0,0,0,2.6Z" transform="translate(-36.095 -80.07)" fill="#0074cf"/><path d="M196.552,90.615h10.869a1.3,1.3,0,0,0,0-2.6H196.552a1.3,1.3,0,0,0,0,2.6Z" transform="translate(-169.703 -80.07)" fill="#0074cf"/><path d="M57.428,233.181a1.3,1.3,0,1,0,0-2.6h-14.6a1.3,1.3,0,1,0,0,2.6Z" transform="translate(-36.095 -203.98)" fill="#4f4f4f"/><path d="M207.42,233.181a1.3,1.3,0,1,0,0-2.6H196.551a1.3,1.3,0,1,0,0,2.6Z" transform="translate(-169.702 -203.98)" fill="#4f4f4f"/><path d="M3.777,230.586a1.3,1.3,0,1,0,.918.38A1.306,1.306,0,0,0,3.777,230.586Z" transform="translate(-2.155 -203.981)" fill="#4f4f4f"/><path d="M96.3,280.174H37.249a1.3,1.3,0,1,0,0,2.6H96.3a1.3,1.3,0,0,0,0-2.6Z" transform="translate(-31.246 -247.08)" fill="#4f4f4f"/><path d="M96.3,314.886H37.249a1.3,1.3,0,0,0,0,2.6H96.3a1.3,1.3,0,0,0,0-2.6Z" transform="translate(-31.246 -277.249)" fill="#4f4f4f"/><path d="M57.428,383.186a1.3,1.3,0,1,0,0-2.6h-14.6a1.3,1.3,0,1,0,0,2.6Z" transform="translate(-36.095 -334.355)" fill="#4f4f4f"/><path d="M207.42,383.186a1.3,1.3,0,1,0,0-2.6H196.551a1.3,1.3,0,1,0,0,2.6Z" transform="translate(-169.702 -334.355)" fill="#4f4f4f"/><path d="M3.777,380.591a1.3,1.3,0,1,0,.918.38A1.309,1.309,0,0,0,3.777,380.591Z" transform="translate(-2.155 -334.356)" fill="#4f4f4f"/><path d="M96.3,430.179H37.249a1.3,1.3,0,0,0,0,2.6H96.3a1.3,1.3,0,0,0,0-2.6Z" transform="translate(-31.246 -377.455)" fill="#4f4f4f"/><path d="M96.3,464.891H37.249a1.3,1.3,0,1,0,0,2.6H96.3a1.3,1.3,0,0,0,0-2.6Z" transform="translate(-31.246 -407.625)" fill="#4f4f4f"/></g></g></g></svg>