<svg xmlns="http://www.w3.org/2000/svg" width="20.491" height="31.812" viewBox="0 0 20.491 31.812"><g transform="translate(-84.128)"><path d="M102.605,0H86.142a2.016,2.016,0,0,0-2.014,2.014V29.8a2.016,2.016,0,0,0,2.014,2.014h16.463a2.016,2.016,0,0,0,2.014-2.014V2.014A2.016,2.016,0,0,0,102.605,0ZM85.137,5.062H103.61V26.1H85.137Zm1-4.053h16.463a1.006,1.006,0,0,1,1,1V4.389H85.137V2.014A1.006,1.006,0,0,1,86.142,1.009ZM102.605,30.8H86.142a1.006,1.006,0,0,1-1-1V26.773H103.61V29.8A1.006,1.006,0,0,1,102.605,30.8Z" transform="translate(0)" fill="#0878cf"/><path d="M213.495,404.552a1.653,1.653,0,1,0,1.653,1.653A1.655,1.655,0,0,0,213.495,404.552Zm0,2.633a.98.98,0,1,1,.98-.98A.981.981,0,0,1,213.495,407.185Z" transform="translate(-119.121 -377.333)" fill="#0878cf"/><path d="M197.742,38.318h4.575a.336.336,0,1,0,0-.673h-4.575a.336.336,0,0,0,0,.673Z" transform="translate(-105.656 -35.112)" fill="#0878cf"/><path d="M179.745,38.318a.335.335,0,1,0-.238-.1A.338.338,0,0,0,179.745,38.318Z" transform="translate(-88.87 -35.112)" fill="#0878cf"/></g></svg>