<svg xmlns="http://www.w3.org/2000/svg" width="36.243" height="26.133" viewBox="0 0 36.243 26.133"><g transform="translate(0 -58)"><path d="M30.935,62.948A18.688,18.688,0,0,0,18.122,58,18.687,18.687,0,0,0,5.308,62.948,16.229,16.229,0,0,0,0,74.894v8.579a.685.685,0,0,0,.708.66H35.535a.685.685,0,0,0,.708-.66V74.894A16.229,16.229,0,0,0,30.935,62.948ZM1.416,74.894c0-8.588,7.494-15.574,16.706-15.574s16.706,6.986,16.706,15.574v2.64h-11.8a4.515,4.515,0,0,0-1.47-2.666L24.9,62.65a.649.649,0,0,0-.412-.771.735.735,0,0,0-.879.267L15.836,74.1a4.659,4.659,0,0,0-2.619,3.437H1.416Zm18.9-.84a5.219,5.219,0,0,0-2.2-.48c-.1,0-.2,0-.3.009l4.523-6.959Zm14.509,8.759H1.416v-1.32H34.827Zm0-2.64H1.416v-1.32H13.874a.685.685,0,0,0,.708-.66,3.43,3.43,0,0,1,3.539-3.3,3.43,3.43,0,0,1,3.539,3.3.685.685,0,0,0,.708.66H34.827Z" transform="translate(0)" fill="#78add6"/><path d="M216.279,101.519a.68.68,0,0,0,.1-.007.652.652,0,1,0-.1.007Z" transform="translate(-200.315 -39.48)" fill="#78add6"/><path d="M274.985,101.236a.677.677,0,0,0,.09.006.648.648,0,1,0-.09-.006Z" transform="translate(-254.933 -39.221)" fill="#78add6"/><path d="M159.956,118.37a.638.638,0,0,0,.273-.061.647.647,0,1,0-.273.061Z" transform="translate(-147.991 -55.236)" fill="#78add6"/><path d="M380.677,149.062a.649.649,0,1,0-.068-.916A.649.649,0,0,0,380.677,149.062Z" transform="translate(-353.429 -83.982)" fill="#78add6"/><path d="M419.726,193.54a.649.649,0,1,0-.546-.3A.65.65,0,0,0,419.726,193.54Z" transform="translate(-388.865 -125.375)" fill="#78add6"/><path d="M444.269,246.959a.67.67,0,0,0,.184-.027.649.649,0,1,0-.184.027Z" transform="translate(-411.816 -175.265)" fill="#78add6"/><path d="M110.719,150.508a.649.649,0,1,0-.488-.221A.646.646,0,0,0,110.719,150.508Z" transform="translate(-102.251 -85.185)" fill="#78add6"/><path d="M80.649,150.074a.649.649,0,0,0,.649-.649A10.138,10.138,0,0,1,91.425,139.3a.649.649,0,0,0,0-1.3A11.438,11.438,0,0,0,80,149.425.649.649,0,0,0,80.649,150.074Z" transform="translate(-74.069 -74.644)" fill="#78add6"/><path d="M40.649,250.794a.649.649,0,0,0,.649-.649,12.738,12.738,0,0,1,.516-3.6.649.649,0,1,0-1.245-.367A14.034,14.034,0,0,0,40,250.144.649.649,0,0,0,40.649,250.794Z" transform="translate(-37.403 -175.274)" fill="#78add6"/><circle cx="0.649" cy="0.649" r="0.649" transform="translate(4.674 66.983)" fill="#78add6"/><circle cx="0.649" cy="0.649" r="0.649" transform="translate(32.348 74.248)" fill="#78add6"/><circle cx="0.649" cy="0.649" r="0.649" transform="translate(17.472 76.692)" fill="#78add6"/></g></svg>