<svg xmlns="http://www.w3.org/2000/svg" width="39.794" height="40.724" viewBox="0 0 39.794 40.724"><g transform="translate(-1698.636 -995.895)"><g transform="translate(1699.17 996.416)"><path d="M1710.088,1000.375c-.739.566-3.191-.858-3.191-1.915s2.453-2.481,3.191-1.915C1710.848,997.127,1710.848,999.792,1710.088,1000.375Z" transform="translate(-1701.965 -996.417)" fill="none" stroke="#d4f1ff" stroke-miterlimit="10" stroke-width="1"/><path d="M1704.1,999.618s-3.435.226-4.266,1.915c-2,4.071.893,15.144,3.627,18.51a8.892,8.892,0,0,0,6.383,3.191" transform="translate(-1699.17 -997.575)" fill="none" stroke="#d4f1ff" stroke-miterlimit="10" stroke-width="1"/><path d="M1725.574,1000.375c.739.566,3.191-.858,3.191-1.915s-2.453-2.481-3.191-1.915C1724.815,997.127,1724.815,999.792,1725.574,1000.375Z" transform="translate(-1708.515 -996.417)" fill="none" stroke="#d4f1ff" stroke-miterlimit="10" stroke-width="1"/><path d="M1727.641,999.618s3.435.226,4.266,1.915c2,4.071-.893,15.144-3.627,18.51a8.891,8.891,0,0,1-6.383,3.191" transform="translate(-1707.391 -997.575)" fill="none" stroke="#d4f1ff" stroke-miterlimit="10" stroke-width="1"/></g><circle cx="5.744" cy="5.744" r="5.744" transform="translate(1726.442 1024.629)" fill="none" stroke="#d4f1ff" stroke-miterlimit="10" stroke-width="1"/><circle cx="2.553" cy="2.553" r="2.553" transform="translate(1729.633 1027.82)" fill="none" stroke="#d4f1ff" stroke-miterlimit="10" stroke-width="1"/><path d="M1729.109,1049.618a5.106,5.106,0,0,1-10.212,0" transform="translate(-7.136 -19.245)" fill="none" stroke="#d4f1ff" stroke-miterlimit="10" stroke-width="1"/><path d="M1734.9,1037.724a5.106,5.106,0,1,1,10.212,0" transform="translate(-12.923 -13.095)" fill="none" stroke="#d4f1ff" stroke-miterlimit="10" stroke-width="1"/><line y2="5.744" transform="translate(1721.974 1024.629)" fill="none" stroke="#d4f1ff" stroke-miterlimit="10" stroke-width="2"/><line y2="8.298" transform="translate(1711.761 1023.352)" fill="none" stroke="#d4f1ff" stroke-miterlimit="10" stroke-width="1"/><path d="M1716.535,1035.618l-.638,1.276,1.915.585,1.915-.585-.638-1.276Z" transform="translate(-6.051 -14.18)" fill="none" stroke="#d4f1ff" stroke-miterlimit="10" stroke-width="1"/></g></svg>