<svg xmlns="http://www.w3.org/2000/svg" width="86.849" height="89.096" viewBox="0 0 86.849 89.096"><g transform="translate(-6.455)"><g transform="translate(6.455)"><g transform="translate(0)"><circle cx="1.905" cy="1.905" r="1.905" transform="translate(15.258 56.291)" fill="#0878cf"/><circle cx="1.905" cy="1.905" r="1.905" transform="translate(0 42.217)" fill="#0878cf"/><circle cx="1.905" cy="1.905" r="1.905" transform="translate(2.148 68.796)" fill="#0878cf"/><circle cx="1.905" cy="1.905" r="1.905" transform="translate(16.211 77.985)" fill="#0878cf"/><circle cx="1.905" cy="1.905" r="1.905" transform="translate(69.282 79.89)" fill="#0878cf"/><circle cx="1.905" cy="1.905" r="1.905" transform="translate(78.348 64.136)" fill="#0878cf"/><circle cx="1.905" cy="1.905" r="1.905" transform="translate(56.675 15.753)" fill="#0878cf"/><circle cx="1.905" cy="1.905" r="1.905" transform="translate(40.553 1.905)" fill="#0878cf"/><circle cx="1.905" cy="1.905" r="1.905" transform="translate(73.092 6.395)" fill="#0878cf"/><path d="M40.991,38.438l9.207,6.69a4.571,4.571,0,0,0,5.455,0,4.572,4.572,0,0,0,1.686-5.188L53.822,29.115l9.207-6.69A4.641,4.641,0,0,0,60.3,14.03H48.921L45.4,3.206a4.641,4.641,0,0,0-8.827,0L33.06,14.031H21.679a4.641,4.641,0,0,0-2.728,8.395l9.207,6.69L24.642,39.939a4.641,4.641,0,0,0,7.141,5.188ZM28.567,42.045a.783.783,0,0,1-.3-.929L32.21,28.976a1.905,1.905,0,0,0-.692-2.13l-10.327-7.5a.83.83,0,0,1,.488-1.5H34.444a1.9,1.9,0,0,0,1.812-1.316L40.2,4.384a.83.83,0,0,1,1.58,0l3.945,12.141a1.905,1.905,0,0,0,1.812,1.316H60.3a.83.83,0,0,1,.488,1.5l-10.327,7.5a1.905,1.905,0,0,0-.692,2.13l3.945,12.141a.831.831,0,0,1-1.278.929l-10.327-7.5a1.905,1.905,0,0,0-2.24,0l-10.327,7.5A.783.783,0,0,1,28.567,42.045Z" transform="translate(-15.189 0)" fill="#4f4f4f"/><path d="M188.537,311.567h-8.586L177.3,303.4a4.041,4.041,0,0,0-7.687,0l-2.653,8.165h-8.585A4.041,4.041,0,0,0,156,318.878l6.946,5.046-2.653,8.165a3.981,3.981,0,0,0,1.468,4.518,3.982,3.982,0,0,0,4.751,0l6.946-5.046,6.946,5.046a4.042,4.042,0,0,0,6.219-4.518l-2.653-8.165,6.946-5.046a4.042,4.042,0,0,0-2.375-7.311Zm.136,4.229-8.065,5.86a1.905,1.905,0,0,0-.692,2.13L183,333.267a.231.231,0,0,1-.356.259l-8.065-5.86a1.9,1.9,0,0,0-2.24,0l-8.065,5.86a.231.231,0,0,1-.356-.259l3.081-9.481a1.905,1.905,0,0,0-.692-2.13l-8.065-5.86a.231.231,0,0,1,.136-.418h9.969a1.905,1.905,0,0,0,1.812-1.316l3.081-9.482a.232.232,0,0,1,.44,0l3.081,9.482a1.906,1.906,0,0,0,1.812,1.316h9.969a.231.231,0,0,1,.136.418Z" transform="translate(-128.592 -248.299)" fill="#4f4f4f"/><path d="M353.068,136.089a3.6,3.6,0,0,0-3.479-2.528h-6.8l-2.1-6.464a3.658,3.658,0,0,0-6.958,0l-2.1,6.464h-6.8a3.658,3.658,0,0,0-2.15,6.618l5.5,4-2.1,6.464a3.6,3.6,0,0,0,1.329,4.09,3.6,3.6,0,0,0,4.3,0l5.5-4,5.5,4a3.658,3.658,0,0,0,5.629-4.09l-2.1-6.464,5.5-4A3.605,3.605,0,0,0,353.068,136.089Zm-10.187,5.816a1.905,1.905,0,0,0-.692,2.13l2.383,7.336-6.24-4.534a1.9,1.9,0,0,0-2.24,0l-6.24,4.534,2.383-7.336a1.905,1.905,0,0,0-.692-2.13l-6.24-4.534h7.714a1.905,1.905,0,0,0,1.812-1.316l2.384-7.336,2.383,7.336a1.905,1.905,0,0,0,1.812,1.316h7.714Z" transform="translate(-266.406 -102.892)" fill="#4f4f4f"/></g></g></g></svg>