<svg xmlns="http://www.w3.org/2000/svg" width="24.41" height="24.41" viewBox="0 0 24.41 24.41"><g transform="translate(0)"><path d="M22.007,0H2.412A2.414,2.414,0,0,0,0,2.412v15.8A2.386,2.386,0,0,0,2.384,20.6h6.46a1.194,1.194,0,0,1-1.168.954A2.148,2.148,0,0,0,5.53,23.695v.238a.477.477,0,0,0,.477.477H18.4a.477.477,0,0,0,.477-.477v-.238a2.148,2.148,0,0,0-2.145-2.145,1.194,1.194,0,0,1-1.168-.954h6.46a2.386,2.386,0,0,0,2.384-2.384V2.4A2.406,2.406,0,0,0,22.007,0Zm1.45,2.4V3.814H10.307L8.876.954h13.13A1.451,1.451,0,0,1,23.456,2.4Zm-22.5.009A1.46,1.46,0,0,1,2.412.954h5.4l.477.954h-4a.477.477,0,0,0,0,.954H8.764L9.585,4.5a.477.477,0,0,0,.426.264H23.456V16.782H.954Zm14,19.138H13.23a.477.477,0,1,0,0,.954h3.5a1.194,1.194,0,0,1,1.168.954H6.508A1.194,1.194,0,0,1,7.676,22.5,2.149,2.149,0,0,0,9.808,20.6H14.6A2.131,2.131,0,0,0,14.952,21.549Zm8.5-3.337a1.432,1.432,0,0,1-1.43,1.43H2.384a1.432,1.432,0,0,1-1.43-1.43v-.477h22.5Z" fill="#cee9ff"/><path d="M412.477,40.954a.477.477,0,1,0-.477-.477A.477.477,0,0,0,412.477,40.954Z" transform="translate(-392.358 -38.093)" fill="#cee9ff"/><path d="M452.477,40.954a.477.477,0,1,0-.477-.477A.477.477,0,0,0,452.477,40.954Z" transform="translate(-430.451 -38.093)" fill="#cee9ff"/><path d="M372.477,40.954a.477.477,0,1,0-.477-.477A.477.477,0,0,0,372.477,40.954Z" transform="translate(-354.265 -38.093)" fill="#cee9ff"/><path d="M227.977,452.954a.477.477,0,1,0-.477-.477A.478.478,0,0,0,227.977,452.954Z" transform="translate(-216.654 -430.451)" fill="#cee9ff"/><path d="M40.477,40a.477.477,0,1,0,.477.477A.478.478,0,0,0,40.477,40Z" transform="translate(-38.093 -38.093)" fill="#cee9ff"/><path d="M78.594,128.961a.487.487,0,0,0,.094-.292.481.481,0,0,0-.136-.325l0,0-.954-.954a.477.477,0,0,0-.674.674l.14.14H74.779v-7.723A.477.477,0,0,0,74.3,120H72.4a.477.477,0,0,0-.477.477V128.2h-.954v-3.337a.477.477,0,0,0-.477-.477H68.582a.477.477,0,0,0-.477.477V128.2h-.954v-5.244a.477.477,0,0,0-.477-.477H64.768a.477.477,0,0,0-.477.477V128.2h-.954v-1.907a.477.477,0,0,0-.477-.477H60.954a.477.477,0,0,0-.477.477V128.2a.477.477,0,0,0,0,.954H77.061l-.14.14a.477.477,0,1,0,.674.674l.954-.954,0,0A.454.454,0,0,0,78.594,128.961ZM61.43,128.2v-1.43h.954v1.43Zm3.814,0v-4.768H66.2V128.2Zm3.814,0V125.34h.954V128.2Zm3.814,0v-7.247h.954V128.2Z" transform="translate(-57.139 -114.279)" fill="#cee9ff"/></g></svg>