<svg xmlns="http://www.w3.org/2000/svg" width="36.241" height="33.746" viewBox="0 0 36.241 33.746"><g transform="translate(-1492.649 -594.622)"><line x2="3.646" transform="translate(1516.239 624.287)" fill="none" stroke="#0074cf" stroke-miterlimit="10" stroke-width="1"/><g transform="translate(1493.15 595.122)"><g transform="translate(0 19.897)"><path d="M1507.237,627.877l-7.865,1.768a4.406,4.406,0,0,0-3.114,1.292c-1.993,2-3.11,6.64-3.108,9.46" transform="translate(-1493.15 -627.872)" fill="none" stroke="#0074cf" stroke-miterlimit="10" stroke-width="1"/><path d="M1542.041,640.369c0-2.82-1.126-7.463-3.122-9.456a4.4,4.4,0,0,0-3.116-1.288l-7.868-1.756" transform="translate(-1506.799 -627.869)" fill="none" stroke="#0074cf" stroke-miterlimit="10" stroke-width="1"/><g transform="translate(10.321)"><path d="M1522.138,630.514l1.825,2.672,5.465-4.257-3.768-1.061Z" transform="translate(-1514.846 -627.869)" fill="none" stroke="#0074cf" stroke-miterlimit="10" stroke-width="1"/><path d="M1517.429,630.518l-1.821,2.675-5.472-4.249,3.766-1.066Z" transform="translate(-1510.136 -627.872)" fill="none" stroke="#0074cf" stroke-miterlimit="10" stroke-width="1"/><path d="M1522.9,644.52l-2.12-7.9-2.109,7.9" transform="translate(-1513.485 -631.304)" fill="none" stroke="#0074cf" stroke-miterlimit="10" stroke-width="1"/></g></g><path d="M1513.617,606.624v.608c-.778,0-.777,1.093-.776,2.261s-.073,2.114.706,2.114c.033,0,.04-.118.073-.121.456,3.224,2.486,5.77,4.876,5.768s4.395-2.551,4.845-5.775c.033,0,.04.122.073.122.779,0,.7-.947.7-2.115s0-2.26-.78-2.26v-.608" transform="translate(-1500.876 -599.633)" fill="none" stroke="#0074cf" stroke-miterlimit="10" stroke-width="1"/><g transform="translate(5.466 28.853)"><line x2="0.003" y2="3.646" transform="translate(24.304)" fill="none" stroke="#0074cf" stroke-miterlimit="10" stroke-width="1"/><line x2="0.003" y2="3.646" transform="translate(0 0.018)" fill="none" stroke="#0074cf" stroke-miterlimit="10" stroke-width="1"/></g><path d="M1516.566,601.806h-2.43l-.022-5.106c0-1.037.809-1.573,1.845-1.573l5.967,0c1.037,0,1.908.534,1.91,1.571l.022,5.113h-2.43" transform="translate(-1501.376 -595.122)" fill="none" stroke="#0074cf" stroke-miterlimit="10" stroke-width="1"/><circle cx="2.43" cy="2.43" r="2.43" transform="translate(15.19 3.038)" fill="none" stroke="#0074cf" stroke-miterlimit="10" stroke-width="1"/><line x2="1.215" transform="translate(17.013 5.469)" fill="none" stroke="#0074cf" stroke-miterlimit="10" stroke-width="1"/></g></g></svg>