<svg xmlns="http://www.w3.org/2000/svg" width="34.233" height="32.024" viewBox="0 0 34.233 32.024"><g transform="translate(0 -9.678)"><g transform="translate(0 9.678)"><g transform="translate(0 0)"><path d="M0,9.678V33.973H14.356v2.874l-5.8,1.338a1.782,1.782,0,0,0,.4,3.518h.19a1.791,1.791,0,0,0,.662-.127l5.2-2.082h4.2l5.2,2.082a1.789,1.789,0,0,0,.661.127h.19a1.783,1.783,0,0,0,.4-3.519l-5.8-1.337V33.972H34.233V9.678Zm14.356,28.89L9.4,40.55a.681.681,0,0,1-.252.049H8.96a.678.678,0,0,1-.152-1.338l5.549-1.28Zm4.417-1.977v1.8H15.46V33.973h3.313Zm6.653,2.668a.678.678,0,0,1-.153,1.338h-.19a.677.677,0,0,1-.252-.049l-4.954-1.982v-.589Zm7.7-6.392H1.1V30.66H33.129Zm0-3.313H1.1V10.782H33.129Z" transform="translate(0 -9.678)" fill="#d4f1ff"/><path d="M85.7,45.6a8.282,8.282,0,1,0-8.282-8.282A8.292,8.292,0,0,0,85.7,45.6Zm7.116-8.282L82.53,30.885a7.178,7.178,0,1,1,0,12.858ZM83.493,41.84V32.789l7.24,4.525Zm-1.1-10.887V43.676a7.167,7.167,0,0,1,0-12.723Z" transform="translate(-68.585 -26.823)" fill="#d4f1ff"/></g></g></g></svg>