<svg xmlns="http://www.w3.org/2000/svg" width="33.233" height="34.379" viewBox="0 0 33.233 34.379"><g transform="translate(-1)"><path d="M25.022,16H17v8.022h8.022Zm-1.146,6.876h-5.73v-5.73h5.73Z" transform="translate(-6.832 -6.832)" fill="#d4f1ff"/><path d="M44.741,16H35.573a.573.573,0,1,0,0,1.146h9.168a.573.573,0,1,0,0-1.146Z" transform="translate(-14.518 -6.832)" fill="#d4f1ff"/><path d="M44.741,22H35.573a.573.573,0,1,0,0,1.146h9.168a.573.573,0,1,0,0-1.146Z" transform="translate(-14.518 -9.394)" fill="#d4f1ff"/><path d="M44.741,28H35.573a.573.573,0,1,0,0,1.146h9.168a.573.573,0,1,0,0-1.146Z" transform="translate(-14.518 -11.956)" fill="#d4f1ff"/><path d="M37.482,34H18.573a.573.573,0,1,0,0,1.146H37.482a.573.573,0,0,0,0-1.146Z" transform="translate(-7.259 -14.518)" fill="#d4f1ff"/><path d="M27.168,40H18.573a.573.573,0,1,0,0,1.146h8.595a.573.573,0,1,0,0-1.146Z" transform="translate(-7.259 -17.08)" fill="#d4f1ff"/><path d="M27.168,46H18.573a.573.573,0,1,0,0,1.146h8.595a.573.573,0,1,0,0-1.146Z" transform="translate(-7.259 -19.643)" fill="#d4f1ff"/><path d="M27.168,52H18.573a.573.573,0,1,0,0,1.146h8.595a.573.573,0,1,0,0-1.146Z" transform="translate(-7.259 -22.205)" fill="#d4f1ff"/><path d="M39,48.022h8.022V40H39Zm1.146-6.876h5.73v5.73h-5.73Z" transform="translate(-16.226 -17.08)" fill="#d4f1ff"/><path d="M34.233,7.449c0-.01-.005-.018-.006-.028V0H6.73V17.19H1V30.941a3.441,3.441,0,0,0,3.438,3.438H30.8a3.436,3.436,0,0,0,3.432-3.432V7.476C34.228,7.467,34.233,7.459,34.233,7.449Zm-1.152-6.3v5.73H7.876V1.146ZM2.146,30.941V18.336H6.73V30.941a2.292,2.292,0,0,1-4.584,0ZM30.8,33.233H7c.009-.01.015-.022.024-.033a3.416,3.416,0,0,0,.319-.427c.015-.024.03-.048.045-.073a3.37,3.37,0,0,0,.242-.486c.009-.023.017-.047.026-.07a3.4,3.4,0,0,0,.156-.544c0-.017,0-.035.008-.052a3.421,3.421,0,0,0,.057-.607V8.022H33.082V30.947A2.289,2.289,0,0,1,30.8,33.233Z" fill="#d4f1ff"/><path d="M36.752,4H23V7.438H36.752ZM35.606,6.292H24.146V5.146h11.46Z" transform="translate(-9.394 -1.708)" fill="#d4f1ff"/></g></svg>