<svg xmlns="http://www.w3.org/2000/svg" width="26.688" height="32.009" viewBox="0 0 26.688 32.009"><g transform="translate(-1082.876 -998.038)"><path d="M1109.06,1004.423a6.253,6.253,0,0,0-1.6-4.28,4.808,4.808,0,0,0-3.745-1.6c-1.594,0-5.35,1.07-7.49,1.07-2.123,0-5.9-1.07-7.49-1.07a4.809,4.809,0,0,0-3.745,1.6,6.256,6.256,0,0,0-1.6,4.28,12.88,12.88,0,0,0,.535,4.28c.53,1.584,1.609,3.758,2.14,5.35s.011,3.745.558,5.93c.647,2.589,1.07,6.409,2.117,8.493a1.686,1.686,0,0,0,1.628,1.07,1.64,1.64,0,0,0,1.572-1.048c1.07-2.14,1.214-8.891,2.218-11.113a2.127,2.127,0,0,1,4.146,0c1,2.222,1.148,8.973,2.218,11.113a1.638,1.638,0,0,0,1.572,1.048,1.686,1.686,0,0,0,1.627-1.07c1.048-2.084,1.471-5.9,2.118-8.493.546-2.184.022-4.324.557-5.93s1.61-3.766,2.14-5.35A12.861,12.861,0,0,0,1109.06,1004.423Z" transform="translate(0 0)" fill="none" stroke="#d4f1ff" stroke-miterlimit="10" stroke-width="1"/><circle cx="1.605" cy="1.605" r="1.605" transform="translate(1101.035 1003.353)" fill="none" stroke="#d4f1ff" stroke-miterlimit="10" stroke-width="1"/></g></svg>