<svg xmlns="http://www.w3.org/2000/svg" width="28.308" height="28.308" viewBox="0 0 28.308 28.308"><g transform="translate(-1332 -4480.661)"><path d="M14.154,0A14.154,14.154,0,1,1,0,14.154,14.154,14.154,0,0,1,14.154,0Z" transform="translate(1332 4480.661)" fill="#065a9c"/><g transform="translate(1338.333 4489.246)"><path d="M41.593,35.615a6.75,6.75,0,0,1-1.943.532,3.392,3.392,0,0,0,1.488-1.871,6.773,6.773,0,0,1-2.148.821,3.386,3.386,0,0,0-5.765,3.086,9.6,9.6,0,0,1-6.974-3.535A3.387,3.387,0,0,0,27.3,39.164a3.359,3.359,0,0,1-1.532-.424c0,.014,0,.029,0,.043A3.385,3.385,0,0,0,28.479,42.1a3.4,3.4,0,0,1-1.528.059,3.387,3.387,0,0,0,3.16,2.35,6.83,6.83,0,0,1-5.009,1.4A9.621,9.621,0,0,0,39.915,37.8c0-.147,0-.293-.01-.438a6.861,6.861,0,0,0,1.688-1.751Z" transform="translate(-25.103 -34.028)" fill="#fff"/></g></g></svg>