<svg xmlns="http://www.w3.org/2000/svg" width="37.35" height="38.946" viewBox="0 0 37.35 38.946"><g transform="translate(-1286.267 -389.803)"><rect width="31.157" height="31.157" rx="9.143" transform="translate(1286.767 393.697)" fill="none" stroke="#0074cf" stroke-miterlimit="10" stroke-width="1"/><line y2="38.946" transform="translate(1323.117 389.803)" fill="none" stroke="#0074cf" stroke-miterlimit="10" stroke-width="1"/><line x2="5.193" transform="translate(1317.924 400.837)" fill="none" stroke="#0074cf" stroke-miterlimit="10" stroke-width="1"/><line x2="5.193" transform="translate(1317.924 417.714)" fill="none" stroke="#0074cf" stroke-miterlimit="10" stroke-width="1"/><path d="M1314.24,410.294h-5.193V405.1a1.3,1.3,0,0,0-1.3-1.3h-5.193a1.3,1.3,0,0,0-1.3,1.3v5.193h-5.193a1.3,1.3,0,0,0-1.3,1.3v5.193a1.3,1.3,0,0,0,1.3,1.3h5.193v5.193a1.3,1.3,0,0,0,1.3,1.3h5.193a1.3,1.3,0,0,0,1.3-1.3v-5.193h5.193a1.3,1.3,0,0,0,1.3-1.3v-5.193A1.3,1.3,0,0,0,1314.24,410.294Z" transform="translate(-2.807 -4.913)" fill="none" stroke="#0074cf" stroke-miterlimit="10" stroke-width="1"/></g></svg>