<svg xmlns="http://www.w3.org/2000/svg" width="66.963" height="66.962" viewBox="0 0 66.963 66.962"><path d="M61.382,0H5.58A5.587,5.587,0,0,0,0,5.58v55.8a5.587,5.587,0,0,0,5.58,5.58h55.8a5.587,5.587,0,0,0,5.58-5.58V5.58A5.587,5.587,0,0,0,61.382,0ZM64.73,61.382a3.348,3.348,0,0,1-3.348,3.348H5.58a3.348,3.348,0,0,1-3.348-3.348V11.16h62.5V61.382Zm0-52.454H2.232V5.58A3.348,3.348,0,0,1,5.58,2.232h55.8A3.348,3.348,0,0,1,64.731,5.58V8.928Z" fill="#4f4f4f"/><path d="M44.9,34.133H43.783a1.116,1.116,0,0,0,0,2.232H44.9a1.116,1.116,0,0,0,0-2.232Z" transform="translate(-37.087 -29.669)" fill="#4f4f4f"/><path d="M86.873,34.2a1.022,1.022,0,0,0-.848,0,1.289,1.289,0,0,0-.368.234,1.132,1.132,0,0,0,0,1.585,1.289,1.289,0,0,0,.368.234,1.052,1.052,0,0,0,.848,0,1.289,1.289,0,0,0,.368-.234,1.132,1.132,0,0,0,0-1.585A1.289,1.289,0,0,0,86.873,34.2Z" transform="translate(-74.173 -29.65)" fill="#4f4f4f"/><path d="M121.01,34.169a1.116,1.116,0,0,0-1.22.245,1.289,1.289,0,0,0-.234.368,1.051,1.051,0,0,0,0,.848,1.289,1.289,0,0,0,.234.368,1.132,1.132,0,0,0,1.585,0,1.289,1.289,0,0,0,.234-.368.937.937,0,0,0,.089-.424A1.116,1.116,0,0,0,121.01,34.169Z" transform="translate(-103.841 -29.626)" fill="#4f4f4f"/><path d="M201.2,34.133H163.25a1.116,1.116,0,0,0,0,2.232H201.2a1.116,1.116,0,0,0,0-2.232Z" transform="translate(-140.929 -29.669)" fill="#4f4f4f"/><path d="M91.338,157a1.024,1.024,0,0,0,.165.124,22.22,22.22,0,0,0,32.381-.01,1.045,1.045,0,0,0,.156-.112,1.088,1.088,0,0,0,.1-.163,22.186,22.186,0,0,0,0-30.075l0,0a1.09,1.09,0,0,0-.1-.163,1,1,0,0,0-.166-.125,22.22,22.22,0,0,0-32.365,0,.993.993,0,0,0-.166.125,1.089,1.089,0,0,0-.1.163,22.186,22.186,0,0,0,0,30.075A1.076,1.076,0,0,0,91.338,157Zm22.435,3.936a20.509,20.509,0,0,0,3.8-7.031v0a20.434,20.434,0,0,1,3.943,2.426A20.087,20.087,0,0,1,113.773,160.938Zm9.283-6.23a22.633,22.633,0,0,0-4.85-2.974,39.787,39.787,0,0,0,1.168-8.817h8.342A19.977,19.977,0,0,1,123.056,154.709Zm4.661-14.023h-8.342a39.8,39.8,0,0,0-1.168-8.817,22.636,22.636,0,0,0,4.85-2.972A19.977,19.977,0,0,1,127.717,140.686Zm-6.2-13.416a20.425,20.425,0,0,1-3.943,2.426,20.509,20.509,0,0,0-3.8-7.034A20.092,20.092,0,0,1,121.516,127.27Zm-12.715-5.4c2.735.716,5.155,4.005,6.68,8.662a23.7,23.7,0,0,1-6.68,1.271Zm0,12.166A25.81,25.81,0,0,0,116.1,132.7a37.786,37.786,0,0,1,1.048,7.99H108.8Zm0,8.883h8.342a37.784,37.784,0,0,1-1.048,7.988,25.808,25.808,0,0,0-7.294-1.337Zm0,8.884a23.7,23.7,0,0,1,6.68,1.272c-1.525,4.656-3.944,7.945-6.68,8.662Zm-14.947,4.526a20.433,20.433,0,0,1,3.943-2.42v0a20.508,20.508,0,0,0,3.8,7.031A20.09,20.09,0,0,1,93.854,156.327Zm12.715,5.407c-2.735-.716-5.155-4.005-6.68-8.662a23.7,23.7,0,0,1,6.68-1.271Zm0-12.166a25.81,25.81,0,0,0-7.294,1.339,37.787,37.787,0,0,1-1.048-7.99h8.342Zm0-8.883H98.226a37.783,37.783,0,0,1,1.048-7.988,25.808,25.808,0,0,0,7.294,1.337Zm0-18.818V131.8a23.7,23.7,0,0,1-6.68-1.272C101.414,125.874,103.833,122.585,106.569,121.868Zm-4.972.79a20.508,20.508,0,0,0-3.8,7.038v0a20.428,20.428,0,0,1-3.943-2.426A20.09,20.09,0,0,1,101.6,122.658Zm-9.283,6.236a22.634,22.634,0,0,0,4.85,2.974A39.786,39.786,0,0,0,96,140.686H87.653A19.977,19.977,0,0,1,92.313,128.895ZM96,142.918a39.8,39.8,0,0,0,1.168,8.817,22.636,22.636,0,0,0-4.85,2.972,19.977,19.977,0,0,1-4.661-11.789H96Z" transform="translate(-74.203 -103.856)" fill="#0074cf"/></svg>