<svg xmlns="http://www.w3.org/2000/svg" width="15.936" height="15.934" viewBox="0 0 15.936 15.934"><g transform="translate(-294.202 -3037.981)"><path d="M71.379,60.864a1.668,1.668,0,0,0,1.056-.345,1.011,1.011,0,0,0,.383-.837V57.533a.944.944,0,0,0-.39-.778,1.6,1.6,0,0,0-1-.3,1.8,1.8,0,0,0-1.07.285.9.9,0,0,0-.4.77v2.156a1.029,1.029,0,0,0,.388.844A1.613,1.613,0,0,0,71.379,60.864Zm-.468-3.251a.23.23,0,0,1,.127-.2.639.639,0,0,1,.329-.075.722.722,0,0,1,.355.075.227.227,0,0,1,.135.2v2.042a.27.27,0,0,1-.133.238.654.654,0,0,1-.357.086.569.569,0,0,1-.338-.085.277.277,0,0,1-.118-.239Zm3.433,3.248a1.106,1.106,0,0,0,.484-.181,1.813,1.813,0,0,0,.483-.4v.477h.837V56.447h-.837v3.271a1.187,1.187,0,0,1-.258.231.475.475,0,0,1-.234.091.2.2,0,0,1-.17-.069.358.358,0,0,1-.055-.22v-3.3H73.76v3.6a.95.95,0,0,0,.147.577A.549.549,0,0,0,74.344,60.861Zm2.434,1.781H66.664a2.856,2.856,0,0,0-2.911,2.8V67.8a2.913,2.913,0,0,0,.877,2,2.779,2.779,0,0,0,2.034.8H76.777a2.857,2.857,0,0,0,2.911-2.8V65.439A2.856,2.856,0,0,0,76.778,62.642Zm-8.609,2.4h-.894v3.7h-.865v-3.7h-.894V64.41h2.654S68.169,65.042,68.169,65.042ZM70.838,68.8h-.933v-.384a1.991,1.991,0,0,1-.539.323,1.415,1.415,0,0,1-.541.112.676.676,0,0,1-.487-.158.62.62,0,0,1-.164-.468V65.3h.933v2.682a.243.243,0,0,0,.057.179.276.276,0,0,0,.192.055.643.643,0,0,0,.26-.074,1.2,1.2,0,0,0,.29-.188V65.3h.933S70.838,68.8,70.838,68.8Zm3.53-.666a.653.653,0,0,1-.217.527.936.936,0,0,1-.625.183,1.52,1.52,0,0,1-.483-.07,1.214,1.214,0,0,1-.394-.22V68.8h-.931V64.41h.931v1.414a1.516,1.516,0,0,1,.395-.225,1.212,1.212,0,0,1,.425-.077.968.968,0,0,1,.667.205.77.77,0,0,1,.232.606S74.368,68.131,74.368,68.131Zm3.548-.987H76.2v.632a.574.574,0,0,0,.088.368.39.39,0,0,0,.3.1.447.447,0,0,0,.314-.087.568.568,0,0,0,.09-.383v-.152h.924v.172a.914.914,0,0,1-.339.777,1.636,1.636,0,0,1-1.009.26,1.487,1.487,0,0,1-.951-.276.919.919,0,0,1-.347-.76V66.288a.843.843,0,0,1,.383-.712,1.643,1.643,0,0,1,.983-.274,1.536,1.536,0,0,1,.948.254.866.866,0,0,1,.33.731S77.916,67.143,77.916,67.143Zm-10.248-6.27h1.057V58.3l1.23-3.631H68.88l-.654,2.481h-.067l-.685-2.481H66.408l1.259,3.747S67.667,60.873,67.667,60.873Zm5.367,5.163-.2.032-.19.1v2.017a.811.811,0,0,0,.219.114l.222.035a.368.368,0,0,0,.249-.069.28.28,0,0,0,.08-.221V66.369a.307.307,0,0,0-.1-.249A.437.437,0,0,0,73.034,66.036Z" transform="translate(230.449 2983.312)" fill="#fff"/><path d="M192.507,170.021a.426.426,0,0,0-.308.092.406.406,0,0,0-.092.3v.338h.794v-.338a.338.338,0,0,0-.394-.393Z" transform="translate(114.581 2879.18)" fill="#fff"/></g></svg>