<?xml version="1.0" encoding="utf-8"?>
<!-- Generator: Adobe Illustrator 23.0.3, SVG Export Plug-In . SVG Version: 6.00 Build 0)  -->
<svg version="1.1" id="Layer_1" xmlns="http://www.w3.org/2000/svg" xmlns:xlink="http://www.w3.org/1999/xlink" x="0px" y="0px"
	 viewBox="0 0 197.1 197.1" style="enable-background:new 0 0 197.1 197.1;" xml:space="preserve">
<style type="text/css">
	.st0{fill-rule:evenodd;clip-rule:evenodd;fill:#FFFFFF;}
</style>
<g>
	<path class="st0" d="M97.8,5c-14.6,0.1-28.4,3.6-40.7,9.7c-3.2,9.2-5.3,19-6.3,29.1c-0.2,1.7-0.3,3.4-0.4,5.1
		c14.1,2,28.3,5.8,42,11c10.1-4.3,20.8-7.4,31.6-9.1c0.5-3.6,2.1-6.9,4.6-9.4l0.1-0.2c0.8-0.8,1.6-1.4,2.5-2
		c-3.7-5.8-8.2-11.5-13.5-17.1C112,16.1,105.4,10.4,97.8,5L97.8,5z M6.9,117.3c0.6,0.2,1.3,0.4,1.9,0.6c5,1.5,11.5,2.9,18.9,4
		c3.3-7.6,7.5-14.8,12.4-21.4l-0.1-0.1l0,0l0,0c-3-3-4.8-7.1-4.8-11.7S37,80.1,40,77.1c1.8-1.8,4-3.2,6.5-4
		c-0.9-6.6-1.3-13.3-1.2-19.9c-9.6-1.1-19.2-1.2-28.4-0.4C9.3,66.3,5,81.9,5,98.5C5,105,5.6,111.3,6.9,117.3L6.9,117.3z M32.8,122.7
		c3.1-6.8,6.9-13.2,11.3-19.2c2.3,1.2,4.8,1.8,7.6,1.8c1.3,0,2.6-0.2,3.8-0.4c3.1,7,7,13.7,11.7,19.9
		C54.8,124.7,43,123.9,32.8,122.7L32.8,122.7z M73.5,124.7c10.8-0.2,22-0.9,33.1-2.4c10.6-1.4,20.9-3.5,30.7-6.4
		c1.4-3.1,2.5-6.2,3.5-9.4c1.1-3.7,2-7.6,2.6-11.4c-8.1-6.7-17.2-12.8-26.8-18.3c-7.7-4.3-15.8-8.2-24.1-11.5
		c-9.3,4.2-18.2,9.4-26.2,15.7c1.3,2.3,2,5,2,7.9c0,4.5-1.8,8.6-4.7,11.5l-0.2,0.2c-1,1-2.1,1.8-3.3,2.5
		C63.6,110.7,68,118,73.5,124.7L73.5,124.7z M143.4,113.9c4.9-1.7,9.6-3.6,14-5.8c-3-3.2-6.3-6.3-9.7-9.4c-0.6,3.1-1.4,6.2-2.3,9.2
		C144.9,109.9,144.2,111.9,143.4,113.9L143.4,113.9z M162,105.7c-4.1-4.4-8.5-8.7-13.3-12.8c1-8.3,0.8-16.8-0.8-25.3
		c1.6-0.8,3-1.8,4.2-3.1l0,0h0c2.6-2.6,4.3-6,4.7-9.8c4.5,0.5,9,1.3,13.4,2.3c4.9,1.1,9.6,2.6,14.3,4.4c2.2,5,3.9,10.3,5.2,15.7
		C184.5,89.4,174.6,98.7,162,105.7L162,105.7z M194.6,76.4l0.7,0.3c-0.1,0.4-0.3,0.7-0.4,1.1c1.4,6.7,2.2,13.6,2.2,20.8
		c0,27.2-11,51.8-28.9,69.7s-42.5,28.9-69.7,28.9c-27.2,0-51.8-11-69.7-28.9c-3.3-3.3-6.3-6.8-9.1-10.5l0-0.1
		C7.3,141.2,0,120.7,0,98.5c0-27.2,11-51.8,28.9-69.7C46.7,11,71.3,0,98.5,0c27.2,0,51.8,11,69.7,28.9
		C181.1,41.7,190.4,58.1,194.6,76.4L194.6,76.4z M191.2,85.3c-5.9,10-14.9,17.9-25.8,24.2c7.8,9.1,13.9,18.8,17.9,28.8
		c5.7-12.1,8.9-25.6,8.9-39.8C192.1,94.1,191.8,89.6,191.2,85.3L191.2,85.3z M160.9,111.9c8.9,10.2,15.6,21.2,19.2,32.4
		c-3.5,6.3-7.8,12.1-12.6,17.4c-7.9,0.2-15.3-0.1-22.3-0.9c-6.6-0.7-12.9-1.9-18.7-3.4c0.3-1.2,0.4-2.4,0.4-3.6c0-3.4-1-6.5-2.7-9.1
		c6.8-7.5,12.5-15.8,16.7-24.8C147.9,117.7,154.7,115,160.9,111.9L160.9,111.9z M134.4,121.8c-3.6,6.9-8.2,13.3-13.5,19.2
		c-2.9-2.3-6.5-3.7-10.5-3.7c-4.6,0-8.7,1.9-11.7,4.9c-0.8,0.8-1.6,1.7-2.2,2.7c-7.1-4.4-13.3-9.6-18.7-15.3
		c9.7-0.3,19.7-1,29.5-2.4C116.5,125.9,125.7,124.2,134.4,121.8L134.4,121.8z M71.2,129.7c-14.7,0.1-28.6-0.8-40.4-2.3l-0.1,0.2
		c-3.4,8.7-5.6,18-6.5,27.8c2.5,3.3,5.2,6.4,8.1,9.3c3.8,3.8,8,7.3,12.4,10.4c9.3,0.1,18.3-1.2,27-3.6c8.4-2.4,16.5-5.8,23.9-10.1
		c-1.2-2.3-1.8-4.8-1.8-7.6c0-1.5,0.2-3,0.6-4.4c-8.9-5.4-16.4-11.9-22.8-19.2L71.2,129.7L71.2,129.7z M25.8,126.7
		C19,125.6,13,124.4,8.2,123c2.5,9.5,6.5,18.4,11.8,26.4C21.1,141.4,23.1,133.9,25.8,126.7L25.8,126.7z M50.7,18.1
		c-2.4,8.1-4.1,16.5-4.9,25.1c-0.2,1.7-0.3,3.3-0.4,5c-8.6-0.9-17.1-1.2-25.4-0.6c3.6-5.5,7.7-10.6,12.3-15.2
		C37.9,26.9,44,22.1,50.7,18.1L50.7,18.1z M50.3,53.8c12,1.7,24.1,4.8,35.8,9c-8.1,3.9-15.7,8.7-22.8,14.2c-3-2.9-7.1-4.7-11.6-4.7
		h-0.3C50.5,66.1,50.2,60,50.3,53.8L50.3,53.8z M162.6,166.7c-6.2,0-12.2-0.3-17.9-1c-7.1-0.8-13.7-2-20-3.6
		c-0.7,1.3-1.6,2.4-2.6,3.4c-3,3-7.1,4.9-11.7,4.9c-4.6,0-8.7-1.9-11.7-4.9l-0.1-0.1c-7.9,4.6-16.5,8.3-25.5,10.8
		c-6.7,1.9-13.7,3.1-20.9,3.6c13.7,7.8,29.5,12.3,46.4,12.3C123.3,192.1,145.9,182.4,162.6,166.7L162.6,166.7z M135.7,37
		c-3.9-6.3-8.7-12.5-14.5-18.5c-4.4-4.5-9.3-9-14.8-13.3c22.7,1.9,43.1,11.9,58.2,27.1c6.7,6.7,12.4,14.4,16.8,22.8
		c-3.3-1.1-6.7-2.1-10.1-2.9c-4.9-1.2-9.8-2-14.8-2.5c-0.6-3.3-2.3-6.3-4.6-8.6l0,0v0l0,0c-3-3-7.1-4.8-11.7-4.8
		C138.8,36.4,137.2,36.6,135.7,37L135.7,37z M144.1,89.2c-7.7-6.1-16.2-11.8-25.1-16.8c-6.4-3.6-13.1-6.9-20-9.9
		c8.1-3.1,16.5-5.4,25.1-6.8c0.6,3.4,2.3,6.5,4.6,8.9c3,3,7.1,4.8,11.7,4.8c0.9,0,1.9-0.1,2.7-0.2C144.3,75.9,144.6,82.6,144.1,89.2
		L144.1,89.2z M140.4,64.5c-3.2,0-6.1-1.3-8.2-3.4c-2.1-2.1-3.4-5-3.4-8.2c0-3.2,1.3-6,3.3-8.1l0.1-0.1c2.1-2.1,5-3.4,8.2-3.4
		c3.2,0,6.1,1.3,8.2,3.4h0c1.9,1.9,3.2,4.5,3.4,7.5v0l0,0.1v0.1v0c0,0.2,0,0.4,0,0.6c0,3.2-1.3,6.1-3.4,8.2l0,0
		c-1.2,1.2-2.7,2.2-4.4,2.7l0,0C143,64.3,141.7,64.5,140.4,64.5L140.4,64.5z M51.7,100.3c-3.2,0-6.1-1.3-8.2-3.4v0
		c-2.1-2.1-3.4-5-3.4-8.2c0-3.2,1.3-6.1,3.4-8.2c2.1-2.1,5-3.4,8.2-3.4s6.1,1.3,8.2,3.4c2.1,2.1,3.4,5,3.4,8.2c0,3.1-1.3,6-3.3,8.1
		L59.9,97C57.8,99.1,54.9,100.3,51.7,100.3L51.7,100.3z M110.4,165.4c3.2,0,6.1-1.3,8.2-3.4c2.1-2.1,3.4-5,3.4-8.2
		c0-3.2-1.3-6.1-3.4-8.2c-2.1-2.1-5-3.4-8.2-3.4c-3.2,0-6.1,1.3-8.2,3.4c-2.1,2.1-3.4,5-3.4,8.2c0,3.2,1.3,6.1,3.4,8.2
		C104.3,164.1,107.2,165.4,110.4,165.4z"/>
</g>
</svg>
